<mxfile host="app.diagrams.net" agent="Mozilla/5.0 (Macintosh; Intel Mac OS X 10_15_7) AppleWebKit/537.36 (KHTML, like Gecko) Chrome/135.0.0.0 Safari/537.36" version="26.2.10">
  <diagram name="Page-1" id="5f0bae14-7c28-e335-631c-24af17079c00">
    <mxGraphModel dx="978" dy="544" grid="1" gridSize="10" guides="1" tooltips="1" connect="1" arrows="1" fold="1" page="1" pageScale="1" pageWidth="1100" pageHeight="850" background="none" math="0" shadow="0">
      <root>
        <mxCell id="0" />
        <mxCell id="1" parent="0" />
        <mxCell id="Dai6Ap41a36IRt_M9ltU-17" value="&lt;b&gt;RUNNING SYSTEM&lt;/b&gt;" style="rounded=0;whiteSpace=wrap;html=1;fillColor=light-dark(#cde846, #281d00);strokeColor=#d6b656;align=left;verticalAlign=top;fontFamily=Verdana;fontSize=14;" parent="1" vertex="1">
          <mxGeometry x="80" y="80" width="600" height="480" as="geometry" />
        </mxCell>
        <mxCell id="Dai6Ap41a36IRt_M9ltU-18" style="edgeStyle=elbowEdgeStyle;rounded=0;orthogonalLoop=1;jettySize=auto;html=1;entryX=0.683;entryY=1.002;entryDx=0;entryDy=0;entryPerimeter=0;fontFamily=Verdana;fontSize=14;" parent="1" source="Dai6Ap41a36IRt_M9ltU-19" target="Dai6Ap41a36IRt_M9ltU-20" edge="1">
          <mxGeometry relative="1" as="geometry" />
        </mxCell>
        <mxCell id="Dai6Ap41a36IRt_M9ltU-19" value="Opendatasoft" style="verticalAlign=top;align=left;spacingTop=8;spacingLeft=2;spacingRight=12;shape=cube;size=10;direction=south;fontStyle=4;html=1;rounded=0;shadow=0;comic=0;labelBackgroundColor=none;strokeWidth=1;fontFamily=Verdana;fontSize=14;" parent="1" vertex="1">
          <mxGeometry x="100" y="300" width="200" height="120" as="geometry" />
        </mxCell>
        <mxCell id="Dai6Ap41a36IRt_M9ltU-20" value="LocalEnergyCharts" style="verticalAlign=top;align=left;spacingTop=8;spacingLeft=2;spacingRight=12;shape=cube;size=10;direction=south;fontStyle=4;html=1;rounded=0;shadow=0;comic=0;labelBackgroundColor=none;strokeWidth=1;fontFamily=Verdana;fontSize=14;" parent="1" vertex="1">
          <mxGeometry x="340" y="185" width="240" height="200" as="geometry" />
        </mxCell>
        <mxCell id="Dai6Ap41a36IRt_M9ltU-21" style="edgeStyle=elbowEdgeStyle;rounded=0;orthogonalLoop=1;jettySize=auto;html=1;fontFamily=Verdana;fontSize=14;" parent="1" source="Dai6Ap41a36IRt_M9ltU-22" target="Dai6Ap41a36IRt_M9ltU-20" edge="1">
          <mxGeometry relative="1" as="geometry" />
        </mxCell>
        <mxCell id="Dai6Ap41a36IRt_M9ltU-22" value="Marktstammdatenregister" style="verticalAlign=top;align=left;spacingTop=8;spacingLeft=2;spacingRight=12;shape=cube;size=10;direction=south;fontStyle=4;html=1;rounded=0;shadow=0;comic=0;labelBackgroundColor=none;strokeWidth=1;fontFamily=Verdana;fontSize=14;" parent="1" vertex="1">
          <mxGeometry x="100" y="140" width="200" height="120" as="geometry" />
        </mxCell>
        <mxCell id="Dai6Ap41a36IRt_M9ltU-23" value="" style="shape=image;verticalLabelPosition=bottom;labelBackgroundColor=default;verticalAlign=top;aspect=fixed;imageAspect=0;image=data:image/svg+xml,PHN2ZyB4bWxuczp4bGluaz0iaHR0cDovL3d3dy53My5vcmcvMTk5OS94bGluayIgeG1sbnM9Imh0dHA6Ly93d3cudzMub3JnLzIwMDAvc3ZnIiB4bWw6c3BhY2U9InByZXNlcnZlIiB2aWV3Qm94PSIwIDAgMTY0Ljc1IDY4Ljc1IiBoZWlnaHQ9IjY4Ljc1cHgiIHdpZHRoPSIxNjQuNzVweCIgeT0iMHB4IiB4PSIwcHgiIHZlcnNpb249IjEuMSI+JiN4YTs8ZyBpZD0iRWJlbmVfMiI+JiN4YTsJPHJlY3QgaGVpZ2h0PSI2OC43NSIgd2lkdGg9IjE2NC43NSIgZmlsbD0iI0ZGRkZGRiIvPiYjeGE7PC9nPiYjeGE7PGcgaWQ9IkViZW5lXzEiPiYjeGE7CTxnPiYjeGE7CQk8cGF0aCBkPSJNMjguNjExLDU2LjEwOWgtMC45MTZ2LTUuMzcxaC0wLjAyMWwtMi4xNjgsNS4zNzFoLTAuODE3bC0yLjE2OC01LjM3MWgtMC4wMjJ2NS4zNzFoLTAuOTE1di03LjUxOGgxLjAzNWwyLjUxNyw2LjE2NyYjMTA7JiM5OyYjOTsmIzk7aDAuMDIybDIuNTA1LTYuMTY3aDAuOTQ4VjU2LjEwOXoiLz4mI3hhOwkJPHBhdGggZD0iTTMyLjQ4OCw1My4yMDFoMC40MzZ2LTAuNDAzYzAtMC45MTUtMC4zNi0xLjI2NC0xLjAzNS0xLjI2NGMtMC42MzIsMC0xLjA2OCwwLjI5NC0xLjI5NiwwLjQ3OWwtMC4zMjctMC42NTQmIzEwOyYjOTsmIzk7JiM5O2MwLjI3Mi0wLjIwNywwLjgwNy0wLjYxLDEuNzg3LTAuNjFjMS4xNDQsMCwxLjc1NCwwLjY2NSwxLjc1NCwyLjA0OHYyLjIyM2MwLDAuNDQ3LDAuMDQzLDAuOTQ4LDAuMDY1LDEuMDg5aC0wLjg1bC0wLjAzMi0wLjU3OCYjMTA7JiM5OyYjOTsmIzk7aC0wLjAyMmMtMC4xODUsMC4yOTQtMC42MzIsMC43MDgtMS40NiwwLjcwOGMtMC44NjEsMC0xLjQxNy0wLjYxLTEuNDE3LTEuNDkzQzMwLjA5MSw1My42NjksMzEuMTI2LDUzLjIwMSwzMi40ODgsNTMuMjAxeiYjMTA7JiM5OyYjOTsmIzk7IE0zMi45MjQsNTQuOTY1di0xLjEzM2wtMC41MDEsMC4wMjFjLTAuOTkxLDAuMDQ0LTEuNDQ5LDAuMjgzLTEuNDQ5LDAuODM5YzAsMC41MTIsMC4zNDksMC43OTUsMC43MywwLjc5NSYjMTA7JiM5OyYjOTsmIzk7QzMyLjQwMSw1NS40ODgsMzIuNzI4LDU1LjE3MiwzMi45MjQsNTQuOTY1eiIvPiYjeGE7CQk8cGF0aCBkPSJNMzcuOTU3LDUxLjY2NWMtMC4wNjUtMC4wMzMtMC4xOTYtMC4wOTgtMC40NzktMC4wOThjLTAuNjk3LDAtMS4wNTcsMC40MjUtMS4yMDksMC43NDF2My44MDJoLTAuODgyVjUwLjg4aDAuODE3djAuNzczJiMxMDsmIzk7JiM5OyYjOTtoMC4wMjFjMC4xNjQtMC4zODEsMC41MTItMC44NzIsMS4zMjktMC44NzJjMC4yMTgsMCwwLjM0OSwwLjAzMywwLjQ3OSwwLjA3NkwzNy45NTcsNTEuNjY1eiIvPiYjeGE7CQk8cGF0aCBkPSJNNDEuMTA1LDUzLjIzM2wyLjE2OCwyLjg3NmgtMS4xMTFsLTEuNzg3LTIuNDRoLTAuNDM2djIuNDRoLTAuODgydi03LjcwM2wwLjg4Mi0wLjA5OHY0LjYwOGgwLjQ1OGwxLjcyMS0yLjAzN2gxLjA2OCYjMTA7JiM5OyYjOTsmIzk7TDQxLjEwNSw1My4yMzN6Ii8+JiN4YTsJCTxwYXRoIGQ9Ik00Ni43MjcsNTEuNjMyaC0xLjM1MXYyLjcwMmMwLDAuODE3LDAuMjA3LDEuMTIyLDAuNzg0LDEuMTIyYzAuMjg0LDAsMC41MDEtMC4wOTgsMC42MS0wLjE1MmwwLjA4NywwLjcwOCYjMTA7JiM5OyYjOTsmIzk7Yy0wLjA4NywwLjA1NS0wLjM4MSwwLjIyOS0wLjkzNywwLjIyOWMtMS4wMjQsMC0xLjQyNy0wLjU4OC0xLjQyNy0xLjc4N3YtMi44MjJoLTAuNzE5di0wLjYyMWwwLjcxOS0wLjEzMWwwLjA5OC0xLjQ2aDAuNzg0djEuNDYmIzEwOyYjOTsmIzk7JiM5O2gxLjQ2TDQ2LjcyNyw1MS42MzJ6Ii8+JiN4YTsJCTxwYXRoIGQ9Ik01MC41MTcsNTEuOTY5Yy0wLjE4NS0wLjE1Mi0wLjU3Ny0wLjQ1OC0xLjE1NS0wLjQ1OGMtMC41NjYsMC0wLjgzOSwwLjI0LTAuODM5LDAuNTQ1YzAsMC40MTQsMC4yNCwwLjU5OSwwLjc5NSwwLjg4MiYjMTA7JiM5OyYjOTsmIzk7bDAuMzkyLDAuMTk2YzAuODE3LDAuNDE0LDEuMjY0LDAuODYsMS4yNjQsMS42MjNjMCwwLjc5NS0wLjU4OCwxLjQ4Mi0xLjg2MywxLjQ4MmMtMC44NzIsMC0xLjMyOS0wLjMzOC0xLjU2OS0wLjU1NmwwLjMyNy0wLjc3MyYjMTA7JiM5OyYjOTsmIzk7YzAuMjI5LDAuMjI5LDAuNjEsMC41NDQsMS4yNDIsMC41NDRjMC42NjUsMCwxLjAwMi0wLjI1LDEuMDAyLTAuNTg4YzAtMC41MDEtMC4zMjctMC42ODYtMC45MTUtMS4wMDJsLTAuMzgxLTAuMjA3JiMxMDsmIzk7JiM5OyYjOTtjLTAuNzUyLTAuNDAzLTEuMTIyLTAuODM5LTEuMTIyLTEuNTU4YzAtMC43NzMsMC42OTctMS4zNTEsMS42ODgtMS4zNTFjMC44MzksMCwxLjI0MiwwLjM0OSwxLjQyNywwLjUwMUw1MC41MTcsNTEuOTY5eiIvPiYjeGE7CQk8cGF0aCBkPSJNNTQuNzAxLDUxLjYzMkg1My4zNXYyLjcwMmMwLDAuODE3LDAuMjA3LDEuMTIyLDAuNzg1LDEuMTIyYzAuMjgzLDAsMC41MDEtMC4wOTgsMC42MS0wLjE1MmwwLjA4NywwLjcwOCYjMTA7JiM5OyYjOTsmIzk7Yy0wLjA4NywwLjA1NS0wLjM4MSwwLjIyOS0wLjkzNywwLjIyOWMtMS4wMjQsMC0xLjQyNy0wLjU4OC0xLjQyNy0xLjc4N3YtMi44MjJoLTAuNzE5di0wLjYyMWwwLjcxOS0wLjEzMWwwLjA5OC0xLjQ2aDAuNzg1djEuNDYmIzEwOyYjOTsmIzk7JiM5O2gxLjQ2TDU0LjcwMSw1MS42MzJ6Ii8+JiN4YTsJCTxwYXRoIGQ9Ik01Ny45NTgsNTMuMjAxaDAuNDM2di0wLjQwM2MwLTAuOTE1LTAuMzYtMS4yNjQtMS4wMzUtMS4yNjRjLTAuNjMyLDAtMS4wNjgsMC4yOTQtMS4yOTYsMC40NzlsLTAuMzI3LTAuNjU0JiMxMDsmIzk7JiM5OyYjOTtjMC4yNzItMC4yMDcsMC44MDctMC42MSwxLjc4Ny0wLjYxYzEuMTQ0LDAsMS43NTQsMC42NjUsMS43NTQsMi4wNDh2Mi4yMjNjMCwwLjQ0NywwLjA0MywwLjk0OCwwLjA2NSwxLjA4OWgtMC44NWwtMC4wMzMtMC41NzgmIzEwOyYjOTsmIzk7JiM5O2gtMC4wMjJjLTAuMTg1LDAuMjk0LTAuNjMyLDAuNzA4LTEuNDYsMC43MDhjLTAuODYxLDAtMS40MTctMC42MS0xLjQxNy0xLjQ5M0M1NS41NjEsNTMuNjY5LDU2LjU5Niw1My4yMDEsNTcuOTU4LDUzLjIwMXomIzEwOyYjOTsmIzk7JiM5OyBNNTguMzk0LDU0Ljk2NXYtMS4xMzNsLTAuNTAxLDAuMDIxYy0wLjk5MSwwLjA0NC0xLjQ0OSwwLjI4My0xLjQ0OSwwLjgzOWMwLDAuNTEyLDAuMzQ5LDAuNzk1LDAuNzMsMC43OTUmIzEwOyYjOTsmIzk7JiM5O0M1Ny44NzEsNTUuNDg4LDU4LjE5Nyw1NS4xNzIsNTguMzk0LDU0Ljk2NXoiLz4mI3hhOwkJPHBhdGggZD0iTTY0LjAyNSw1Ni4xMDl2LTMuMDk0YzAtMS4wMzUtMC4yOTQtMS40ODEtMC45MzctMS40ODFjLTAuNzQxLDAtMS4xNTUsMC4zNTktMS4zNTEsMC41NjZ2NC4wMDloLTAuODgyVjUwLjg4aDAuODE3djAuNTg4JiMxMDsmIzk7JiM5OyYjOTtoMC4wMjFjMC4yMTgtMC4yNCwwLjczLTAuNzE5LDEuNjAyLTAuNzE5YzAuNjEsMCwxLjA3OSwwLjI1LDEuMzQsMC43NzNjMC4yNjEtMC4yOTQsMC44MzktMC43NzMsMS42NjctMC43NzMmIzEwOyYjOTsmIzk7JiM5O2MxLjE0NCwwLDEuNzc2LDAuNjk3LDEuNzc2LDIuMTI1djMuMjM2aC0wLjg4MnYtMy4wOTRjMC0xLjAzNS0wLjM5Mi0xLjQ4MS0xLjEwMS0xLjQ4MWMtMC42MjEsMC0xLjAzNSwwLjM0OS0xLjI2NCwwLjU2NiYjMTA7JiM5OyYjOTsmIzk7YzAuMDU1LDAuMjI5LDAuMDc2LDAuNDc5LDAuMDc2LDAuNzczdjMuMjM2SDY0LjAyNXoiLz4mI3hhOwkJPHBhdGggZD0iTTcyLjgxNiw1Ni4xMDl2LTMuMDk0YzAtMS4wMzUtMC4yOTQtMS40ODEtMC45MzctMS40ODFjLTAuNzQxLDAtMS4xNTUsMC4zNTktMS4zNTEsMC41NjZ2NC4wMDloLTAuODgyVjUwLjg4aDAuODE3djAuNTg4JiMxMDsmIzk7JiM5OyYjOTtoMC4wMjFjMC4yMTgtMC4yNCwwLjczLTAuNzE5LDEuNjAyLTAuNzE5YzAuNjEsMCwxLjA3OSwwLjI1LDEuMzQsMC43NzNjMC4yNjEtMC4yOTQsMC44MzktMC43NzMsMS42NjctMC43NzMmIzEwOyYjOTsmIzk7JiM5O2MxLjE0NCwwLDEuNzc2LDAuNjk3LDEuNzc2LDIuMTI1djMuMjM2aC0wLjg4MnYtMy4wOTRjMC0xLjAzNS0wLjM5Mi0xLjQ4MS0xLjEwMS0xLjQ4MWMtMC42MjEsMC0xLjAzNSwwLjM0OS0xLjI2NCwwLjU2NiYjMTA7JiM5OyYjOTsmIzk7YzAuMDU1LDAuMjI5LDAuMDc2LDAuNDc5LDAuMDc2LDAuNzczdjMuMjM2SDcyLjgxNnoiLz4mI3hhOwkJPHBhdGggZD0iTTgwLjcxNCw1MC43ODJjMC40NTgsMCwwLjc3NCwwLjA5OCwwLjk4MSwwLjE4NnYtMi41NjFsMC44ODItMC4wOTh2Ny44MDFIODEuNzZ2LTAuNTg4aC0wLjAyMSYjMTA7JiM5OyYjOTsmIzk7Yy0wLjE0MiwwLjE5Ni0wLjUwMSwwLjcxOS0xLjU1OCwwLjcxOWMtMS4xNDQsMC0yLjAxNi0wLjkyNi0yLjAxNi0yLjYzN0M3OC4xNjUsNTEuNTg4LDc5LjQ1MSw1MC43ODIsODAuNzE0LDUwLjc4MnomIzEwOyYjOTsmIzk7JiM5OyBNODEuNjk1LDU0Ljg3OHYtMy4wNTFjLTAuMTg2LTAuMTMxLTAuNDY5LTAuMjYxLTAuOTM3LTAuMjYxYy0xLjAxMywwLTEuNjc4LDAuNTU2LTEuNjc4LDEuOTcyYzAsMS40MDYsMC42NDMsMS45MTcsMS40MjcsMS45MTcmIzEwOyYjOTsmIzk7JiM5O0M4MS4yMTYsNTUuNDU2LDgxLjU0Miw1NS4wNjMsODEuNjk1LDU0Ljg3OHoiLz4mI3hhOwkJPHBhdGggZD0iTTg2LjI0OSw1My4yMDFoMC40MzZ2LTAuNDAzYzAtMC45MTUtMC4zNi0xLjI2NC0xLjAzNS0xLjI2NGMtMC42MzIsMC0xLjA2OCwwLjI5NC0xLjI5NiwwLjQ3OWwtMC4zMjctMC42NTQmIzEwOyYjOTsmIzk7JiM5O2MwLjI3Mi0wLjIwNywwLjgwNy0wLjYxLDEuNzg3LTAuNjFjMS4xNDQsMCwxLjc1NCwwLjY2NSwxLjc1NCwyLjA0OHYyLjIyM2MwLDAuNDQ3LDAuMDQzLDAuOTQ4LDAuMDY1LDEuMDg5aC0wLjg1bC0wLjAzMy0wLjU3OCYjMTA7JiM5OyYjOTsmIzk7aC0wLjAyMmMtMC4xODUsMC4yOTQtMC42MzIsMC43MDgtMS40NiwwLjcwOGMtMC44NjEsMC0xLjQxNy0wLjYxLTEuNDE3LTEuNDkzQzgzLjg1Miw1My42NjksODQuODg3LDUzLjIwMSw4Ni4yNDksNTMuMjAxeiYjMTA7JiM5OyYjOTsmIzk7IE04Ni42ODUsNTQuOTY1di0xLjEzM2wtMC41MDEsMC4wMjFjLTAuOTkxLDAuMDQ0LTEuNDQ5LDAuMjgzLTEuNDQ5LDAuODM5YzAsMC41MTIsMC4zNDksMC43OTUsMC43MywwLjc5NSYjMTA7JiM5OyYjOTsmIzk7Qzg2LjE2Miw1NS40ODgsODYuNDg4LDU1LjE3Miw4Ni42ODUsNTQuOTY1eiIvPiYjeGE7CQk8cGF0aCBkPSJNOTEuNjA4LDUxLjYzMmgtMS4zNTF2Mi43MDJjMCwwLjgxNywwLjIwNywxLjEyMiwwLjc4NCwxLjEyMmMwLjI4NCwwLDAuNTAxLTAuMDk4LDAuNjEtMC4xNTJsMC4wODcsMC43MDgmIzEwOyYjOTsmIzk7JiM5O2MtMC4wODcsMC4wNTUtMC4zODEsMC4yMjktMC45MzcsMC4yMjljLTEuMDI0LDAtMS40MjctMC41ODgtMS40MjctMS43ODd2LTIuODIyaC0wLjcxOXYtMC42MjFsMC43MTktMC4xMzFsMC4wOTgtMS40NmgwLjc4NHYxLjQ2JiMxMDsmIzk7JiM5OyYjOTtoMS40Nkw5MS42MDgsNTEuNjMyeiIvPiYjeGE7CQk8cGF0aCBkPSJNOTYuNDY3LDUzLjY4aC0zLjA0YzAuMDY1LDEuMjA5LDAuNjQzLDEuNzc2LDEuNTkxLDEuNzc2YzAuODI4LDAsMS4yMzEtMC4zNTksMS4zNzMtMC40OWwwLjI2MSwwLjYzMiYjMTA7JiM5OyYjOTsmIzk7Yy0wLjE3NCwwLjE3NC0wLjYyMSwwLjY0My0xLjczMiwwLjY0M2MtMS40ODIsMC0yLjM3NS0wLjg2MS0yLjM3NS0yLjgxMWMwLTEuODMsMS4wNzktMi42OCwyLjI2Ni0yLjY4JiMxMDsmIzk7JiM5OyYjOTtjMS4wNzksMCwxLjc1NCwwLjczLDEuNzU0LDIuMDQ4Qzk2LjU2NSw1My4xNDYsOTYuNTIxLDUzLjQyOSw5Ni40NjcsNTMuNjh6IE05My40MjcsNTIuOTk0aDIuMjg4JiMxMDsmIzk7JiM5OyYjOTtjMC4wMjEtMC4xMzEsMC4wMjEtMC4yNCwwLjAyMS0wLjM0OWMwLTAuNzMtMC4zODEtMS4xNDQtMS4wMDItMS4xNDRDOTQuMDA0LDUxLjUwMSw5My40OTMsNTIuMDM1LDkzLjQyNyw1Mi45OTR6Ii8+JiN4YTsJCTxwYXRoIGQ9Ik0xMDEuMjYsNTYuMTA5di0zLjA5NGMwLTEuMDAyLTAuMzA1LTEuNDgxLTEuMDQ2LTEuNDgxYy0wLjcwOCwwLTEuMTMzLDAuMzQ5LTEuMzczLDAuNTY2djQuMDA5aC0wLjg4MlY1MC44OGgwLjgxN3YwLjU4OCYjMTA7JiM5OyYjOTsmIzk7aDAuMDIxYzAuMjA3LTAuMjI5LDAuNzE5LTAuNzE5LDEuNjI0LTAuNzE5YzEuMTExLDAsMS43MjEsMC42OTcsMS43MjEsMi4xMjV2My4yMzZIMTAxLjI2eiIvPiYjeGE7CQk8cGF0aCBkPSJNMTA2LjI4Miw1MS42NjVjLTAuMDY1LTAuMDMzLTAuMTk2LTAuMDk4LTAuNDc5LTAuMDk4Yy0wLjY5NywwLTEuMDU3LDAuNDI1LTEuMjA5LDAuNzQxdjMuODAyaC0wLjg4MlY1MC44OGgwLjgxN3YwLjc3MyYjMTA7JiM5OyYjOTsmIzk7aDAuMDIxYzAuMTY0LTAuMzgxLDAuNTEyLTAuODcyLDEuMzI5LTAuODcyYzAuMjE4LDAsMC4zNDksMC4wMzMsMC40NzksMC4wNzZMMTA2LjI4Miw1MS42NjV6Ii8+JiN4YTsJCTxwYXRoIGQ9Ik0xMTAuOTU1LDUzLjY4aC0zLjA0YzAuMDY1LDEuMjA5LDAuNjQzLDEuNzc2LDEuNTkxLDEuNzc2YzAuODI4LDAsMS4yMzEtMC4zNTksMS4zNzMtMC40OWwwLjI2MSwwLjYzMiYjMTA7JiM5OyYjOTsmIzk7Yy0wLjE3NCwwLjE3NC0wLjYyMSwwLjY0My0xLjczMiwwLjY0M2MtMS40ODIsMC0yLjM3NS0wLjg2MS0yLjM3NS0yLjgxMWMwLTEuODMsMS4wNzktMi42OCwyLjI2Ni0yLjY4JiMxMDsmIzk7JiM5OyYjOTtjMS4wNzksMCwxLjc1NCwwLjczLDEuNzU0LDIuMDQ4QzExMS4wNTMsNTMuMTQ2LDExMS4wMSw1My40MjksMTEwLjk1NSw1My42OHogTTEwNy45MTYsNTIuOTk0aDIuMjg4JiMxMDsmIzk7JiM5OyYjOTtjMC4wMjEtMC4xMzEsMC4wMjEtMC4yNCwwLjAyMS0wLjM0OWMwLTAuNzMtMC4zODEtMS4xNDQtMS4wMDItMS4xNDRDMTA4LjQ5Myw1MS41MDEsMTA3Ljk4MSw1Mi4wMzUsMTA3LjkxNiw1Mi45OTR6Ii8+JiN4YTsJCTxwYXRoIGQ9Ik0xMTYuNzA3LDUxLjU2NmgtMC43OTVjMC4xODYsMC4yNzIsMC4yOTQsMC41OTksMC4yOTQsMC45NDhjMCwxLjExMS0wLjg4MiwxLjc2NS0yLjA0OCwxLjc2NSYjMTA7JiM5OyYjOTsmIzk7Yy0wLjE1MiwwLTAuMjk0LTAuMDExLTAuNDM2LTAuMDMyYy0wLjE3NCwwLjA3Ni0wLjQzNiwwLjIyOS0wLjQzNiwwLjUxMmMwLDAuMjE4LDAuMTY0LDAuMzcxLDAuNTU2LDAuMzcxaDEuMDY4JiMxMDsmIzk7JiM5OyYjOTtjMS4xLDAsMS43MzIsMC40NTgsMS43MzIsMS4zODRjMCwwLjk5MS0wLjk0OCwxLjkwNi0yLjc2NywxLjkwNmMtMS4yNDIsMC0xLjk2MS0wLjQ3OS0xLjk2MS0xLjQxNiYjMTA7JiM5OyYjOTsmIzk7YzAtMC43OTUsMC41OTktMS4xMjMsMC45MTUtMS4yODZ2LTAuMDIyYy0wLjIyOS0wLjE3NC0wLjMyNy0wLjQ0Ny0wLjMyNy0wLjc0MWMwLTAuNTQ1LDAuNDc5LTAuODA2LDAuNjIxLTAuODcydi0wLjAyMiYjMTA7JiM5OyYjOTsmIzk7Yy0wLjUzNC0wLjI2MS0wLjg4Mi0wLjc3My0wLjg4Mi0xLjU0N2MwLTEuMTc3LDAuODgyLTEuNzY1LDEuOTgzLTEuNzY1YzAuMjgzLDAsMC41NDUsMC4wNDMsMC43ODUsMC4xMzFoMS44MDhMMTE2LjcwNyw1MS41NjZ6JiMxMDsmIzk7JiM5OyYjOTsgTTExMy4zMDgsNTUuOTAyYy0wLjI3MiwwLjE2NC0wLjU0NSwwLjQyNS0wLjU0NSwwLjkyNmMwLDAuNTg4LDAuMzkyLDAuODM5LDEuMTc3LDAuODM5YzEuMjc0LDAsMS44MTktMC40OSwxLjgxOS0xLjAyNCYjMTA7JiM5OyYjOTsmIzk7YzAtMC41MDEtMC4yNjEtMC42OTctMC44NS0wLjY5N2gtMS4xNTVDMTEzLjU4MSw1NS45NDYsMTEzLjQzOSw1NS45MzUsMTEzLjMwOCw1NS45MDJ6IE0xMTQuMjM0LDUxLjQ3OSYjMTA7JiM5OyYjOTsmIzk7Yy0wLjU5OSwwLTEuMTMzLDAuMjgzLTEuMTMzLDEuMDM1YzAsMC43NTEsMC41MzQsMS4wMzUsMS4xMTEsMS4wMzVjMC41OTksMCwxLjEzMy0wLjI4NCwxLjEzMy0xLjAzNSYjMTA7JiM5OyYjOTsmIzk7QzExNS4zNDUsNTEuNzYyLDExNC44MTIsNTEuNDc5LDExNC4yMzQsNTEuNDc5eiIvPiYjeGE7CQk8cGF0aCBkPSJNMTE4LjMzLDQ5LjYxNmMtMC4zNDksMC0wLjYyMS0wLjI0LTAuNjIxLTAuNjIxczAuMjcyLTAuNjMyLDAuNjIxLTAuNjMyczAuNjMyLDAuMjUsMC42MzIsMC42MzImIzEwOyYjOTsmIzk7JiM5O1MxMTguNjc5LDQ5LjYxNiwxMTguMzMsNDkuNjE2eiBNMTE4Ljc2Niw1Ni4xMDloLTAuODgyVjUwLjg4aDAuODgyVjU2LjEwOXoiLz4mI3hhOwkJPHBhdGggZD0iTTEyMi45NzEsNTEuOTY5Yy0wLjE4Ni0wLjE1Mi0wLjU3OC0wLjQ1OC0xLjE1NS0wLjQ1OGMtMC41NjYsMC0wLjgzOSwwLjI0LTAuODM5LDAuNTQ1YzAsMC40MTQsMC4yNCwwLjU5OSwwLjc5NSwwLjg4MiYjMTA7JiM5OyYjOTsmIzk7bDAuMzkyLDAuMTk2YzAuODE3LDAuNDE0LDEuMjY0LDAuODYsMS4yNjQsMS42MjNjMCwwLjc5NS0wLjU4OCwxLjQ4Mi0xLjg2MywxLjQ4MmMtMC44NzIsMC0xLjMyOS0wLjMzOC0xLjU2OS0wLjU1NmwwLjMyNy0wLjc3MyYjMTA7JiM5OyYjOTsmIzk7YzAuMjI5LDAuMjI5LDAuNjEsMC41NDQsMS4yNDIsMC41NDRjMC42NjUsMCwxLjAwMi0wLjI1LDEuMDAyLTAuNTg4YzAtMC41MDEtMC4zMjctMC42ODYtMC45MTUtMS4wMDJsLTAuMzgxLTAuMjA3JiMxMDsmIzk7JiM5OyYjOTtjLTAuNzUyLTAuNDAzLTEuMTIyLTAuODM5LTEuMTIyLTEuNTU4YzAtMC43NzMsMC42OTctMS4zNTEsMS42ODgtMS4zNTFjMC44MzksMCwxLjI0MiwwLjM0OSwxLjQyNywwLjUwMUwxMjIuOTcxLDUxLjk2OXoiLz4mI3hhOwkJPHBhdGggZD0iTTEyNy4xNTQsNTEuNjMyaC0xLjM1MXYyLjcwMmMwLDAuODE3LDAuMjA3LDEuMTIyLDAuNzg0LDEuMTIyYzAuMjg0LDAsMC41MDEtMC4wOTgsMC42MS0wLjE1MmwwLjA4NywwLjcwOCYjMTA7JiM5OyYjOTsmIzk7Yy0wLjA4NywwLjA1NS0wLjM4MSwwLjIyOS0wLjkzNywwLjIyOWMtMS4wMjQsMC0xLjQyNy0wLjU4OC0xLjQyNy0xLjc4N3YtMi44MjJoLTAuNzE5di0wLjYyMWwwLjcxOS0wLjEzMWwwLjA5OC0xLjQ2aDAuNzg0djEuNDYmIzEwOyYjOTsmIzk7JiM5O2gxLjQ2TDEyNy4xNTQsNTEuNjMyeiIvPiYjeGE7CQk8cGF0aCBkPSJNMTMyLjAxMyw1My42OGgtMy4wNGMwLjA2NSwxLjIwOSwwLjY0MywxLjc3NiwxLjU5MSwxLjc3NmMwLjgyOCwwLDEuMjMxLTAuMzU5LDEuMzczLTAuNDlsMC4yNjEsMC42MzImIzEwOyYjOTsmIzk7JiM5O2MtMC4xNzQsMC4xNzQtMC42MjEsMC42NDMtMS43MzIsMC42NDNjLTEuNDgyLDAtMi4zNzUtMC44NjEtMi4zNzUtMi44MTFjMC0xLjgzLDEuMDc5LTIuNjgsMi4yNjYtMi42OCYjMTA7JiM5OyYjOTsmIzk7YzEuMDc5LDAsMS43NTQsMC43MywxLjc1NCwyLjA0OEMxMzIuMTExLDUzLjE0NiwxMzIuMDY3LDUzLjQyOSwxMzIuMDEzLDUzLjY4eiBNMTI4Ljk3Myw1Mi45OTRoMi4yODgmIzEwOyYjOTsmIzk7JiM5O2MwLjAyMS0wLjEzMSwwLjAyMS0wLjI0LDAuMDIxLTAuMzQ5YzAtMC43My0wLjM4MS0xLjE0NC0xLjAwMi0xLjE0NEMxMjkuNTUsNTEuNTAxLDEyOS4wMzksNTIuMDM1LDEyOC45NzMsNTIuOTk0eiIvPiYjeGE7CQk8cGF0aCBkPSJNMTM2LjA3Niw1MS42NjVjLTAuMDY1LTAuMDMzLTAuMTk2LTAuMDk4LTAuNDc5LTAuMDk4Yy0wLjY5NywwLTEuMDU3LDAuNDI1LTEuMjA5LDAuNzQxdjMuODAyaC0wLjg4MlY1MC44OGgwLjgxN3YwLjc3MyYjMTA7JiM5OyYjOTsmIzk7aDAuMDIxYzAuMTY0LTAuMzgxLDAuNTEyLTAuODcyLDEuMzI5LTAuODcyYzAuMjE4LDAsMC4zNDksMC4wMzMsMC40NzksMC4wNzZMMTM2LjA3Niw1MS42NjV6Ii8+JiN4YTsJPC9nPiYjeGE7CTxnPiYjeGE7CQk8cGF0aCBkPSJNMzkuODAxLDQwLjM5NWgtMy4zODJWMjkuNTY4aC0wLjA1MmwtNC4zNTIsMTAuODI3aC0yLjQ2NGwtNC4zNTItMTAuODI3aC0wLjA1MnYxMC44MjdoLTMuMzgyVjIyLjMwNyYjMTA7JiM5OyYjOTsmIzk7aDMuODU0bDUuMjY5LDEzLjE4NmgwLjA1M2w1LjMyMS0xMy4xODZoMy41MzlWNDAuMzk1eiIgZmlsbD0iIzZCOThDOCIvPiYjeGE7CQk8cGF0aCBkPSJNNDguNzEsMzMuMDAyaDAuNTI0di0wLjQ0NmMwLTEuNjUxLTAuNzA4LTIuNDktMi4xNDktMi40OWMtMS41NzMsMC0yLjU2OSwwLjgxMy0zLjAxNSwxLjIzMmwtMS4wMjItMi4wOTcmIzEwOyYjOTsmIzk7JiM5O2MwLjYwMy0wLjYyOSwyLjA5Ny0xLjg4Nyw0LjcxOS0xLjg4N2MyLjk4OCwwLDQuNjY2LDEuNjc4LDQuNjY2LDUuMzQ4djQuMjk5YzAsMS40NjgsMC4xMDUsMi42MjIsMC4yMSwzLjQzNGgtMy4wNDEmIzEwOyYjOTsmIzk7JiM5O2MtMC4wMjYtMC4zNjctMC4wNzktMC45MTctMC4wNzktMS40MTZINDkuNDdjLTAuNDQ2LDAuNzg3LTEuMjMyLDEuNzMtMy4wNDEsMS43M2MtMi4wOTcsMC0zLjU2NS0xLjUyMS0zLjU2NS0zLjgyNyYjMTA7JiM5OyYjOTsmIzk7QzQyLjg2NCwzNC4yMDgsNDUuNDMzLDMzLjAwMiw0OC43MSwzMy4wMDJ6IE00OS4yMzQsMzcuMzU0di0yLjM1OWwtMC42NTUsMC4wMjZjLTEuNzA0LDAuMDc5LTIuNTk1LDAuNTI0LTIuNTk1LDEuNTQ3JiMxMDsmIzk7JiM5OyYjOTtjMCwwLjkxNywwLjYwMywxLjU3MywxLjM5LDEuNTczQzQ4LjMxNiwzOC4xNDEsNDguODY3LDM3Ljc0OCw0OS4yMzQsMzcuMzU0eiIgZmlsbD0iIzZCOThDOCIvPiYjeGE7CQk8cGF0aCBkPSJNNjQuMzMyLDI2LjE4N2MtMC40MTktMC4zNDEtMS40OTUtMS4yNTgtMy4yMjUtMS4yNThjLTEuNjc4LDAtMi40MzgsMC43MzQtMi40MzgsMS42MjUmIzEwOyYjOTsmIzk7JiM5O2MwLDEuMTI3LDAuNTI0LDEuNjc4LDEuOTkyLDIuNTY5bDEuOTY2LDEuMjA2YzIuNDY0LDEuNTIxLDMuNTM5LDIuOTYyLDMuNTM5LDUuMjY5YzAsMi41MTctMS43ODMsNS4xMTItNi4xNjEsNS4xMTImIzEwOyYjOTsmIzk7JiM5O2MtMi45MSwwLTQuNDMtMS4yNTgtNS4wMzMtMS43NTZsMS4xNTMtMi45MzZjMC42MDMsMC42MDMsMS45NCwxLjcwNCwzLjgyOCwxLjcwNGMxLjg2MSwwLDIuNzI2LTAuNzg3LDIuNzI2LTEuNjc4JiMxMDsmIzk7JiM5OyYjOTtjMC0xLjIwNi0wLjUyNC0xLjgzNS0xLjkxNC0yLjc1Mkw1OC44LDMxLjk4Yy0yLjQ5MS0xLjY1MS0zLjU2NS0yLjkzNi0zLjU2NS01LjM0OGMwLTIuNTY5LDIuMTQ5LTQuNjQsNS43NjctNC42NCYjMTA7JiM5OyYjOTsmIzk7YzIuNTQzLDAsMy44NTQsMC45OTcsNC40MywxLjQxNkw2NC4zMzIsMjYuMTg3eiIgZmlsbD0iIzZCOThDOCIvPiYjeGE7CQk8cGF0aCBkPSJNNzUuNDk3LDMwLjI1aC0yLjkzNnY1LjE2NGMwLDEuODYxLDAuNDk4LDIuNDY0LDEuNzA0LDIuNDY0YzAuNjAzLDAsMS4xMjctMC4xNTcsMS4zMzctMC4yMzZsMC4yMzYsMi40MzgmIzEwOyYjOTsmIzk7JiM5O2MtMC4yNjIsMC4xMzEtMC45OTYsMC41NzctMi40MzgsMC41NzdjLTIuODU3LDAtNC4xNDItMS4zMTEtNC4xNDItNC45MjhWMzAuMjVoLTEuNzN2LTIuMjU0bDEuNzMtMC4zMTRsMC4zNjctMy41NjVoMi45MzZ2My41MTMmIzEwOyYjOTsmIzk7JiM5O2gzLjIyNEw3NS40OTcsMzAuMjV6IiBmaWxsPSIjNkI5OEM4Ii8+JiN4YTsJCTxwYXRoIGQ9Ik04Ny42ODUsNDAuMzk1bC0zLjg1NC02LjYwNmMtMC4zNDEsMC4wMjYtMC43MzQsMC4wMjYtMS4xMDEsMC4wMjZoLTAuNjU1djYuNThoLTMuNTEzVjIyLjMwN2g0LjI5OSYjMTA7JiM5OyYjOTsmIzk7YzUuMDg1LDAsNy40NDUsMS45OTIsNy40NDUsNS42MzZjMCwyLjIyOS0xLjA0OSw0LjAxMS0zLjEyLDUuMDA3bDQuNjQsNy40NDVIODcuNjg1eiBNODIuODYxLDI1LjE5aC0wLjc4N3Y1Ljg0NmgwLjY1NSYjMTA7JiM5OyYjOTsmIzk7YzIuNjQ4LDAsMy45MDYtMS4xMjcsMy45MDYtMy4wNjdDODYuNjM2LDI2LjEwOCw4NS40MywyNS4xOSw4Mi44NjEsMjUuMTl6IiBmaWxsPSIjNkI5OEM4Ii8+JiN4YTsJPC9nPiYjeGE7CTxnIG9wYWNpdHk9IjAuMiI+JiN4YTsJCTxnPiYjeGE7CQkJPGRlZnM+JiN4YTsJCQkJPHJlY3QgaGVpZ2h0PSI2LjY2NiIgd2lkdGg9IjYuNjY1IiB5PSIxNC40MzEiIHg9IjEzMC40MTciIGlkPSJTVkdJRF8xXyIvPiYjeGE7CQkJPC9kZWZzPiYjeGE7CQkJPGNsaXBQYXRoIGlkPSJTVkdJRF8yXyI+JiN4YTsJCQkJPHVzZSBvdmVyZmxvdz0idmlzaWJsZSIgeGxpbms6aHJlZj0iI1NWR0lEXzFfIi8+JiN4YTsJCQk8L2NsaXBQYXRoPiYjeGE7CQkJPHJlY3QgaGVpZ2h0PSI2LjY2NiIgd2lkdGg9IjYuNjY2IiBmaWxsPSIjNTc4RUMyIiBjbGlwLXBhdGg9InVybCgjU1ZHSURfMl8pIiB5PSIxNC40MzEiIHg9IjEzMC40MTciLz4mI3hhOwkJPC9nPiYjeGE7CTwvZz4mI3hhOwk8cmVjdCBoZWlnaHQ9IjYuNjY3IiB3aWR0aD0iNi42NjYiIGZpbGw9IiM1NzhFQzIiIHk9IjcuNTg0IiB4PSIxMjMuMjc5Ii8+JiN4YTsJPHJlY3QgaGVpZ2h0PSI2LjY2NyIgd2lkdGg9IjYuNjY2IiBmaWxsPSIjNTc4RUMyIiB5PSIyMS4wOTciIHg9IjEzNy4wODMiLz4mI3hhOwk8ZyBvcGFjaXR5PSIwLjYiPiYjeGE7CQk8Zz4mI3hhOwkJCTxkZWZzPiYjeGE7CQkJCTxyZWN0IGhlaWdodD0iNi42NjYiIHdpZHRoPSI2LjY2OCIgeT0iMjcuNzY1IiB4PSIxMTcuNzk2IiBpZD0iU1ZHSURfM18iLz4mI3hhOwkJCTwvZGVmcz4mI3hhOwkJCTxjbGlwUGF0aCBpZD0iU1ZHSURfNF8iPiYjeGE7CQkJCTx1c2Ugb3ZlcmZsb3c9InZpc2libGUiIHhsaW5rOmhyZWY9IiNTVkdJRF8zXyIvPiYjeGE7CQkJPC9jbGlwUGF0aD4mI3hhOwkJCTxyZWN0IGhlaWdodD0iNi42NjYiIHdpZHRoPSI2LjY2OCIgZmlsbD0iIzhFQURENSIgY2xpcC1wYXRoPSJ1cmwoI1NWR0lEXzRfKSIgeT0iMjcuNzY1IiB4PSIxMTcuNzk2Ii8+JiN4YTsJCTwvZz4mI3hhOwk8L2c+JiN4YTsJPHJlY3QgaGVpZ2h0PSI2LjY2NiIgd2lkdGg9IjYuNjY2IiBmaWxsPSIjNTc4RUMyIiB5PSIyNy43NjUiIHg9IjEyNC40NjQiLz4mI3hhOwk8ZyBvcGFjaXR5PSIwLjgiPiYjeGE7CQk8Zz4mI3hhOwkJCTxkZWZzPiYjeGE7CQkJCTxyZWN0IGhlaWdodD0iNi42NjciIHdpZHRoPSI2LjY2NiIgeT0iMzQuNDciIHg9IjEwMC42NjciIGlkPSJTVkdJRF81XyIvPiYjeGE7CQkJPC9kZWZzPiYjeGE7CQkJPGNsaXBQYXRoIGlkPSJTVkdJRF82XyI+JiN4YTsJCQkJPHVzZSBvdmVyZmxvdz0idmlzaWJsZSIgeGxpbms6aHJlZj0iI1NWR0lEXzVfIi8+JiN4YTsJCQk8L2NsaXBQYXRoPiYjeGE7CQkJPHJlY3QgaGVpZ2h0PSI2LjY2NyIgd2lkdGg9IjYuNjY2IiBmaWxsPSIjNTc4RUMyIiBjbGlwLXBhdGg9InVybCgjU1ZHSURfNl8pIiB5PSIzNC40NyIgeD0iMTAwLjY2NyIvPiYjeGE7CQk8L2c+JiN4YTsJPC9nPiYjeGE7PC9nPiYjeGE7PC9zdmc+;fontFamily=Verdana;fontSize=14;" parent="1" vertex="1">
          <mxGeometry x="122.5" y="187.59000000000003" width="155" height="64.82" as="geometry" />
        </mxCell>
        <mxCell id="Dai6Ap41a36IRt_M9ltU-24" value="" style="shape=image;verticalLabelPosition=bottom;labelBackgroundColor=default;verticalAlign=top;aspect=fixed;imageAspect=0;image=data:image/png,iVBORw0KGgoAAAANSUhEUgAAAkQAAABXCAMAAADS46p0AAAAflBMVEX///8AAAD8/Pzv7+/FxcUiIiJTU1MbGxv39/fy8vLi4uJycnImJibCwsJgYGBdXV2zs7MvLy8NDQ1CQkKhoaFLS0tpaWm7u7uJiYnq6urd3d0TExPMzMw4ODjg4ODT09OWlpasrKyHh4d8fHyamppHR0cyMjJubm49PT14eHj9bhtCAAATWUlEQVR4nO2daZequhKGFRxAbRUFGRUQ2m7//x+8ZIIMlYDDvn16Ne+Hs85GAiF5klRSlfRkMmrUqFGjRo0aNWrUqFGvyvookfY/nY+flhvXC2+epvNbsK32F9v66Qz9JtmLKdLhp/Pxs7JLUgytvrOfztJvkr3FhTb/6Xz8qJJgKuvPd82PaIRoMvlQEBohekgjRJN8OUL0mt4GkVVfoyi6lr/OIo2/AYYEiBwffRrT6sdy+p/V2yByUvyg3a+DqIYYEiByz/wvHz+W0/+s3gfRBj9o++sgOvRDdOR+OIwQKfrzEO1BhkaIHtGfh+g6QvSy/jpE1mmE6GX9dYgu4tzsFDbX4vK6CLl7Roh69Nchym88Q5VDL9sud88IUY/+PEQbDhAvAe8ZIerRX4coS/nBzAHvGSHq0V+HaMZDVMH3jBD16LdAZK+S3Pf9MElWbv/dE3eVfPjRaVv5+2RlG27MeiByGsUCRKHlMD37Mb9b8SpeiZ/+KyCywmLRVvbmVOxj8/1ZfeKcqumiCCHwchSNd+UXrLezVhS85LRer78ED+1izXQ1ZsPJ/KJRCdtZJrkfdZPQ/3gEUjesi2tR95WMqKwmORxeZ0mxDc6Njov1vivTPojij2h9WjQ6raOZpklbjSYuhcjB/2QC77f3xRd9Zj1gcLD2SrjPeRtqP9wqA8Utf/iO1LwX8l3Tw5JpQ/MFRYm00tjhjeLZnTPYb0Vm6AzLqIi6EDh7tp63CTdVbupF2zT5nfviXagDaVVEUU2r3spLLk0wCKRV0WUN1/WMPswAkZvvd3KxFbnaPFb6Yl6qz5RjCKfn2txW8zP46EMNutPtUpeXq3y/ChH39CEQnTUZjyOF+l2p+zwL3Vuzf/lyie/2vbVbymmCAr4RfcyclEJyT8U0XtXXhzmRWhFbUkxaiGxhSGiVnnL5zthQzNKdxRZydy7vBozKOZAC6ztSgc7VGMUuM754rwmi9HmI3Boqt+n8A6bBQo2K5mx2BBKeZ/rCQV/8CaUBO/hZkzEPQeQUQDWkWs6xwo2apBHu4TUQxV8pmAbpLnWxQyFKQIKwDoXOWoYDNag2UvlaJi4anYSc/xuI2ko9fhW179fXtuf9Att6B1Gb+2Bd1HWxbhMW+jHN8VmayG8sPL992xW4mUEUf+FbDruiSdPkkKGrmZwiuRoXY2MixlqI5DFHUCAODAMhsqAm02oLF5TGx84UCTfb2i9lWvDd6D+BiDXYKo9JP2nZSUmvBUonPuEhivBNSz8hKZ048WlLDrQT0oiWQ04BteKcFkKlpqEQubhy5+XFbtMQqkDyyC1rqXi4/9/FOoiMhTcNhBo32EQef5+5mzhBFMWeMU0qpHHXxpuxzhz//wAiqyQ/SAPnJKNmSygn6CCy8S076Y6QtOY5bLBYpPIrcVh37/iqOk+mEKER/yaNXTHJYKWZCXVW1/epJHlp5mnU0DiuXBgih9bePNg2/eQ+D0t/veOmDfzL4hMWGas2J15CB+nSxN5ifS39PCnL4mvR2Q8n4AM0LnYmocQdY+/Z5rzrDf4BRCW+fr8oH+LUpPGqO5EoRLitH3zFynNJLgNoFkHGv1Qh0yK5LuTrCKLbChkIOxV/0oHBk+W2dc59Ph9ZRa4uYo1hjfO3Lvm5qZNFLUZKBicTOsUHc0GEa/m+5yd4NstII9Wws01VOJ1+CkUemW9mWrSsvh+iEl+uweacpGASBhHKzDc03E32uJ0dgV/w68BEIc6IvNkAQXT2l5rFPGx9gvsPmd01XUsdopUQc+qugWiW3vxYaRcxs2s2StYHLDaG03MYy7+zjDSNRHmdWM23z93njZ/5CE2wx3rqdIWfLuopiBJ8VTfJWeHvXMijNoaoRLn/1NjPuZht6XXwvoEPNC6cpTpHEC3P2jrCJMgD8aTzUS9r9Ten4spDgcjVbAFlJX+VMzIAIhdsaZ3VVsi/8AsgOzITs8OCQSe4SxN1gXGxq+5bwJpn7Bm7LnqTEaKNCJGzBT+i1QpnMZKuYohQFx+ogyAVbh+pUiH4dbqtTQXwrhkpI93yVoJMmIVij7dhe2DrsLjp82C3h0V6rmkqm3ovuD1cas3IrdTmFn287n2rGcmDgKRsPc39PLaRDy2vpF/acrrMZrNM6I6CsHV70NfF6P9DPuboUGfsnkwscNzra0xTLNKlSFVo0Y+fwy0Mq+azzVQakbXwyqCYhEIEWPdEuCwUq2hGP1ymn6mbzjzgO6Mp5Je94jtj8zupHDNufWsnJrgfpnf+Qi5ykvKdfyxjxLfeGf/DDp5KO4IDVrf2F6Mq8ozrvsTQFEuIQWRa6sOr2lLlu6iblgcsTqHK2ExrXRGtkNmmjFm0L9fuBXPa8eIBiKiZdZKf9YoDltIsDcg8RIGU4qPijQEpUlpehPSFX6cp/xwBItgqGRYKUgNfIClGMCzFpkIhWhi9rbiN3NRLgJXSZhrVbSBARiDSdkSEFzkjeWpuO001MUviAYgSMkXzpMsvQZSAYPIQKXUnOHdzcU1eGRlKkSKuQN4GkYVM2aDn63H3II54BKKD+RQSYkQIn7WQWoMi3HKEzGKIDJ0XaQfS79RyNKxmt8blAxA5pNuQJ4MvQWTTahKvZgIaRd/XtwJGBvEGDta3QbTXvFkUatYHoa0TiLY9YR+YPsEqwUViShIrd2CItKvSE9qWxWKO6Whrgpy5LB6JJ6IVIhmIL0Hk3CGIEtFt/FnobE9HcLuCFSK4No/dUPg2iJDhdeuNHYqUCiEQ9dGH1wd4ky3sq9nJBO1jOfJlgSEyDbi2+lBqbG6Mb1r/JyBiVot0VY5xWC72LvR8cVESHPQFA5ob4N8FETZ3vnq/E7f1NX+FQNSbEDHKL86hf3+az5bAwPJTBQTRwWASkXIUFw3IsqVxNGsLVwuRe8nZhJa5FEuwrh6AyE7YM3PqbNRABDlUT3u1uYf8DbKxRr9jy9/TNfx3QYTDbIveT49R5yrMjzBEcJ554ZbL2XKn3pqdZCgJ33kjiFJTFKA9VyCKwMqWlGwMENl+tTsyw2TpLbZVPaOrocoy11CIYv++ODO/6ua8OF39rAVTuhd27Z7vckEIiz3ytJFKWFrsrIt3QYSf039Gn4V6EI/vHshiY2/CXKxK7DoozEliuZawA9Y04rqBUq/UJDJHrGkcsI3sDyhEqpmBbJ+HKN7DYYqLHQjRROeX9/bCio4w7GmamtBbBa2p8C6ISvTbgC0E6D5hXRFDZG7oOA9TgZocNcMeQ8pG9cTb0W1QmvYlKkSbIRBNKg1EM0OMINYTEIXgeVKc5AQrbQJhn7Pgv9d4oC58DMzi7RBFUPYBlfIjMEQDgvnR8zsi8JpGt2UA1OkdEJEO49YT6k3sDhkiS3EWKHoYImehjWxkUtJ86JNww5bQZWoaTcxDtGn7jHdBVIHZV4VWAgTj9hGIuhWmDAzBBcSv6z8PUdADEbEnJIhc3m958LzPs+d5Un0+CpHQq6TkmXLcrppqBo9/SN2EWghd0/W8fKx2+m6IrB2cfUUvQdQVrjA4m7TgHvH/hcjtvAi360eW56skz/PZxz7i4HoQIo7L75p7ZnnnqghIlwjTKkHtco/gqh/SEx1/bDh7CaJubMLrsMtNr5b8DO55iMwuQXg4a6fWi0RauHOcy/X7KYgYC+lW2uJkOU5enbUQNWaE1jBi9rFgE2mmSMl/xyZKeT/UCxDV8apPF3md6FGIaP/9uGFNPVnTObxD8KkpPut/b3AdhwaIJk6pC5Oly6/Cz5rpshC09vVvZmcDDpZF9815ZjBE/Qceu9znTuiJOGZvr6pnIAqGQERHLgEiNrHWtGla4Q9B5NCOKNC0ub0JoiaXiQ9uP6NeamENSBPqIKwlFe3ld0GEF217XWcTB4XWCxupMER33f2t8DpR92r81zRMbjAwj09AVIGVLSnxFIhycknr/H8Gooz0XnNdv90DEZJdbFUjm+RR9GmA74iFIa8zSt66Yt1fq3jFmjd2CUT9XidfqhHU9rdDjrbg9AxEtGLWmhT0wVMFIppOs/L7HET0mdqF+gEQNUr28soDGbtc4JokARbOCfVW39mu9wgGvAZf8FeI76w3Ifrwb655oM53M8CU4vUMRLnKhyrAAeuDkHR6AiIWRq0dWstBEKGNduImZRLwKO4WAgNNhaUkrrLf5sXHkxHzjucJHR2EUiAQFT3pMKN8dyC5QQbpGYjioIeGSef/5iCi8UL6CoUhM0JEa3mjbXCwAxYdeKFe4idr9MSIkkdB9E0RiUH5XEDge+OJen1gqAV8A/FEyiYQSdiZKhjSOL99rxP1DETMKFobPBHM3OQhAmN71DQPQUSsmUAHEVsgB96l7ufL+Honl6TIxrtMUSkulHJdwcMQaa3nufRkSKVacDQ81my5kvBf4atwz/fY3xl5CiI2rdZ7/3M253kAIk0HZ4YoNUMUb+B3Il68THok/xddPuk1yVbaCdtvLCnGmh8WBkEkLGZ21rN4N36J1pAkOUcPOorVSCE6G41kPHiJ0UoJahemraKqnoJoQkv7W5dBp10NBiDSVTgrdhgimBMWeqh7ZjmFISId2Elcr1rxJzrRa8qhEmXXJ8ykVSZh+jYIIsEXvSRdkZ3VYkw7OTfAeGgX7sML8Rrb7WGc2WGnijiyY6vDED4P6DmIWAvUTYrubcnwhjU8XLVi/YAMEbnuwRDRktJ8gcOwkK6zyOjDzucw4uNDrtBFrM9qdsFVvZV9lUKg/BCIHDHC8nCqqq9tsOR2ZGNhq8gUIYtnwnKgKYYI9SqGRSayE1HqkPEoctPueET7PKW6eA4iizWhAkrC9/I8RCUtUdiUagcO6WUWLWm4Huir4OWGbsOPeF1wVQd1kqziVSKGk7St04aDnwB9Cv3yEIh0IQ0SRKRfV7eQMiXgjh0MEQ5V04a0ZQgXtfbxZEEf4W99yceFPAdR5+wFpg3kHIilGtnINlmAXVG3bUKGiHZr8FYouhy1BEPtuyhY4bKjuF69o+RG49r9rDfOhEqsqyEQyfvWmCSI6FRX95AE572QL5O9+GXzn1SzD4FEQqkDl4M35ir72anwATNfAtFPQtTVj3ygAzuRpgAiG2mfAi0vc1Nl+WUlrWgwl2zBGNgH7nSDqgiRpup48eN0zylpTJLDaRBEmsALGSK2xRTsUsicUt1lTU8FwQXrQ0CEePIDLR4Q18IWLHBy0qW4v/9ZiDoH97LkkycFqwUAotaLsBe7QysjZ2yBDljm2eBPI8u75sP8n4dcGgNIwCxNy//C3MAGHYS22x9HN1WdloMgSm7gsxSIJiW+vlH/hqkT4e4EOPKMQkSmHidlicCJcNHAyzSkoj5VY96qMXlL8XFPQ7TqbIVjFZJCsksWerFzwBjr1kY58Z1oSM5xPBZkvi6/zGa8bqIwsSarrFwvuSko83uld66hOiV5fUB7TP55F/MpaUii33JANOa0kMtnEEQTOKZJhWiyJ63hLJ7WbJMzhgBGupPSyOCdVvw541bsE9NC57qiY7gYsWOxE3TXErJPQzRJBJdA+v393QXWnFz4uL24m9N6p7AxZ+N9wS7dYjgURFw2PpB7uGUT7uQ8r9o3j7zsoyPtgM70mDrJJqp6zBxl/7rxlFD09WrwxDCIMvBxAERtJOa5CBP8NDsPCzpBKCAjuD2z0aGmwrqcXfB5Jtm+otapfiE8o0bitswIHfEsrGgFK0d3Pw+RtOOKFzrgBz6zUdN/N/pMNL6zCXRaKL/2lsuxsK12scbtMTOeoLdQ2/WHPph2CscyDYMI3nYCQdR1yNNzsG0UsMaTwmsm3OmxJb1ziVIG323wy8zgcmhfN//eNW/bfbIZ7UENBnsBoomjMTlr1DA0B39eNNXX1LceoosyzRYWcGNNcPnV0frO3FLfGYFHqtr6YNppBZXfQIhsqDxAiJpHQvd6upAh/hzr1R1IeO3bpg++znQEsVYGiNDRnGr97YhRqj0MvQQ6owAvcmghmsRygxXHcqsGOqMt7h50DtjmlxN4ovZR9635GuRu8wWvAg6ECDqa1tNFFrp74Mgt3YN5iJqylTBaas8f6BQrf6Qghf+gCPrWpREiNDjqz/7PpMzt2Goma2JqmsSXMPqkf32EQgS9zBLioT3lDy7ktRSguNubtlETZb6yBW5RGjydWaGwetbWhbin0eBLt/ZiVd18w9p0YxFvPTyLPSw331VicIyJECGreOfNUZtPN+fTwL8R46yiYINfly69Y6R7nR02Mj3RmoWh6U/MWG74dd4sl+lyeQtqbgrg2lhQGjevjihvh/n8tijaY0DjEAt+mZNVR28z33jHL7AEnFkVNNlovnZ+2xU2uyXZo0fqehfHzqoA5X65nHvoJOWesnWT6Hib4x4snXtBJG834GTZnMyRgk4SBU39zpuPW0R5f1RhY+M26vvLKxJEWKu8SWj6ozKQVuht+WN+/WdkJats9dhrrNUsnD2YpplZGAvAvSRhtnrojyohOZdGw1OtsvCJquiTfVkpB+C+JAiiUaMe0gjRqJc1QjTqZY0QjXpZI0SjXtYI0aiXNUI06mWNEI16WSNEo17WCNGolzVCNOplNRAdRohGjRo1atSoUaNGjRo16g36H974JvcH2ryrAAAAAElFTkSuQmCC;fontFamily=Verdana;fontSize=14;" parent="1" vertex="1">
          <mxGeometry x="122.5" y="370" width="140" height="21" as="geometry" />
        </mxCell>
        <mxCell id="Dai6Ap41a36IRt_M9ltU-25" value="" style="shape=image;verticalLabelPosition=bottom;labelBackgroundColor=default;verticalAlign=top;aspect=fixed;imageAspect=0;image=data:image/png,iVBORw0KGgoAAAANSUhEUgAABLAAAAMgCAYAAAAz4JsCAAAAAXNSR0IArs4c6QAAIABJREFUeF7s3QmUFNXd//8vi/Aw7GRkkVEUF4LggmBAVCAuCJpHUSJBopAfEg2iomyiiIC77EuEqKPnURNjjCIPhygiErcgi7iBIhIQWQMSZBMyrP/zvc+/59Q0Vd1V3VXTVdXvOseTHKb69q3XvV1V/el7b1U4evToUWFDAAEEEEAAAQQQQAABBBBAAAEEEEAgpAIVCLBC2jJUCwEEEEAAAQQQQAABBBBAAAEEEEDACBBg0REQQAABBBBAAAEEEEAAAQQQQAABBEItQIAV6uahcggggAACCCCAAAIIIIAAAggggAACBFj0AQQQQAABBBBAAAEEEEAAAQQQQACBUAsQYIW6eagcAggggAACCCCAAAIIIIAAAggggAABFn0AAQQQQAABBBBAAAEEEEAAAQQQQCDUAgRYoW4eKocAAggggAACCCCAAAIIIIAAAgggQIBFH0AAAQQQQAABBBBAAAEEEEAAAQQQCLUAAVaom4fKIYAAAggggAACCCCAAAIIIIAAAggQYNEHEEAAAQQQQAABBBBAAAEEEEAAAQRCLUCAFermoXIIIIAAAggggAACCCCAAAIIIIAAAgRY9AEEEEAAAQQQQAABBBBAAAEEEEAAgVALEGCFunmoHAIIIIAAAggggAACCCCAAAIIIIAAARZ9AAEEEEAAAQQQQAABBBBAAAEEEEAg1AIEWKFuHiqHAAIIIIAAAggggAACCCCAAAIIIECARR9AAAEEEEAAAQQQQAABBBBAAAEEEAi1AAFWqJuHyiGAAAIIIIAAAggggAACCCCAAAIIEGDRBxBAAAEEEEAAAQQQQAABBBBAAAEEQi1AgBXq5qFyCCCAAAIIIIAAAggggAACCCCAAAIEWPQBBBBAAAEEEEAAAQQQQAABBBBAAIFQCxBghbp5qBwCCCCAAAIIIIAAAggggAACCCCAAAEWfeAYgZKSEhk6dKgsXLjQVufqq6+WkSNHSoUKFWKlN3r0aJkzZ06ZY5o4caJ06NAhVsfJwZSPwPvvvy+DBg1y/WaVKlWS448/XurWrSsXXXSRdO/eXQoLCx1f/8ILL8jUqVPL/P3OO++U3r17u37PXO64detW+dOf/iS/+c1vpF69ermsSijfO9P2LW9Xt/V0u195N0ZUrndh9Svv9grr+0Wlfbxel+y8a9WqJU8++aQ0b948rM3he72Cat99+/aZ+87//d//lXXr1omej3TTa+Lpp58uV111lVx22WVSpUoV34/JzwLL+7rjZ93DUJbd949EvfTecNy4cWm/i6xcuVIGDBggu3fvtj2k888/XyZMmCAFBQWBHXJQn5PAKkzBkRUgwIps0wVX8TVr1kj//v1lx44dtm/SuHFjmTFjhpxwwgnBVSIHJRNg5QA9xm+Z7ReFqlWryq233iq9evWSypUrHyMV1RsFvUH/y1/+IsXFxeYmXf83VVAX4y6S8tC8tm+uXN3W0+1+5d3eUbnehdWvvNsrrO8XlfbJ9rqk/gRY/9cLs/3BaMuWLTJw4EBZu3atY7du27atjB8/XqpVqxbKrp+r604oMbKoVKoAS4vt2bOnDBkyJOU7zJw5Ux599FHHfQiwsmggXho6AQKs0DVJ7iv09NNPi/7ntOmvAQ899JB07tw595X1sQYEWD5iUpT48UVBP2vXXnutuXFJDrGi8oUp0RWOHj0qH3/8sTzxxBPml2bdioqKCLAcPitu2zfXrm7r6Xa/8j51ROV6F1a/8m6vsL5fVNrHj+sSAVb2AZaet/U+evbs2Sm7tJvgIhefiVxfd3JxzEG+Z7oAq2XLlmbEvX727LbDhw/LiBEjZP78+QRYQTYUZYdGgAArNE0Rjors3bvX/Kr0xRdfpKyQDml+5JFHRL9gx2UjwIpLS4bjOPz4oqBHoiOxHnvssWOGj0flC1OiNbZv3y79+vWTjRs3ljYQAZZzX3Xbvrl2dVtPt/uV56c3Ste7MPqVZ1uF/b2i0j5+XJcIsLIPsHSal95rr1ixImXXvu++++S6664LXffP9XUndCBZVihdgJXuM7dt2zYzYn/Dhg0EWFm2BS+PhgABVjTaqdxq+dlnn8kdd9wh+/fvL33Pn//857J8+XLRC1Zi0yk/Oo3wlFNOKbe6Bf1GBFhBC+dX+XZfFH7xi1+I9rPkbc+ePfLPf/7T/MKmn7Xk7eyzzzZ/q1GjRumfovKFiQArs37vtn2j8kXC7fFkppXZq6J0vQujX2bqvCqXAl6uS7msZ9je2+/Pn915u3r16ubHqnbt2knFihVF7wv0B6wwrn8VletO2PqRU33SBVj6ulRh5pIlS8x01IMHD+Y0wIqKN/WMvgABVvTb0Ncj0Ln2L7/8cmmZekHVRf90seUPPvigzHsNGzZMevTo4ev757IwAqxc6sfvvTP5oqDrSYwaNeqYYeB2v775fUMddAtww+tN2G37RsXV7fF4U8pu7yhd78Lol50+r86FQCbXpVzUM2zv6ffnLyrnbad2iHr9w9a/7L5/6GLrGkglQqlUM1+mT58uzz33XOlh1a5dW3bt2lXmMMtjDaywuVKf+AoQYMW3bT0fmS7arou366K2iS0x8mPevHnHLA7Yvn1782QM/YUo1eb1wu91fz1Jv/nmm6J1/O6778qctPUk/pOf/ER0IUxdS0hHjDk9PTFVgLV582b54x//KO+++67oUF2dOnniiSeKPpFRnxanQV+67ciRI2YNIH3azOeffy7ff/+96Lx13RJPoDvnnHNMKHjWWWeZX+DsNq8+Xvd3Oo7kL3u6n67h0LVrV8dDP3DggNxzzz1lwk+1mjZtmmjfsts0xPnwww+N05dfflnantqWTZo0kV/+8pfSqVOntE9SST5uawikN1+vvPKKLFiwwAy51nbQ8tW/b9++0qJFi6yfspnpFwWdvqujIH/88ccyPMlPxEzVrmqoayFo8Kyf58Tx6S+7+tS/0047zfXxZdseXqasOI1QU4hs6xH1/qsG1kWDs3Ut7/OR2/PQp59+Knfdddcx/V/P4bp+mnUUYrpzbqq/l9f1zq/zjlu/xDH71b5WQ6fzSseOHaVPnz7m/Gz3xTbV5zrx2f773/9uzsk6ElWfzKbXRL12t2rVKu01UcvI9fnebfvkup6ZXpfSfdaS758S08P//e9/y9ixY0unyunDf2644Qa55pprytw7+tVfg/J1277pzl+60Hby04OdbK2fG7fvnyjL7f5e201nX+iP1262dJ/7VGX40R9SnYsS57KXXnqp9OmPGhi1adNGbr/9dmnatGlp9XS9L23XP/zhD+aeVF+b2Nev+0W77x/nnXee6NMdN23aZOqi3zmeeuopqV+/fhk6PV8OHjxYli5dav5dF/zXe9lFixaV2S9VgOWHt915OPm+xal/+nWddNMv2SceAgRY8WhHX45i4cKF5iRoHYJ6yy23iP737bffmnDLOo1QnyCm0whPPfXUlO/v9kLq9cKrF5VXX33VhCF6Ak+36Q3xpZdeKsOHD7ddCNHuAqJfev/1r3+Z90g83jj5ferWrSsPPPCAXHTRRY6hwPr16+X++++Xr776Kl01zd/1y9qDDz5obuCTt6A801XMLli5+OKLzZdKpyHudv3GbjqcvrdeQN9++23zxJ0ffvghZXVq1qwpgwYNMo+Ydhv06QVS21HXnNBHgDv1Ge0n3bp1M+WnC2dTVTLTLwp2N136PloffSJhus+Jton2cWsQba2nHt+NN95oPs92TzdM7OtXe/gRtPjRL6Lef5NvBLNxzcX5yM15y+mpXPplYsqUKdKoUaN0pynXfy+v651f5x03fomD97N9E2WuWrXKLBKceABDMrSeV/QR7l26dDH3DNa17lJ9kdVrol4/ncpNvI8GWWPGjHF8+rFdcFGe53u37ZPremZ6XUr3wbILQjSI1qeiJT/R+rjjjjMj+/VHUN387K9B+bppXzfnL7tynGxzFWClarf/9//+X8qHPFmPJdMAy6/+4BRg6Q/Pei5JBEPJ/nrfp9Pxrr/+evNDik7r1B8EEz84J99P6X2ZnvtS3U95/fzo/pdffrn85z//Kf0BWD83eh382c9+Vqa45Pvs008/3eyjP2BaN6cAyy9vfS83nxO7/fy6TqZz5u/xESDAik9bZnUkemLWqUtz584tLcc6UsZuJE3yFyqnCrg9oaX7Yt67d+8yb/Haa6+ZX/bsLiqpMJx+ybcLsHQkztdff532PfSCp6ORLrnkkmPe2s2jku3q61TPoDzTdSC7BY/ThZh2j/W1m3p66NAhEyrpr2Fu2zPVE/rsLpD6q5R+CVq8eLGr99Bf4XRUgdOIvXRemX5RcAqwktc/sOsHOjJNfyHU0X2pNrXTdtDRg3abn+2RTdDiZz2i3n+Tz7eZuubqfJTuvKXto6M19fNp3fQcM2nSJDMq0q+tPK93fp130vklbPxuXy1Xzyl33333MUFEcnvoeUVHyOoIWuuXQ6cvsrqfhle6oLWbrXHjxuaa36xZs2N2T/bxy91NveyuN073R7muZ6bXpXQOyfdPev+o/+mI9eTN+iOW3/01KN90nz+356+wB1jp2k2fiqj3Im62TAIsP/uD3b2UjrTXH+nT/eit9/Qacr3++uvHXJPsznup7qfcWNl9/1A/HW1lnRqoI75uu+22MkXqDJSRI0eW/ptONTzjjDNEpxVaN7sAy0/vKJ0H3bQJ+4RbgAAr3O1TbrXTKXI6IsN605k8UsYujHAaTWOteLoLf/JButnfrr5nnnmmubDq9Cj9JURDt/fee0906pX1C73Tl3c3iyimapDjjz/ehDDJQ491mqVOjfC6aT31tR06dCjzUjc+2finqqceh36BsG5Oa6HZhZ52gZeOpHvxxReNndvwKvH+anTzzTfLb3/722OCJi83inbHrF+WdIShTnnIZMv0i0I2Uwi91FNHTurxaZtYN7/bI9Ogxe966DFGvf9mO4VQTXN1Pkp13tKgUs8reo2xbkGEV1p+eV/vvHwunc47bs77QbSvjp7RMP+bb77xchhl9rX7Irt27VozaiFd2J78pq1btzajd5Knkub6fO+mfZy+4HmBzdV1KV0dvdw/Je4ZguivQfUDv85fXuqXixFYqdpZ261hw4ZmNLibzWuA5Xd/cPox0E3dve6jo570fqpOnTpeX2r2dwqwOnfubH48SNwbJ4dQaqY/ns+ePbv0fbV99JqaPFXV7rVhuh/wApftedDLe7FvOAUIsMLZLuVeq+QEXyuQmD6YqIzddLB06xk53bBZv4glH6ybG8Hk+uqUMg1ANMRK3nSqyCOPPGL+dsEFF5g57hpKJA/3dboB019idCTOr371K7NOkt7QP/vss2b6YnLgoutXDR06tDRMsTPTobI6VVOHB+vUO73Q6Nz1xx9//JghzXa/trjxsRp43T9V59NpaRp0WqcEOIWYdsduN+Vw5cqV5otM8q/w2l56IW7ZsqWZJqhfeLSNkx8moO2jIaWOWEt33Pp3Db30sdQaeukXZP0yq6/X9c2sm+6nIz8S0xy8figzCbCcfsW1e+qn041wYhSEBnt6fLpGnK7doOGAtb86DUcPqj28LvoaRD2i3n/tzpteXHN5PnI6D9100022AXaqUa1eP4vJ+5f39c6P846b83gQ7WsX+uo5Rtcw0nNMgwYNzDnmL3/5izz//PO2U+2Tv8jajYBTIz3n6zRF/TKoU5h1hJaeg60/rDn9AJXqfFge53s37eN0P+RH/3D7mfDyg4JdmU6hhNsAy/ojVhD9Nah+4Pf5y8t5O6j7aKfgxK7dk3989Fp/N/3T7/6QKsDSdWYTP3jrvaeG4m+88YZtNTUs0WUZNADSH2b1fkrPd9b7KR3xqVOWzz33XDeHesw+TgGW3qfqdzFdC0u35HvBnTt3mnvy1atXm78n6qE/hKYLsPz29tJPg/qcZoTPiyIpQIAVyWbzt9J2I2XsnnrmNI3QLmRJFyRkG2Aln/yS11TIRMjuAqI3y0OGDDHTIqxTyZxGhyT/KqD76XpOuu6SLlK7bNkyM69ev7Qlb3ZfFOxuFt3eKCfK97p/Krt0U2+sr00esaeW+kuR/qKU2Jx+cXOaPuk0UsPugQJOF0i7qYF2CzprHVP103R9zG2ApV/U9CZk+fLlJhi1WydNF0nWtUSsa3J5Ob7kRT4TdU+elhhke3i54Q2qHlHvv9kGWLk8Hzmdh3SxZ53+YF1jMLGekp4nM53C6/T5zMX1TuuS7XnHzXnc7/Z1Om9oIKSjMaw/AqUaMZl8HbMLkvUL5eTJk82PRNbNbvqi3VQYL+fDIM73btrH6QueH/0j3fUo8ffyDrBOOukks4aQTmlK/iz73V+D9PX7/OXleuglGPB63+cUPKZqN30Pr/V30z/97g9OAZbduUZDcmtQlKivfhfSIEh/SE1sGnjptVjv661b8oN23BxzYh+nAEvPs9YF2nV/68OTkn/oSyz0ruG/3jNaN7sRWLn6fpLr87WXtmHfcAoQYIWzXcq1VnY3k06L/dlNI0w3dNbtjZ2XC69dPfSpIPqkQR0ppYv9ev3iY3cBSTVF0u4mOJtRO24DjyA8vXQ4fdqjfuG0/vqUHGLql1Ediaaj3xKb3ZBfu6k86dbV0l+i9Mug/npkvcnQ0VnNmzcv/Tc7J6enuOiLHn74YZk1a1YZCr8DLC/OiX2dplF5Pb7kxyxr+cnHF2R7eLnhDbIeUe6/2QZYXvqf3+cju/6q06P1S0DyIs92AYmXuqfaNxfXOz/OO17P++m83LSv3S/0qaZu2K0zp/VIDrDsrt/JYXqi/nZTZHSajp7PNBRJdd/gh3s6Ry/3Lbqv1/N22K5LXkZg6Qh9DSV17clsNzf9NUhfv89fXq6HTseV7Q/BWq7dfa+bdvNa/2zbP/n1bvqDU4Blt+yFU1ivD6XQtbD03t662bk5ncPcHLtdeYn76uQnKOsi9HoPrt9xks+luv6Vzjj5xz/+ccxUz1RPIUxXRzfeXvpprs+D6Y6Xv4dfgAAr/G0UeA3tRv44XRjtbmidpiJ5vbHzsr/T9KJEGforrp6s9QtSu3btjlnnxw7V7gKiiyXqRcRpS76w6H7JT4tL1YA6GkAXif/b3/5mRmglf5EL2wgsPRa74C45xLT7kpg8vVLL0oDLOr9f/y3dkw2dRue4WeQ8Vdnl8QXR64dZR1zp0HXtB8mBrF19sz2+INvDyw1vkPWIcv8NOsAK8nzk9Itr8mdCp3c//fTTZq2VILZcXO+y/Vx6+WLg5/XG7ktL4gtS8he6xPvqgsPJiwcnX8eSr7Xppt/Y9Z3k0Q5BnA+99D+3149c17M8R2Bl84VZ7f06HwX1+bPrH27PX16uh5l8/t32R7v7Xjft5rX+Xj5LTvt67Q92dXQ617gdpZ6om9/Bsl07JK73CxYsMCNeE1vifluXTtEp1/qExMSWeI3d59xNu1rtvXp76ae5Pg/60R8pI7cCBFi59c/5u9v9Ymo3fTBRUadphHbhROI1bi+kXvbX0T+6+KCuQ+VmO/nkk0XrqDfSOlLLbrO7gKQbEmx3bKmmVOqX50WLFoleXD755JO0T3UKY4BlFyAlT+FM/pLoNMXTzi9daKhtZ7eGjT4dR6d7pupHqRYV9dpP0/W7bL8oaJ/Vp7Lpmm12ownt6pvt8QXZHl5ueIOsR5T7r98BVnmej9wGWOmekJnuc5fq77m63mX7ufTyxcB6/Nm2r91IqXRLBqT7pd7pi6LXdk3+LARxPvRSJ7fXj1zXM137eDlm675290/dunWT+++/33WR2fZXp89JUJ8/uwNze/7ycj3M5PPvtj9m2m5e6++6E1h2zLY/2NXR6fuN03nJ6TuAW1+3x50qwEoeOJAI4TQsvfXWW2XDhg3mbayDCTIJsLL19tJPc30edNsu7BdeAQKs8LZNudTM7oln6VJ6u5tapyeaeTmhpQoe7L646TS1p556Sv70pz+5fnpd3bp1zdQ2XUA9ORTIJMByczOoX5g//fRTs8Cjrm/k5Ul7YQywtJ0+++wzueOOO2T//v2l/TQRYmrImTx90GmaaaY3AW7c7cpOdUOdaV2cPqheAyydKqhP1jrnnHPkiiuuMMFV8oMGrO/lNeRxc3xu9rE7Xjft4eWGN8h6RLn/+hFg5ep85DbA0vY55ZRT5Pe//71ZINxuSzcCN/Ga5PNnrq53fpx33H4m/Gxft+9pbaN054LyDLD8cHd7I+bWKozXJa9Pi7MzSfUFPJWhn/3V6X7Tj37g5/lL6+nlehjkfXSm7ea1/m4/R372B7s66hToZ555RurXr1+mSmEOsLRud911l/nRO7HpvcBPf/pTGThwoBw8eND8s/XY3AZYfnp76ae5Pg+67Y/sF14BAqzwtk251MxuXZxM3lh/ddIRUTplL3lze2OXeJ3XC+p3331nnn6kw2j1RJ9uc3q6VRABll4cXnrpJbMIZHJwpWb6C8pFF11kps3pk5zuvffeMtX3I8Dy6pnOT/9uN5Ihsd7Ijz/+aJ6KojcPiS35iZaJf/faNxKvS/clycuFNNu6OHm5qaMba6d9vNq52d/NPnb1cXOsXm54g6xH3PqvF9dcno+8fAHUNtIn3P3ud7+zHX2YaYAVxuud277uZj+/29fNeyafD9KdC8ozwPJjjSC352i3Vm73i9p1KZP7DL/7a5DXfT/PX1pPL+ftTI7LbXu43S/5c+C1/m4+R373By91DHOApXbJy5Xodwa959bvF4nNOlXWTYDlt7eXfprr86Cb/sg+4RYgwAp3+wRau+THr2b7Zk6LHXo9UWV6QdWnuWmYpdPL3n33XfP/nUY72S3OnsmijHrx0CHG1s1602z3RUuHMOvoJR0FpiNuvIQyXi4QiXIz9UzXH5LbNTFN8F//+leZp5/ogqA6+kzNkzevo4gSr890CmF5fqFJ90UunW+6v3v9XLnZP8j28HIzGWQ9nL4YRrX/enHN5fnI6Qugng/1aYM67fj7778v7fa6BtaMGTPMTXrylkmAFdbrnZvPpdvzvt/ta3d9S56qndw26c57dl8UUy1bkO486PR51n8vz/O9n+1oPWa35bp1Stc+bstJ3s/uPsP6tDS7cv3ur24/J5n4+nn+0vf3ct7O5Ljc3vdl0m6Z1N9Nv/K7P3gxDnuAlXzPq/fV+t+2bdtKaa3Lb7gJsPz29tJPvZ7XvO7vpr+xT7QFCLCi3X5Z1V4XStbHsyaGn2ZV2P8/fFW/cOioonQ3CE7raGjglLwoYbobUad6JxYg1C9Gb7/9dpkwy+6G2e5Cnu5m3W4Rd+ti4sl/1y/J+kSTzp07H1NttzeWdify8vBMrrDdQu2//OUvRb8oWheVbN++vRmdpyPfkrcgF+v2esHzun+6z4vb9kxXjtPfvdbXzf5BtoeXm8kg65HwjEv/9eJaXucju+DArv8lRsP+/Oc/lz/84Q/y7LPPlunuvXr1Mg95SJ7unUmAlcvrnR9BipvPr9/ta3cOS/eQjXSLuOuv/qNGjZI33nijtK3TPQjGzTnSjU+6+5Jsnjrr9v3d7peoq9f901kFdV3KZAS73/3Vyxdor75+nr8yCYCCuu/LpN0yqX+6fql/97s/eLk2hj3A+uabb0QDKr2/ttuSz6F2y3wkLw/jt7eXz5/X85rX/d30N/aJtgABVrTbL+PaOz3JLeMCRcxjZvUXt+Rwxu7E47Tmgt0TwjINsBLHYjd/3G2AlWptL72Q6A2vrmuV2KxPOPH6S3O6G/9UN1zl6Zmoh92C/jqiTENI69pYdo8sTpSxadMm0emFW7duLTXUtaA0CFV7u033vf3220UXtkxsdq/xesHzun+6z0pQXxS83nh72T/I9vByMxlkPeLWf926luf5yG2A1adPH/NZ1oBKF6LVqcc6gjOx+TEyR8vK9fWuPAKsINrX7qnDus6K3Q9V6mw3tVz/Pfn6ZDeyy9oX0p1b7f7u9fztdf90dXJbntv9vJy309XN+vegrkteg5Ag+qseZ1C+duVmc/5ye94O+r7Pa7sl6uO1/un6aBD9wUsdwxhgjR07Vi655BJDt3v3bvN9Y8WKFbaUul6kPr1Xz8+62f3IYw2wgvD28vkL6nOarp/x9/gIEGDFpy09HcnmzZvNlwX9opgqBHAqVBdQT16oW/e1e8R28iNgdT+7YEi/ZLz44ovy5JNPHjP1L/kLwJ49e0R/kfj4449l8eLF5lcJ/TWhadOmx1TZ7sTvNsDSwq677jrzCFvrgtpOdbUuVm53gdCQT399vvLKK8vUU9tDv8itX7++zL/bBVNBeHrqPJad582bJyNHjnScqpl8UU1+Hw271GPu3Lll/tS2bVt54oknykyx1B0OHTokelHXBwlYt44dO5ppi9ZRXrm+QAb1RSHVDW22X5SDbA8vN5NB1sPab+LQf926BnU+cvs5c7Of3oDrf9bNaWq6l3NWeV7v3Bynte5u90+3XxDt6/Slzss1UY/VzWL6+iPEpEmTpEWLFmWaVoNNHSmuP47odUEfbnHGGWeIPkI+E8dMz5/p+lu69sn0fd2Wm65+ib8HdV3yGoQE0V/1GL16ud3fzX5ezl9uz9uJdgvqvs9ruyXq47X+6fpnEP3BSx3DGGBZn4Co3zl0gMDs2bNtKfXcqN+B9Ed03TIJsPz4fuLmcxLk5zRdP+Pv8REgwIpPW3o6ErsvbqmmetkVrlPzNEywboWFhebXWX2KVGKzG8qqf+vUqZMMGjTITDnUkVc6feTVV1+1DUOsX8ydRmmdfPLJZohtu3btpKCgQHRNrI0bN5qnWb333ntlyrV7Kp7dhVzrqSd1HVWmAZMGMrrYugZt+l/yGlvWxcrtRihpeXqjru+l9dRARqfb6Y37Dz/8cAyzBl065dA6hcZvT08dJ2lnnX9vfYxvclluvnxqAKn9QENR63bmmWeaf2/ZsqVUrFhR1q5da8LNDz74oMx+ug7A5MmTpVWrVmW66jqGAAAgAElEQVT+3e2FNNMvFuncgvqikGl93XoE1R52axDpsHf9LOjnS/u/roHUrFkzc4hB1cPabnHov25d9Zx8zz33HPP5yfZ85LZfudnPbnSl0+c73efP+vfyvN65OU5r3dzun26/oK43r732mrnOW691ek3UEOu3v/2tuZ6lu34nB1h6rtep9npdtm7HH3+8DBkyRPQHCT3nr169Wh555JEyo5x1f7sfwNL5JPcXr/un629uy3O7X6bn+XT1DOq65DUICaq/BuXrplwv5y8v4Yq2aVD3fV7bLdG/3F53EtfzdP0yiP7gxTjsAZb62T0BPuGavIxIugArCG+ti5vPiZf9gjoPpuuP/D38AgRY4W8j32votM5UqqledpWwW0NG90sux2lagZcDSx5ZYndT7bY8vfnWOnbv3r3MS5wCLLfl6k21LlZufTyvXcjntjzdL3nOuv5bEJ5e6mTdN9XUHKcppcnvpf1R18jS8NLrpu8xYMAAswh08jo5bi+kQV0gg/qikGl93XoE1R46rVS/nGow5bRZR3AGVY+49V8vronzptfPWWJ/u/OR236VzX52IyzdHkN5X+/cHqfXz7GbcoO43ugPNvoI9+XLl7slP2Y/u5HEOhVGr+s6QtrL5nT9duNjfR+v+6ero9vy3O7ntX+kq1/i70FdlzIJQoLor0H5ui3Xbj+785eXcCXI+75M2k3r4+W6o59ZN5vf/cGLcRQCLF2uRO93dQaKdVNf/RFcByEktnQBlu7nt7eWmc3nJNsZBG76GPvER4AAKz5t6fpI7Na1SLfukF3hTtMI7UZy6YKtOpLI6amA1vJPO+00M7XRuo5S8onNaSqZGwS76Q/6uuQLuU4zVJd169alLdZp+oP+Mq0jt3S6Y7pNf33WEV7WOe76BK6nnnqqTCim5fjtma5uqf6+ZMkSGThw4DEPA0i1flhyedqXdLj0rFmzXPURfb1etHWRZ72gW6d3Znrj7/bC69YqqC8K5XF8QbSH1ttuioXVMzkgCaoe1veMQ/916/qf//zH9/OR28+N2/3sRtjqSD0diZNYD8TtZ1D3K+/rndvj9Po5dlNuUNebL7/80iymr+Wn2nQKt46sfuutt8rsZhdg6Y8ff/3rX2XKlCnHjL5N9R5O1283PtZyve6frs+5Lc/tfl77R7r6Jf4e1HUpkyAkiP4alK/bct2ev7yEK4m2C+K+L5N2S9TH7XVHZ0S42fzuD16MoxBgOT1J126pDjcBlt/e2sZuPydu9wvqPOimP7JPuAUIsMLdPoHUzi519zp9MFExu7Ls1pfSwOn55583X2CdQiwNJK666iqzXoaO1LD+MmuXzGuZf/7zn+WZZ54Rvfik27T8X//612bKm90T8ZIv5EVFRfL444+bUVWpRo3ooomPPfaY6JQ3u02/QA0fPlx0xJrTdtZZZ5mAT78o6JpSiU2/uE2YMKHMLyv6tyA80/k5/d1pRFiPHj3MOmnJI6OcytEpn/q0SJ3Hbzed0vq6unXrmrIvv/xyx/JzfYEM6otCphd0rx5+t4fWW6fs6bTQr7/+2rYb2E3tDaIe1jePQ//14ur3+chtv3K7n7aN3Qhbu9Ffbs5Z5X2983KcQdzw+92+CeMvvvjCTEHVab52m35JfeCBB6RKlSrmM27dnB4yoiHWhx9+KA8++GDac76Wr1MWb7jhhlD+YOG23d3ul+l5Pt1nIqjrUqZBiN/9NShfL+W6OX95CVcSbRrEfV+m7Zbp9Txd//SzP3gxjkKA5TSa2O7a6CbA0rbw0zuI61lQ58F0/ZC/h1+AACv8beRrDZ1GTXmdPpiolNM0QqehoLqOka51tWjRIrOWlIZK+uvBBRdcIL/61a/M2ln65VZH1aQLsBJ10AuPPiJdFzf85z//Kf/+979LQzK96W3SpIkJOnQ9KV2jy2mzC7CKi4vNKCxdLP7ll1+Wzz//vLTeOsKoW7duJnBL9wuTumv9Xn/9dRNk6YVIX3PuueeKBj0aIOqaH3aPytX1gfQG326UURCemXS45F/irE9j9Fqe3qRpe+qUQu0LiV/9a9eubdryl7/8pfmVP525lxtOLxdet8cT1BeFTC/oXj2sN81+tEeivB9//NEEFPpZ0MW1E58FHXl57bXXmvWw7AJmv/qFXfvFof96cfXzfOS2X7ndT9vH7pdhpwVmU30ec3G983KcXs47Xsr1s32tvnZ9TKfM62f2xhtvNNdXu/OeXifvv/9+x6bSa/i7774rf/vb38w5X+8NdEtcv3UtRb3O6jXAafPi48Xd7fne7fu73S/T83y6+gZ1XcomCPGzvwbl66VcN+cvL+FKcpv6ed+XTbtpvbxcd9L1zcTf/eoPXoyjEGCpj90TXHv27Gl+9Ldu+qOWBv7WB3U5/Qjkl7eX86qXz5OXct32MfaLvgABVvTbkCNAAAEEEEAAAQRyLmAXkKRa2yTnFaYCCCCAAAIIIBApAQKsSDUXlUUAAQQQQAABBIIX0FEJ+rRAHdWs09zPO+8881RYHWllNyLY6aEe+hTDTNYvC/4IeQcEEEAAAQQQiJoAAVbUWoz6IoAAAggggAACAQs4PWlM14d8+OGH5ac//akJsjS40uk6Oi1Y17rUKSmJzW6B4YCrTfEIIIAAAgggEGMBAqwYNy6HhgACCCCAAAIIZCqQ7aPWdf2re++916x3yYYAAggggAACCGQrQICVrSCvRwABBBBAAAEEYiigT+nUpw+mehKv02E3bdpUpkyZIo0aNYqhDIeEAAIIIIAAArkQIMDKhTrviQACCCCAAAIIREBA18B64okn5L333it9wm+6ardq1UrGjBkjJ5xwQrpd+TsCCCCAAAIIIOBagADLNRU7IoAAAggggAAC+Seg61xt2LBB5syZIx999JFs3bpVduzYUQpRtWpVE1a1a9dOrrzySrM+VoUKFfIPiiNGAAEEEEAAgUAFCLAC5aVwBBBAAAEEEEAAAQQQQAABBBBAAIFsBQiwshXk9QgggAACCCCAAAIIIIAAAggggAACgQoQYAXKS+EIIIAAAggggAACCCCAAAIIIIAAAtkKEGBlK8jrEUAAAQQQQAABBBBAAAEEEEAAAQQCFSDACpSXwhFAAAEEEEAAAQQQQAABBBBAAAEEshUgwMpWkNcjgAACCCCAAAIIIIAAAggggAACCAQqQIAVKC+FI4AAAggggAACCCCAAAIIIIAAAghkK0CAla0gr0cAAQQQQAABBBBAAAEEEEAAAQQQCFSAACtQXgpHAAEEEEAAAQQQQAABBBBAAAEEEMhWgAArW0FejwACCCCAAAIIIIAAAggggAACCCAQqAABVqC8FI4AAggggAACCCCAAAIIIIAAAgggkK0AAVa2grweAQQQQAABBBBAAAEEEEAAAQQQQCBQAQKsQHkpHAEEEEAAAQQQQAABBBBAAAEEEEAgWwECrGwFeT0CCCCAAAIIIIAAAggggAACCCCAQKACBFiB8lI4AggggAACCCCAAAIIIIAAAggggEC2AgRY2QryegQQQAABBBBAAAEEEEAAAQQQQACBQAUIsALlpXAEEEAAAQQQQAABBBBAAAEEEEAAgWwFCLCyFeT1CCCAAAIIIIAAAggggAACCCCAAAKBChBgBcpL4QgggAACCCCAAAIIIIAAAggggAAC2QoQYGUryOsRQAABBBBAAAEEEEAAAQQQQAABBAIVIMAKlJfCEUAAAQQQQAABBBBAAAEEEEAAAQSyFSDAylaQ1yOAAAIIIIAAAggggAACCCCAAAIIBCpAgBUoL4UjgAACCCCAAAIIIIAAAggggAACCGQrQICVrSCvRwABBBBAAAEEEEAAAQQQQAABBBAIVIAAK1BeCkcAAQQQQAABBBBAAAEEEEAAAQQQyFaAACtbQV6PAAIIIIAAAggggAACCCCAAAIIIBCoAAFWoLwUjgACCCCAAAIIIIAAAggggAACCCCQrQABVraCvB4BBBBAAAEEEEAAAQQQQAABBBBAIFABAqxAeUW2bNkiAwcOlLVr18ovfvELGT16dNp33Ldvn8yZM0dmzZola9askcOHD0tBQYG0adNG+vbtKy1atJAKFSqkLWfXrl3y8ssvy9y5c2Xz5s2mnNq1a0vHjh2lT58+0qRJk7RlsAMCCCCAAAIIIIAAAggggAACCCCQawECrABb4NChQzJ27FiZOXOmeRc3Ada3334rw4cPN8GV3VapUiXp1q2bDBo0SKpWrepY+6VLl8oDDzwg33//vWM5AwYMkBtvvFEqVqwYoAJFI4AAAggggAACCCCAAAIIIIAAAtkJEGBl55fy1fPmzZNRo0bJwYMHXQVY1tFa+oIzzjhDrr32WjNqauHChfL2229LSUmJKatXr15y9913247E+vLLL83fduzYIRp4tW7dWq644gqpUqWKGY21aNEiMxpL/zZs2DDp3r17gAoUjQACCCCAAAIIIIAAAggggAACCGQnQICVnZ/jqzds2CD9+/eXf/3rX6X7pBqBpYHSuHHj5NVXXzXBkgZUOkKqcuXKpa/X0VmDBw+W9evXS/Xq1WXy5MnSqlWrMnXQ6Yf33HOPfPTRR2aElk5fvP7668sEXUuWLJH777/fBFwNGzaUGTNmyIknnhiQBMUigAACCCCAAAIIIIAAAggggAAC2QkQYGXnZ/tqHSV13333yXvvvWfWrtIRWPpfqgBLpwxq4KWh0llnnWXCKR15lbwtXrzYTB/U9+jSpYuMGTPGBF6JTUdqacil79e5c2d58MEHy4Rgif1ee+01M71Rg7NbbrnF/MeGAAIIIIAAAggggAACCCCAAAIIhFGAAMvnVjl69Ki8+OKL8uSTT5pRUr/73e/kD3/4g+zevTtlgKXrZD366KOmNjqtr0ePHo7h2NChQ82UwgYNGsjTTz8tjRs3Lt13/PjxZuH24447TiZMmCDt27e3LUeDMg3MNDhr2bKlTJ06VWrVquWzBsUhgAACCCCAAAIIIIAAAggggAAC2QsQYGVvWKaExPpT+gRAnQKoTw68/fbbUwZYOgpqxIgRMn/+fBMiafjVvHlzx5pNnz5dnnvuOTPyatKkSaUhlYZkd955p6xYscJMCXzqqaekfv36tuVY37NOnTqiZeqaW2wIIIAAAggggAACCCCAAAIIIIBA2AQIsHxskb1795rpe8uWLZO2bdvKE088IboWlgZZqUZgWYOnoqIiKS4ulsLCQseaLViwwIzS0k0Dq969e5v/v2nTJjMVcOvWrXL++eebEVg6hdFp0xBMgyvdJk6cKB06dPBRg6IQQAABBBBAAAEEEEAAAQQQQAABfwQIsPxxFJ06qFMFn332WalXr55MmzZNmjVrJitXrkwbYG3fvl369esnGzdudBU8ffbZZ3LHHXfI/v37y0xLdPNe1sN98803ZeTIkccEYT6RUAwCCCCAAAIIIIAAAggggAACCCDgiwABli+MIonF1Q8dOmRGRf361782JbsJlaz7uBk55VTm+++/bxZ41y3VgvGJQ7bubx3J5RMJxSCAAAIIIIAAAggggAACCCCAAAK+CBBg+cC4bds2MyJKF0Tv2LGjWYy9atWqGQVYboIna4B18cUXm6mKVapUEa+BlHX/nj17ypAhQ3zQoAgEEEAAAQQQQAABBBBAAAEEEEDAXwECrCw9dcTV2LFjRZ8i2LBhQ5kxY4ZZQD2xeR2B5TXAso7YyibAcvO+WVKlfPmWLVuCLJ6yEUAAAQQQQAABBBBAAAEEEECgHAUaNWrk67sRYGXJqQuq6zpSGmSNGjVKrrzyyjIlBh1gxWUEFgFWlh2RlyOAAAIIIIAAAggggAACCCAQIgECrBA1xubNm+X222+X9evXy9VXXy333XefVK5cOasAizWwQtTAVAUBBBBAAAEEEEAAAQQQQAABBEIhwAisDJtBR1w98MADMm/ePGnatKlMmTJF7NJFNyOwsnkKYbdu3eT+++83R+HmvayHa30KoS7+3qtXrww1eBkCCCCAAAIIIIAAAggggAACCCAQnAABVoa21rAokyKsI612795tnly4YsUKOemkk6S4uFjq1avnWKxOWxw2bJj5u/XpgZs2bZJbbrlFtm7dKm3btpXx48dLtWrVHMt57rnnZPr06ebvEydOlA4dOmRyKLwGAQQQQAABBBBAAAEEEEAAAQQQCFSAACtDXj8DrMOHD8uIESNk/vz5UqdOHRMqnXHGGY41079r+FSpUiWZNGmStG/f3uzrJQjz+p4ZMvEyBBBAAAEEEEAAAQQQQAABBBBAIGsBAqwMCTUs+vTTT83i7ak2HRX1zDPPyP79+6V169bSo0cPs7sGVeeee64JoXTTpxg++uij5v8/9NBD0rVrV9ti9+3bJ4MHD5alS5dKgwYN5Omnn5bGjRuX7qujrl5++WUz8mratGnmPey2bdu2ya233iobNmyQli1bytSpU6VWrVoZavAyBBBAAAEEEEAAAQQQQAABBBBAIDgBAqzgbE3JbtelWrNmjfTv31927Nhhgq4JEyZIjRo1jqnd4sWLRderKikpkS5dusiYMWNKQzDdeeHChSbgOnjwoOPC8rrfa6+9JmPHjhUdiaXTDvU/NgQQQAABBBBAAAEEEEAAAQQQQCCMAgRYAbeK2wBLg6THHntMZs2aZWqki7MPHTpUqlatWlrDb7/91oRT+tTD6tWry+TJk6VVq1ZljsA6QktHd2ko1rt3b6lYsWLpfkuWLDELv2tY1rBhQ5kxY4aceOKJAUtQPAIIIIAAAggggAACCCCAAAIIIJCZAAFWZm6uX+U2wNICt2zZIgMHDpS1a9ea8ouKiuSaa64xUwQ//vhjmTt3rmhApZs+MfDuu++WChUqHFOXL7/80vxNAyrddD2ta6+91ozoev/990UXgdfATAMuXQy+e/furo+HHRFAAAEEEEAAAQQQQAABBBBAAIHyFiDACljcS4ClVVm1apVZ0H3dunW2NdPQSUdn6TRC6+is5J11KuGoUaPkhx9+cCxnwIABcuONN5YZnRUwB8UjgAACCCCAAAIIIIAAAggggAACngUIsDyTeXuB1wBLS9dRVnPmzDHTCXVtLB0tVVBQIG3atJG+fftKixYtbEdeJdds165dZkF3Hbm1efNmU07t2rWlY8eO0qdPH2nSpIm3g2FvBBBAAAEEEEAAAQQQQAABBBBAIAcCBFg5QOctEUAAAQQQQAABBBBAAAEEEEAAAQTcCxBgubdiTwQQQAABBBBAAAEEEEAAAQQQQACBHAgQYOUAnbdEAAEEEEAAAQQQQAABBBBAAAEEEHAvQIDl3oo9EUAAAQQQQAABBBBAAAEEEEAAAQRyIECAlQN03hIBBBBAAAEEEEAAAQQQQAABBBBAwL0AAZZ7K/ZEAAEEEEAAAQQQQAABBBBAAAEEEMiBAAFWDtB5SwQQQAABBBBAAAEEEEAAAQQQQAAB9wIEWO6t2BMBBBBAAAEEEEAAAQQQQAABBBBAIAcCBFg5QOctEUAAAQQQQAABBBBAAAEEEEAAAQTcCxBgubdiTwQQQAABBBBAAAEEEEAAAQQQQACBHAgQYOUAnbdEAAEEEEAAAQQQQAABBBBAAAEEEHAvQIDl3oo9EUAAAQQQQAABBBBAAAEEEEAAAQRyIECAlQN03hIBBBBAAAEEEEAAAQQQQAABBBBAwL0AAZZ7K/ZEAAEEEEAAAQQQQAABBBBAAAEEEMiBAAFWDtB5SwQQQAABBBBAAAEEEEAAAQQQQAAB9wKhCbB27Nghw4cPl61bt7qvfZZ7NmjQQB5//HGpV69eliXxcgQQQAABBBBAAAEEEEAAAQQQQACBoARCE2Bt375d+vXrJxs3bgzqWI8pt6ioSIqLi6WwsLDc3pM3QgABBBBAAAEEEEAAAQQQQAABBBDwJkCARYDlrcewNwIIIIAAAggggAACCCCAAAIIIFDOAqEMsCZOnCgdOnQIjOL999+XQYMGCSOwAiOmYAQQQAABBBBAAAEEEEAAAQQQQMA3AQIsRmD51pkoCAEEEEAAAQQQQAABBBBAAAEEEAhCgACLACuIfkWZCCCAAAIIIIAAAggggAACCCCAgG8CoQmwSkpKZNmyZbJ//34566yzpH79+r4dZHJB27Ztk+XLl0u1atWkdevWUrVq1cDei4IRQAABBBBAAAEEEEAAAQQQQAABBLITCE2Ald1h8GoEEEAAAQQQQAABBBBAAAEEEEAAgbgKRDbA2rlzp3z99deyYcMG+e6776RFixZm1Fbz5s2loKAgru3FcSGAAAIIIIAAAggggAACCCCAAAJ5JxCpAOvIkSPyzjvvyFNPPSXr1q2zbaxKlSrJmWeeKXfccYe0atVKKlSokHeNygEjgAACCCCAAAIIIIAAAggggAACcRKITIC1d+9eGTFihPzjH/9w5a9BVq9evWTAgAFSuXJlV69hJwQQQAABBBBAAAEEEEAAAQQQQACB8AlEIsA6dOiQPPDAAzJv3jwjqOFUs2bN5MILL5TTTjutVHXVqlXy7rvvmimFhw8fNvtpgHXTTTcxEit8fY8aIYAAAggggAACCCCAAAIIIIAAAq4EIhFgLViwwIy+OnjwoDRu3Fgee+wxM03Qbjt69Kh8/PHH8vDDD8umTZukevXqMm3aNDn77LNdgbATAggggAACCCCAAAIIIIAAAggggEC4BEIfYOlIKg2v5s+fL/Xq1ZNJkyaZBdvTbStWrJA777xTdu/eLT169JChQ4cyCisdGn9HAAEEEEAAAQQQQAABBBBAAAEEQigQ+gBLnzbYv39/Wb16tacgSkdijRs3Tl555RVp2bKlTJ06VWrVqhXCJqBKCCCAAAIIIIAAAggggAACCCCAAAKpBEIfYG3fvl369esnGzdulIceeki6du3qukVnzpwpjz76qBQVFUlxcbEUFha6fi07IoAAAggggAACCCCAAAIIIIAAAgiEQyD0AZZ1BJZOCezdu7druZdeekkmTpwoJ510kgmwdAoiGwIIIIAAAggggAACCCCAAAIIIIBAtARCH2DpGlijRo2SuXPnyvnnny8TJkyQgoKCtMrW13Xp0kXGjBljnkrIhgACCCCAAAIIIIAAAggggAACCCAQLYHQB1jK+eWXX8rdd98tu3btMuth6SisihUrppTWJxeOHDlSKleuLJMnT5ZWrVpFq2WoLQIIIIAAAggggAACCCCAAAIIIICAEYhEgKUV1UBq9OjRUlJSIh07dpS77rpLTjjhhGOacd++fWbh9meeeUYOHTpknkTYq1cvnkBIh0cAAQQQQAABBBBAAAEEEEAAAQQiKhD6AGvPnj3y/PPPy+7du+Xbb7+VTz/9tJRa17TSBdpPO+00+eGHH2TlypXy/fffi04fdLOxuLsbJfZBAAEEEEAAAQQQQAABBBBAAAEEcisQ+gDL+hRCv6kIsPwWpTwEEEAAAQQQQAABBBBAAAEEEEDAf4HQB1g7duyQ4cOHy9atW30/+gYNGsjjjz/O0wl9l6VABBBAAAEEEEAAAQQQQAABBBBAwD+B0AdY/h0qJSGAAAIIIIAAAggggAACCCCAAAIIRFGAACuKrUadEUAAAQQQQAABBBBAAAEEEEAAgTwSCE2ApVMFp02bJueee65cfPHFTOvLo07IoSKAAAIIIIAAAggggAACCCCAAAKpBEITYCUv1q5PGLzwwgvl8ssvlzZt2kiVKlVoSQQQQAABBBBAAAEEEEAAAQQQQACBPBQIbYBlbYtKlSpJkyZNpGvXrtKpUyfz/ytWrJiHzcUhI4AAAggggAACCCCAAAIIIIAAAvknEJoA68iRI/Lpp5/Ku+++Kx9++KFs3rxZDh8+bNsiVatWldatW0uXLl2kXbt2TDfMv37LESOAAAIIIIAAAggggAACCCCAQB4JhCbASjY/cOCArF69Wt577z0TaK1Zs8Yx0NLphj//+c/l0ksvNWtoMd0wj3owh4oAAggggAACCCCAAAIIIIAAArEXCG2AlSx/6NAhWb9+vQmzdJTWqlWrpKSk5JgGYrph7PssB4gAAggggAACCCCAAAIIIIAAAnkmEJkAK9NAS6cbduzYUe69916pWbNmnjUvh4sAAggggAACCCCAAAIIIIAAAghEXyCyAVYyva6hpetmLVmyRD766CP5/PPPZceOHWa3oqIiKS4ulsLCwui3GEeAAAIIIIAAAggggAACCCCAAAII5JlALAKsxPTCZcuWmQDLGl4RYOVZj+ZwEUAAAQQQQAABBBBAAAEEEEAgdgKRDLB0tNV3331n1sJ6++23HRd41/WwTj31VPnv//5vue6660SnE7IhgAACCCCAAAIIIIAAAggggAACCERLIDIB1t69e2XRokUyf/58Wbhwoezbt89Wun79+nLxxRfzRMJo9UNqiwACCCCAAAIIIIAAAggggAACCDgKhDbASkwL/Nvf/mZGWen6Vnabjqpq3bq1dOnSRdq1ayf16tWjuRFAAAEEEEAAAQQQQAABBBBAAAEEYiQQqgBLF13XUVZz584VXc+qpKTkGGqdFtikSRPp1KmTdO3a1fz/ihUrxqhJOBQEEEAAAQQQQAABBBBAAAEEEEAAAatAaAKs7du3S79+/WTjxo3HtJCOqrrwwgvl8ssvl3PPPVcKCgpoRQQQQAABBBBAAAEEEEAAAQQQQACBPBEIZYCl0wKbNWsm11xzjbRv314KCwulQoUKedIkHCYCCCCAAAIIIIAAAggggAACCCCAgFUglAGWVlBHWWl4ddlll0mbNm2kTp06tBwCCCCAAAIIIIAAAggggAACCCCAQB4KhCbA2rVrlwwbNkw+++wzOXz48DFNccIJJ0jHjh2lc+fO0rx5c6lcuXIeNheHjAACCCCAAAIIIIAAAggggAACCOSfQGgCrAT9vn37TIilTx/UBd012EredCF3DbGuvvpq8+TBRo0aMcUw//ouR4wAAggggCQTvTwAACAASURBVAACCCCAAAIIIIAAAnkiELoAy+p+9OhR2bJli/z973+Xt99+W1auXGk7Oqt27domyLrqqqtY5D1POi6HiQACCCCAAAIIIIAAAggggAAC+SMQ6gAruRkOHDggX3/9tRmdpaHWjh07jmkpHZ3VpEkT6dSpk3Tt2tX8/4oVK+ZPi3KkCCCAAAIIIIAAAggggAACCCCAQMwEIhVgJdtrgPXBBx/IW2+9JZ9//rmUlJQc0zz6RENdO+vee++VmjVrxqz5OBwEEEAAAQQQQAABBBBAAAEEEEAg/gKRDrCszXPo0CFZv369fPjhh/Luu+/KqlWrSgOtoqIiKS4ulsLCwvi3KEeIAAIIIIAAAggggAACCCCAAAIIxEwgNgGWTi9cvXq1CbAWL14s3333XekC8ARYMeu1HA4CCCCAAAIIIIAAAggggAACCOSVQGQDrJ07d8oXX3xh1sLSwGrbtm22DVdQUCCXX3653HXXXUwhzKuuzcEigAACCCCAAAIIIIAAAggggEBcBCIRYB05ckQ2b94sS5YskXfeeUeWL18u+/bts20DXfPqnHPOkcsuu8w8mbBRo0ZSoUKFuLQXx4EAAggggAACCCCAAAIIIIAAAgjknUAoA6zEdMD33nvPTAlcs2aNHD582LZx9KmDp556qhllpU8e5KmDedeHOWAEEEAAAQQQQAABBBBAAAEEEIi5QGgCrD179sj06dNFQyun6YCJtjjhhBPMkwU1tPrpT38qVapUiXkzcXgIIIAAAggggAACCCCAAAIIIIBA/gqEJsDavn279OvXTzZu3HhMa9SrV08uvPBCE1ide+65outasSGAAAIIIIAAAggggAACCCCAAAII5IdAKAMsDag0qOrSpYtZx0oDLDYEEEAAAQQQQAABBBBAAAEEEEAAgfwUCE2ApVMIFy1aJM2bNxedIlixYsX8bBGOGgEEEEAAAQQQQAABBBBAAAEEEECgjEBoAizaBQEEEEAAAQQQQAABBBBAAAEEEEAAATsBAiz6BQIIIIAAAggggAACCCCAAAIIIIBAqAVCE2CVlJTIsmXLZP/+/b6DVatWTVq3bi1Vq1b1vWwKRAABBBBAAAEEEEAAAQQQQAABBBAIViA0AVaqpxBmS1BUVCTFxcVSWFiYbVG8HgEEEEAAAQQQQAABBBBAAAEEEECgnAUIsMoZnLdDAAEEEEAAAQQQQAABBBBAAAEEEPAmENoAq06dOnLdddfJaaedJpUqVfJ2VEl7M4UwKz5ejAACCCCAAAIIIIAAAggggAACCORUIDQB1q5du2TIkCHy6aeflgGpV6+eXHnlldKjRw9p1KiRVKhQIadgvDkCCCCAAAIIIIAAAggggAACCCCAQPkKhCbAShz21q1b5a233pLZs2fLunXrymiccMIJcu2115pAq0GDBuUrxbshgAACCCCAAAIIIIAAAggggAACCOREIHQBllVBw6w33nhDXn/9ddm8eXMZoJNPPtmEWV27dhUdpcWGAAIIIIAAAggggAACCCCAAAIIIBBPgVAHWAnyo0ePypYtW2TWrFkyZ84c2bZtW2lr6PpYTZo0kZ49e8qll14qtWvXjmdLcVQIIIAAAggggAACCCCAAAIIIIBAngpEIsCyto2GWRs2bJBXX31V5s6dKzt27CgTZp155pny61//Wtq3by8FBQV52qwcNgIIIIAAAggggAACCCCAAAIIIBAfgcgFWFb6I0eOyNq1a+Wvf/2rzJs3T/bs2VMmzDr//PPl+uuvlwsuuECqVKkSn1bjSBBAAAEEEEAAAQQQQAABBBBAAIE8Eoh0gJUcZn311Vcyc+ZMmT9/vuzbt6/0zyeddJIUFxezVlYedWwOFQEEEEAAAQQQQAABBBBAAAEE4iMQmwAr0SQ6KmvFihUyZcoU+fzzz80/FxUVmQCrsLAwPi3HkSCAAAIIIIAAAggggAACCCCAAAJ5IhCLAOvQoUOycuVK87TC5NFXBFh50pM5TAQQQAABBBBAAAEEEEAAAQQQiK1AZAOsdKGVPp1Q18Dq1q0bC7rHtvtyYAgggAACCCCAAAIIIIAAAgggkA8CkQqw3IRWLVu2lBtuuIHQKh96L8eIAAIIIIAAAggggAACCCCAAAJ5IRD6AMtLaNWuXTupUaNGXjQcB4kAAggggAACCCCAAAIIIIAAAgjki0AoAyw3oVWzZs2kZ8+e0qFDB0KrfOmtHCcCCCCAAAIIIIAAAggggAACCOSlQGgCLH164FdffSUzZ860XYhd17TS0Kp79+7SqVMnqV27dl42GAeNAAIIIIAAAggggAACCCCAAAII5JtAaAKs7du3S79+/WTjxo2lbaChVZMmTcxIq0svvZTQKt96J8eLAAIIIIAAAggggAACCCCAAAIIiEhoA6zWrVub0OonP/lJ1g1VrVo10fKqVq2adVkUgAACCCCAAAIIIIAAAggggAACCCBQvgKhDbD8ZCgqKpLi4mIpLCz0s1jKQgABBBBAAAEEEEAAAQQQQAABBBAoBwECrHJA5i0QQAABBBBAAAEEEEAAAQQQQAABBDIXCE2AVVJSIsuWLZP9+/dnfjQOr2QKoe+kFIgAAggggAACCCCAAAIIIIBAqAX2HPhcdvxnvuj/Hji8Nau6VqnUQKpWaiANq98oNauck1VZvDgzgdAEWJlVn1chgAACCCCAAAIIIIAAAggggAACZQX+vX+efLd7QiAsjWrcJI2q3xhI2RTqLECARe9AAAEEEEAAAQQQQAABBBBAAIHYCOiIq9U/DAv0eFoWviA6Kout/ARCE2Dt2bNHnn/+edm9e7d0795dmjVrFpjCqlWr5LXXXpNatWpJnz59pGbNmoG9FwUjgAACCCCAAAIIIIAAAggggED5Caz+YajsOfBFoG9Ys8rZcnrdcYG+B4WXFQhNgLV9+3bp16+fbNy4USZOnCgdOnQIrK3ef/99GTRokPB0wsCIKRgBBBBAAAEEEEAAAQQQQACBnAh8svWKcnnf8xq8VS7vw5v8nwABVnGxFBYW0h8QQAABBBBAAAEEEEAAAQQQQCAGAgRYMWhEm0MIZYA1ZswYadu2bWDiixcvllGjRjECKzBhCkYAAQQQQAABBBBAAAEEEAi7wJ4Dn8i2fbNl/6E1cuDwtqyqW6VSfalW+VSpX3C11KxyXlZlZftiAqxsBcP5+lAGWOVFxRTC8pLmfRBAAAEEEEAAAQQQQAABBMIksGnvs7L1x1cCqVKD6j2kcY2bAynbTaEEWG6UorcPARZTCKPXa6kxAggggAACCCCAAAIIIIBAxgI68mr1D/dm/Ho3Lzy97mM5G4lFgOWmhaK3T2gCLOtTCMuLkacQlpc074MAAggggAACCCCAAAIIIBAWgTU7R8uuko8CrU7tqhfIqXVGB/oeToUTYOWEPfA3DU2AFfiR8gYIIIAAAggggAACCCCAAAIIICArtt+U9ZpX6Rh1TayWhS+m2y2QvxNgBcKa80IJsHLeBFQAAQQQQAABBBBAAAEEEEAAgfITiHvAE/fjK7+eEq53IsAKV3tQGwQQQAABBBBAAAEEEEAAAQQCFYh7wBP34wu0c4S4cAKsEDcOVUMAAQQQQAABBBBAAAEEEEDAb4G4BzxxPz6/+0NUyiPAikpLUU8EEEAAAQQQQAABBBBAAAEEfBCIe8AT9+PzoQtEsggCrEg2G5VGAAEEEEAAAQQQQAABBBBAIDOBuAc8cT++zFo9+q8iwIp+G3IECCCAAAIIIIAAAggggAACCLgWiHvAE/fjc93QMduRACtmDcrhIIAAAggggAACCCCAAAIIIJBKIO4BT9yPL197NwFWvrY8x40AAggggAACCCCAAAIIIJCXAnEPeOJ+fHnZaUWEACtfW57jRgABBBBAAAEEEEAAAQQQyEuBuAc8cT++vOy0UQmw3nnnHVm+fLnccMMN0qBBg3xtK44bAQQQQAABBBBAAAEEEECgHAX2HPhEtu2bLfsPrZEDh7dl9c5VKtWXapVPlfoFV0vNKudlVVa2L457wBP348u2/aP6+tCPwDpw4IDcc8898sEHH0j79u1l3LhxUrVq1ah6U28EEEAAAQQQQAABBBBAAIEICGza+6xs/fGVQGraoHoPaVzj5kDKdlNo3AOeuB+fmzaO4z6hD7C2b98u/fr1k40bN8qgQYOkV69ecWwHjgkBBBBAAAEEEEAAAQQQQCAkAjryavUP9wZam9PrPpazkVhxD3jifnyBdswQFx76AGvHjh0mwFq/fr3cd999ct1114WYk6ohgAACCCCAAAIIIIAAAghEXWDNztGyq+SjQA+jdtUL5NQ6owN9D6fC4x7wxP34ctJpQvCmoQ+wDh8+LKNGjZK5c+dKx44d5dFHH2UKYQg6DlVAAAEEEEAAAQQQQAABBOIqsGL7TVmveZXORtfEaln4YrrdAvl73AOeuB9fIJ0iAoWGPsBSwy1btsjgwYPlm2++kU6dOsnAgQOlqKhIKlSoECpine74xz/+URYsWCBbt24VDd/q1asnF110kdx4441yyimnuKrzvn37ZM6cOTJr1ixZs2aNKaegoEDatGkjffv2lRYtWrgqZ9euXfLyyy+b8G/z5s2mnNq1a5sgsE+fPtKkSZNQ+VEZBBBAAAEEEEAAAQQQQCAMAnEPQDg+f3rZeQ3e8qcgSnElEPoAq6SkRJYtWybff/+9PP/882YqoW4a6NStW9cEWY0bN055sLVq1TKBTc2aNV2hZLLThx9+KA888IDs3r3b9uWVKlWSnj17ym233ZZyBNm3334rw4cPN8GV3abldOvWzawHlmox+6VLl5r6qJtTOQMGDDDBWsWKFTM5ZF6DAAIIIIAAAggggAACCMRSgIDHn2bNVcAT9/bzp3WiV0roAyzrIu6Z8mrIVVxcLIWFhZkWkfJ1ixcvNoGShm0aMLVu3VquuOIKqVKliixatEj+/ve/i46q0k3X8Bo2bJhUrlz5mDJ1pJmOLlu7dq352xlnnCHXXnutGTW1cOFCefvtt8176KaL2d999922I7G+/PJL8zddPyy5PjoaS+uko7H0b1qX7t27B+JCoQgggAACCCCAAAIIIIBAFAXiHoBwfP70ylwFdP7UPnqlEGBl2WY6Te+uu+6S5cuXmxFROnrqF7/4RZlgacOGDWYKpAZTus/EiROlbdu2Zd5ZA6Vx48bJq6++aoIlDah0hJQ16NLRWVqOjkKrXr26TJ48WVq1alWmHA3K7rnnHvnoo4/Me2kgdv3115epz5IlS+T+++83AVfDhg1lxowZcuKJJ2YpwcsRQAABBBBAAAEEEEAAgXgIEPD40465Cnji3n7+tE70Sgl9gHXkyBHZuXOn6P9muukUuTp16gQyVW7evHkycuRIM6JJp/bde++9JoBK3qz76VTCIUOGlNlFpwz279/fhEpnnXWWCad05FXyZh3t1aVLFxkzZkyZ99ORWhpyHTx4UDp37iwPPvig7Wiv1157TcaOHWvqfcstt5j/2BBAAAEEEEAAAQQQQAABBETiHoBwfP708lwFdP7UPnqlhD7ACjPp0aNH5aGHHpLZs2fLcccdJ1OmTJGf/exntlVeuXKlGVGla2TpCK3Ro8s+LnXmzJnmCYu66bS+Hj162JajUwiHDh1qphQ2aNBAnn766TJrgI0fP94s3K71mTBhgrRv3962HA3KNDDT4Kxly5YydepU0bXC2BBAAAEEEEAAAQQQQACBfBcg4PGnB+Qq4Il7+/nTOtErhQArizY7cOCAvPTSS/LOO++Ytal+//vfS/369W1LtI6M0pFaOoUvsekoqBEjRsj8+fNNiPTkk09K8+bNHWs2ffp0ee6558zIq0mTJpWGVBqO3XnnnbJixQozJfCpp55yrI/1PXV0mpapa26xIYAAAggggAACCCCAAAL5LhD3AITj86eH5yqg86f20SuFAKsc2mzv3r1mXSqd/mc3MsoaPLlZcH7BggVmlJZuGlj17t3b/P9NmzaZqYBbt26V888/34zA0qc1Om0agmlwpZuuy9WhQ4dy0OAtEEAAAQQQQAABBBBAAIFwCxDw+NM+uQp44t5+/rRO9EqJVIB16NAh+eabb+Tjjz+WjRs3utbWUU19+vSRmjVrun6NHzvq2l0ffPCBPPvss6X1tXsKofVJi26Cp88++0zuuOMO2b9/f5npiOmmKSYf05tvvmnW70oOwvw4dspAAAEEEEAAAQQQQAABBKIqEPcAhOPzp2fmKqDzp/bRKyUyAdaqVavMNLt169Z5VnYzqslzoSle8P7778ugQYPK7KEjoX7729/KDTfccMyi6tbgyU2A5RRUWd/Xbp2t5Cpb97eO5PLTgrIQQAABBBBAAAEEEEAAgagJEPD402K5Cnji3n7+tE70SolEgLVlyxYZOHCgrF27NiPh8g6wXnjhBbMounXT9aratWtnjqNp06Zl/uZ15JR1/4svvlieeOIJqVKlingNpKz72z0ZMSNsXoQAAggggAACCCCAAAIIRFwg7gEIx+dPB81VQOdP7aNXSiQCLH3Snv6nW926daVfv35ywQUXpFzfydoUFStWFF2oXP+3PLY5c+aY6X316tUTHTk2b9680imEOhJLn0B4ySWXlFYlmwDLOmIrmwDLzYitIO00pGRDAAEEEEAAAQQQQAABBHIp0KhRI/P25R3wlNf3IY7P396VCLDKq/38rX3wpSX6m1/vFPoAS4OgIUOGmAXQTzrpJPOkvxNOOMGv4y+XcvQJhf/zP/9jnhyoT/9r2LChzJgxwzwpULdsAqy4jMDiA18uXZE3QQABBBBAAAEEEEAAgRQCBDz+do/yDnji3n7+tk7wpeVdgGVd4Lxv375y2223Ba8cwDvoAvQPPPCAGY2lm3XNKdbACgCcIhFAAAEEEEAAAQQQQACBDAXKewRWhtXM+GUcX8Z0ZV7IFEJ/HN2WEvoRWNYA66GHHpKuXbu6PbbQ7adT/IYOHWpGYVlHTmXzFMJu3brJ/fffb47V60gu61MIddH5Xr16hc6MCiGAAAIIIIAAAggggAAC5S1AwOOPeK4Cnri3nz+tE71SQh9g7du3T+666y755JNPyoxaih512YDJunbV7t27zbGtWLHCTJMsLi4262c5bQsWLJBhw4aZP1tHcm3atEluueUW2bp1q7Rt21bGjx8v1apVcyxHpzROnz7d/H3ixInSoUOHKLJSZwQQQAABBBBAAAEEEEDAV4G4ByAcnz/dJVcBnT+1j14poQ+wlDSxiHv79u1l3LhxUrVq1VBIb968WR5++GFZt26dNG/eXB577DHzNECnzWmqoI7IGjFihMyfP98sNq+h0hlnnOFYjv5dwyd9suGkSZNEXXTzEoR5fc9QgFMJBBBAAAEEEEAAAQQQQKAcBAh4/EHOVcAT9/bzp3WiV0okAqy1a9fKgAEDZOfOnTJmzBjp3LlzKKR37Nhhnoi4fv16adCggQnaGjdu7Fg365Q969Q/fcHMmTPl0UcfNa9NNVVSR6QNHjxYli5davueOurq5ZdfNiOvpk2bJueee65tfbZt2ya33nqrbNiwQVq2bClTp06VWrVqhcKVSiCAAAIIIIAAAggggAACuRSIewDC8fnTu3IV0PlT++iVEokAS1l12tzIkSONcJ8+feTaa6+VwsJCqVChQs7Ujx49asKm2bNnmzrcfvvtpm52ddq1a5eZCrl8+XI57rjjZMKECaUjp/S1a9askf79+4uGYq1btzZ/r1GjxjHHpk9j1PWq9MmGXbp0MYGejsRKbAsXLjQB18GDB+Xqq6+W++67TypXrnxMOa+99pqMHTvWrMel0w71PzYEEEAAAQQQQAABBBBAAAERAh5/ekGuAp64t58/rRO9UkITYFkXMvebsaioyKwrpYGX39unn35qgqkff/zRTG0cNWqUXH755WVCLJ3a98gjj8g777xj3r5jx45mtJV1KqQGSToFcdasWWYfHaGlC75b9/n2229NOKUjvqpXry6TJ0+WVq1alTkk6wgtDbY0FOvdu7dUrFixdL8lS5aYhd81LGvYsKHMmDFDTjzxRL9pKA8BBBBAAAEEEEAAAQQQiKRA3AMQjs+fbpmrgM6f2kevFAKsLNtMR2G9+OKL8uSTT5rRTBoa6QiqK664wkzjW7ZsmcybN0/27Nlj3qlp06YyZcoUadSo0THvvGXLFhk4cKDolEndNHi75pprzLTEjz/+WObOnSsaUOmmTwy8++67bUd7ffnll+ZvGlDpputp6Yg1HdGlT0LU0WyJuupi8N27d89SgZcjgAACCCCAAAIIIIAAAvERIODxpy1zFfDEvf38aZ3olRKaAEvDluHDh5sn6Pm96fpUjz/+eMon+2XznkeOHJFXXnnFrDmlU/ucNh0tpSOx6tev77jPqlWrzILuujC83aYBmY7O0mmEqRaz16mEOhrshx9+cCxH1xW78cYby4zOysaB1yKAAAIIIIAAAggggAACcRCIewDC8fnTS3MV0PlT++iVEpoAK3p0x9ZYw7c///nPZoST/n8d5VS7dm1p0aKF3HTTTWZklnUqn9Mx6yirOXPmmOmEujaWllNQUCBt2rSRvn37mvLcrP2l627pgu46ckufmJioj05h1LW6mjRpEgd2jgEBBBBAAAEEEEAAAQQQ8FWAgMcfzlwFPHFvP39aJ3qlEGBFr82oMQIIIIAAAggggAACCCCAQIACcQ9AOD5/Ok+uAjp/ah+9Ugiwotdm1BgBBBBAAAEEEEAAAQQQQCBAAQIef3BzFfDEvf38aZ3olRL7AOvAgQOiTwo888wzpWbNmtFrIWqMAAIIIIAAAggggAACCCBQrgJxD0A4Pn+6U64COn9qH71SIhVgbdiwQd544w354osvZOPGjWm1Dx48KP/+97/NE/+Ki4ulsLAw7WvYAQEEEEAAAQQQQAABBBBAIL8FCHj8af9cBTxxbz9/Wid6pUQiwDp69Ki89NJLMnXqVLMQudetqKiIAMsrGvsjgAACCCCAAAIIIIAAAg4Cew58Itv2zZb9h9bIgcPbsnKqUqm+VKt8qtQvuFpqVjkvq7L8enHcAxCOz5+ekquAzp/aR6+USARYK1eulAEDBsju3bs9CeuT+0477TTp0qWLXHPNNVK1alVPr2dnBBBAAAEEEEAAAQQQQACBsgKb9j4rW398JRCWBtV7SOMaNwdStpdCCXi8aDnvm6uAJ+7t50/rRK+USARY48ePl5dfflkqVaok1113nfzmN7+RatWqyV133WWmE95yyy3m3zTg+uabb+SZZ56R5cuXy/HHHy9PPvmkNG3aNHotQ40RQAABBBBAAAEEEEAAgZAJ6Mir1T/cG2itTq/7WM5HYsU9AOH4/OnCuQro/Kl99EoJfYC1b98+GTx4sCxdulTOPvtsM42wRo0aRnr69Ony3HPPSdu2bUVDLg21dCspKZFx48bJrFmzpGPHjvLoo48y+ip6fZMaI4AAAggggAACCCCAQMgE1uwcLbtKPgq0VrWrXiCn1hkd6HukK5yAJ52Qu7/nKuCJe/u504/fXqEPsLZv3y79+vUzi7b37dtXbrvtttJWWLBggQwbNkwaN25sRl3Vr1+/9G+64Hv//v3NIu4TJkyQ9u3bx6/1OCIEEEAAAQQQQAABBBBAoBwFVmy/Kes1r9JVV9fEaln4YrrdAv173AMQjs+f7pOrgM6f2kevlEgFWPfdd5+ZQpjYEmtj6SLvOlXwzDPPLP2b/ttDDz0ks2fPlquvvlpGjhwpFSpUiF4LUWMEEEAAAQQQQAABBBBAICQCcQ8+EsxxP06Oz58PFAGWP45uS4lUgKWBVNeuXUuPzTo6a+LEidKhQ4cyx/3CCy+YKYfnnXeeTJ48WXRRdzYEEEAAAQQQQAABBBBAAIHMBOIefBBgZdYvnF6Vq4AnX/qpv60V/tJCH2DpGli6WPsnn3xipg/qNMLEZv3bnXfeKb179y4j/uabb5qRV0VFRVJcXCyFhYXhbxFqiAACCCCAAAIIIIAAAgiEVCBfgoG4HyfH588HLFcBnT+1j14poQ+wrFMBzzrrLDOSqnbt2kb68OHDMmLECJk/f75ceeWVMmbMmDLTBHWBd13onQAreh2TGiOAAAIIIIAAAggggED4BOIefCTE436cHJ8/ny0CLH8c3ZYS+gBLD2ThwoXmSYQHDx40QZX+/0SIlXgSYcOGDWXGjBly4oknmmPftWuXGbm1fPlyphC67Q3shwACCCCAAAIIIIAAAgikEIh78EGA5W/3z1XAky/91N/WCn9pkQiwdKrgPffcIx999H+Pa61UqZJccskloou6f/vtt3LHHXfIjz/+aEZa3XDDDfJf//Vf8pe//EW++eYbs3/Pnj1lyJAh4W8NaogAAggggAACCCCAAAIIhFggX4KBuB8nx+fPhyxXAZ0/tY9eKZEIsJR1y5YtZuRVIpQ6//zzZcKECVKlShUZO3aszJw501a/Xr16Mm3aNGnWrFn0WocaI4AAAggggAACCCCAAAIhEoh78JGgjvtxcnz+fKgIsPxxdFtKZAIsPSAdiTV79mzRpwu2adOmdM2rvXv3yiOPPCJvv/12mePWpw6OHj3ajNZiQwABBBBAAAEEEEAAAQQQyE4g7sEHAVZ2/SP51bkKePKln/rbWuEvLVIBlpXzwIEDZvRVYjty5IhZ70pDLP1bkyZN5IorruDJg+Hvg9QQAQQQQAABBBBAAAEEIiKQL8FA3I+T4/PnA5ergM6f2kevlMgGWNGjpsYIIIAAAggggAACCCCAQLQF4h58JFon7sfJ8fnzOSTA8sfRbSkEWG6l2A8BBBBAAAEEEEAAAQQQyHOBuAcfBFj+dvBcBTz50k/9ba3wl0aAFf42ooYIIIAAAggggAACCCCAQCgE8iUYiPtxcnz+fJxyFdD5U/volRKaAGvHjh0yfPhw2bp1a8aKZ5xxhlnz6qyzZ0UknQAAIABJREFUzpJ27dqJPoGQDQEEEEAAAQQQQAABBBBAwB+BuAcfCaW4HyfH58/ngQDLH0e3pYQmwNq+fbv069dPNm7c6LbuKferVKmSXH/99XLbbbeJPo2QDQEEEEAAAQQQQAABBBBAIDuBuAcfBFjZ9Y/kV+cq4MmXfupva4W/tNgGWAn66667ToYNGyaVK1cOf2tQQwQQQAABBBBAAAEEEEAgxAL5EgzE/Tg5Pn8+ZLkK6PypffRKCU2AVVJSIsuWLZP9+/dnpXjgwAF5//33ZcGCBXL48GE57rjj5JFHHpFLLrkkq3J5MQIIIIAAAggggAACCCCQ7wJxDz4S7Rv34+T4/PkkE2D54+i2lNAEWG4r7HY/DbBGjhwpGoxddtllJsTSaYVsCCCAAAIIIIAAAggggAACmQnEPfggwMqsXzi9KlcBT770U39bK/ylxTbA0uBq6NChsnDhQjn99NNlxowZUqdOnfC3CDVEAAEEEEAAAQQQQAABBEIqkC/BQNyPk+Pz5wOWq4DOn9pHr5TYBljaFKNHj5Y5c+ZIUVGRFBcXmycUsiGAAAIIIIAAAggggAACCGQmEPfgI6ES9+Pk+DLr/8mvIsDyx9FtKbENsI4ePSqjRo2SN954gwDLbW9gPwQQQAABBBBAAAEEEEAghUDcgw8CLH+7f64Cnnzpp/62VvhLi22AtXnzZrn99ttl/fr10rZtWxk/frxUq1Yt/C1CDRFAAAEEEEAAAQQQQACBkArkSzAQ9+Pk+Pz5gOUqoPOn9tErJXYB1qFDh2TFihUyceJE+eqrr0yL3HLLLeY/NgQQQAABBBBAAAEEEEAAgcwF4h58JGTifpwcX+afAesrCbD8cXRbSmwCrJ07d8rdd98ty5cvL3PsTZs2lSlTpkijRo3cmrAfAggggAACCCCAAAIIIICAjUDcgw8CLH+7fa4Cnnzpp/62VvhLi02AtW/fPhk8eLAsXbq0VL1x48YyduxYadasWfhbghoigAACCCCAAAIIIIAAAiEXyJdgIO7HyfH580HLVUDnT+2jV0psAiylnzRpkrz77rtm0farrrpKOnXqJAUFBdFrFWqMAAIIIIAAAggggAACCIRQIO7BR4I87sfJ8fnz4SLA8sfRbSmxCrDcHjT7IYAAAggggAACCCCAAAIIeBeIe/BBgOW9T6R6Ra4Cnnzpp/62VvhLI8AKfxtRQwQQQAABBBBAAAEEEEAgFAL5EgzE/Tg5Pn8+TrkK6PypffRKIcCKXptRYwQQQAABBBBAAAEEEEAgJwJxDz4SqHE/To7Pn48PAZY/jm5LIcByK8V+CCCAAAIIIIAAAggggECeC8Q9+CDA8reD5yrgyZd+6m9rhb80AqzwtxE1RAABBBBAAAEEEEAAAQRCIZAvwUDcj5Pj8+fjlKuAzp/aR68UAqzotRk1RgABBBBAAAEEEEAAAQRyIhD34COBGvfj5Pj8+fgQYPnj6LYUAiy3UuyHAAIIIIAAAggggAACCOS5QNyDDwIsfzt4rgKefOmn/rZW+EsjwAp/G1FDBBBAAAEEEEAAAQQQQCAUAvkSDMT9ODk+fz5OuQro/Kl99EohwIpem1FjBBBAAAEEEEAAAQQQQCAnAnEPPhKocT9Ojs+fjw8Blj+ObkshwHIrxX4IIIAAAggggAACCCCAQJ4LxD34IMDyt4PnKuDJl37qb2uFvzQCrPC3ETVEAAEEEEAAAQQQQAABBEIhkC/BQNyPk+Pz5+OUq4DOn9pHr5TIBVhHjhyRhQsXyiuvvCJff/217Nixo1S9Xr16ct5558mVV14p7du3l8qVK0evRagxAggggAACCCCAAAIIIBBSgbgHHwn2uB8nx+fPB4wAyx9Ht6VEKsBav369jBo1SpYvX572+E499VR5/PHH5ZRTTkm7LzsggAACCCCAAAIIIIAAAgikF4h78EGAlb4PeNkjVwFPvvRTL20Rh30jE2B99dVXMnjwYPn+++/LuBcUFEjdunVl+/btUlJSUuZvOiJr0qRJ0qJFizi0FceAAAIIIIAAAggggAACCORUIF+CgbgfJ8fnz8coVwGdP7WPXimRCLD27t1rwqtly5YZ4TPPPFNuvvlmueCCC6RKlSql6gcOHJCPPvpInn32WdHAS7fWrVvLhAkTpEaNGtFrHWqMAAIIIIAAAggggAACCIRIIO7BR4I67sfJ8fnzoSLA8sfRbSmRCLDmzZsnI0eOlMOHD0u3bt1k6NChUrVqVcdj1JFY48aNk1mzZkmlSpXkoYceks6dO7s1YT8EEEAAAQQQQAABBBBAAAEbgbgHHwRY/nb7XAU8+dJP/W2t8JcW+gBLQ6sRI0bI/PnzRde1mjFjhujUwHSbLu7ev39/WbNmjVx22WXyyCOPmDCLDQEEEEAAAQQQQAABBBBAIDOBfAkG4n6cHF9m/T/5VbkK6PypffRKCX2AtXPnThNErV69Wvr27Su33Xaba+Xp06fLc889Jy1btpSpU6dKrVq1XL+WHRFAAAEEEEAAAQQQQAABBMoKxD34SBxt3I+T4/Pnk02A5Y+j21JCH2Dp4uz9+vWTjRs3mqmAXbt2dXts8uabb5qph0VFRVJcXCyFhYWuX8uOCCCAAAIIIIAAAggggAACBFhB9oFcBSAEWP60aq7az5/aR6+USAVYgwYNkl69erlWfuGFF8zIKwIs12TsiAACCCCAAAIIIIAAAgg4CsQ9+EgceNyPk+Pz50NOgOWPo9tSQh9g7du3zzyBcOnSpdKlSxcZM2aMq7WsdO2sUaNGydy5c+X88883TyIsKChw68J+CCCAAAIIIIAAAggggAACSQJxDz4IsPzt8rkKePKln/rbWuEvLfQBlhIm1rKqXr26TJ48WVq1apVWdvHixaIjtvSJhD179pQhQ4akfQ07IIAAAggggAACCCCAAAIIOAvkSzAQ9+Pk+Pz5lOcqoPOn9tErJRIB1sqVK2XAgAGye/du8wRCHYXVrl07qVChwjHiR48elUWLFpnRV/okQg29pk2bJmeffXb0WocaI4AAAggggAACCCCAAAIhEoh78JGgjvtxcnz+fKgIsPxxdFtKJAIsDaWef/55+f3vf196XCeffLJccskl0qxZs9J/W7VqlSxYsEDWrVtX+m8333yz/O53v7MNu9wisR8CCCCAAAIIIIAAAggggIBI3IMPAix/e3muAp586af+tlb4S4tEgKWMhw4dkvHjx8vrr78uur5Vuu3/Y+9eoKuq7n2P/0NiKJFnmgaBAFUUq4AKyEFpAesTrYcKKrVUoQMz7EAr75cgIlJBkFdBoGqkB3RYaitaagtV5KiMAwKiHAk+8CAIUQQiEkA4AULumPPelbsTssneyX9n7TXXd4/hqNesPfean/9/7XPnb8y1dmpqqtx22232NsK6detWdTh/RwABBBBAAAEEEEAAAQQQqEIgLMGA6/NkfjqXul8Bnc7ZB2+UwARYhvb06dPy5ptvyoIFC6SgoCCqtvnVQXPL4XXXXSd16tQJXlU4YwQQQAABBBBAAAEEEEAgCQVcDz48ctfnyfx0Li4CLB3HWEcJVIDlTcrcUlhYWCjm2VjmdkETZpnQytxWeMkll0hWVha3DMbaARyHAAIIIIAAAggggAACCMQo4HrwQYAVYyPEeJhfAU9Y+jTGMjhzWCACLLPrauvWrfLLX/5SmjZt6gw+E0EAAQQQQAABBBBAAAEEgiQQlmDA9XkyP52rzq+ATufsgzdK0gdYJ06ckLFjx8ratWulW7du8uSTT/JMq+D1GWeMAAIIIIAAAggggAACDgi4Hnx4JXJ9nsxP52IkwNJxjHWUpA+wzK2Cubm59jZB80D2/v37xzo3jkMAAQQQQAABBBBAAAEEEFAUcD34IMBSbBYR8SvgCUuf6lYr+UdL+gDr4MGDNsDavXu3jB8/Xvr27Zv8qpwhAggggAACCCCAAAIIIOCgQFiCAdfnyfx0Lk6/Ajqdsw/eKEkfYJWUlMikSZNk1apV0rNnT5k6dSq3EAavzzhjBBBAAAEEEEAAAQQQcEDA9eDDK5Hr82R+OhcjAZaOY6yjJH2AZSayd+9eGTlypGzfvl2uueYaGTp0qP3VwZSUlFjnyXEIIIAAAggggAACCCCAAAI1FHA9+CDAqmGDVHi7XwFPWPpUt1rJP1rSB1jFxcWyefNmOXDggCxZssTeSmheGRkZ0qRJExtktWjR4qzSDRs2lIEDB0qDBg2SvyKcIQIIIIAAAggggAACCCCQpAJhCQZcnyfz07nA/ArodM4+eKMkfYAV+RD36vKakCsvL0+ysrKqOwTvQwABBBBAAAEEEEAAAQRCL+B68OEV2PV5Mj+dS5kAS8cx1lEIsGKV4jgEEEAAAQQQQAABBBBAIOQCrgcfBFi6De5XwBOWPtWtVvKPlvQB1unTp+XQoUNi/re6rzp16kjjxo3F/C8vBBBAAAEEEEAAAQQQQCDRAkdOvC/7j62Q46d2yImS/TX6uPTUbKmX1kayM3pLg/RONRqrpm8OSzDg+jyZX02vhP/7fr8COp2zD94oSR9gBY+UM0YAAQQQQAABBBBAAIEwC3x59DnZ991LCSFoem4/aVH/3oSMHcugrgcfnoHr82R+sXR71ccQYFVtpHkEAZamJmMhgAACCCCAAAIIIIBAqAXMzqvPvn0ooQYXNZnm204s14MPAizd1vUr4AlLn+pWK/lHC2yAZW4r/OSTT2TPnj3yxRdfSLt27SQ7O1suueQS+wuFvBBAAAEEEEAAAQQQQACB2hbYcehRKSpen9CPbVT3amnT+NGEfka0wcMSDLg+T+anc/n4FdDpnH3wRglUgGWeg/Xmm2/K008/Lbt27apUOzU1VS699FJ58MEHpWPHjpKSkhK8qnDGCCCAAAIIIIAAAgggEEiB/MJ7avzMq6ombp6J1T7r+aoOS8jfXQ8+PDTX58n8dC4PAiwdx1hHCUyAdfToUZkwYYL813/9V0xzM0FW//795YEHHpC0tLSY3sNBCCCAAAIIIIAAAggggEBNBAgGaqL3/9/rdzBAHYNdR9frp1Od4I0SiADr1KlT8sgjj8jrr79uhU04dfHFF8uPf/xjufDCC8vUP/30U3nrrbfsLYUlJSX2OBNg3XPPPezECl5vcsYIIIAAAggggAACCAROwPWFs+vz8xrO9XkyP52vFr+DVp1ZBGeUQARYa9assbuvTp48KS1atJBp06bZ2wQre5WWlsp7770nv/vd7+TLL7+Uc889V+bPny+XXXZZcKrCmSKAAAIIIIAAAggggEAgBQgGdMrmdzBAHYNdR9frp1Od4I2S9AGW2UllwqvVq1dLZmamzJkzxz6wvapXfn6+DBkyRA4fPiz9+vWT0aNHswurKjT+jgACCCCAAAIIIIAAAjUScH3h7Pr8vOK7Pk/mV6PLvOzNfgetOrMIzihJH2CZXxscPHiwfPbZZ3EFUWYn1pNPPikvvfSStG/fXubNmycNGzYMTmU4UwQQQAABBBBAAAEEEAicAMGATsn8DgaoY7Dr6Hr9dKoTvFGSPsAqLCyU3NxcKSgokClTpsjNN98cs/Ly5ctl6tSpkpOTI3l5eZKVlRXzezkQAQQQQAABBBBAAAEEEIhXwPWFs+vz8+rt+jyZX7xXduXH+x206swiOKMkfYAVuQPL3BI4YMCAmHVffPFFmT17trRq1coGWOYWRF4IIIAAAggggAACCCCAQKIECAZ0ZP0OBqhjsOvoev10qhO8UZI+wDLPwJo0aZKsWrVKunTpIrNmzZKMjIwqpSPf16tXL5k8ebL9VUJeCCCAAAIIIIAAAggggECiBFxfOLs+P68vXJ8n89P5BvA7aNWZRXBGSfoAy1Bu27ZNhg8fLkVFRfZ5WGYXVp06dc6qbH65cOLEiZKWliZz586Vjh07BqcqnCkCCCCAAAIIIIAAAggEUoBgQKdsfgcD1DHYdXS9fjrVCd4ogQiwDKsJpB599FEpLi6Wnj17yrBhw6R58+ZniB87dsw+uP3ZZ5+VU6dO2V8i7N+/P79AGLze5IwRQAABBBBAAAEEEAicgOsLZ9fn5zWc6/NkfjpfLX4HrTqzCM4oSR9gHTlyRJYsWSKHDx+WnTt3ygcffFCma55pZR7QfuGFF8q3334rH3/8sRw4cEDM7YOxvHi4eyxKHIMAAggggAACCCCAAAKxChAMxCp19uP8DgaoY7Dr6Hr9dKoTvFGSPsCK/BVCbV4CLG1RxkMAAQQQQAABBBBAINwCri+cXZ+f172uz5P56XxP+R206swiOKMkfYB18OBBGTdunOzbt09dtWnTpvLEE0/w64TqsgyIAAIIIIAAAggggEA4BQgGdOrudzBAHYNdR9frp1Od4I2S9AFW8Eg5YwQQQAABBBBAAAEEEAirgOsLZ9fn5/Wt6/NkfjrfUH4HrTqzCM4oBFjBqRVnigACCCCAAAIIIIAAAkkuQDCgUyC/gwHqGOw6ul4/neoEbxQCrODVjDNGAAEEEEAAAQQQQACBJBVwfeHs+vy8tnJ9nsxP5wvE76BVZxbBGYUAKzi14kwRQAABBBBAAAEEEEAgyQUIBnQK5HcwQB2DXUfX66dTneCNQoAVvJpxxggggAACCCCAAAIIIJCkAq4vnF2fn9dWrs+T+el8gfgdtOrMIjijEGAFp1acKQIIIIAAAggggAACCCS5AMGAToH8DgaoY7Dr6Hr9dKoTvFEIsIJXM84YAQQQQAABBBBAAAEEklTA9YWz6/Pz2sr1eTI/nS8Qv4NWnVkEZxQCrODUijNFAAEEEEAAAQQQQACBJBcgGNApkN/BAHUMdh1dr59OdYI3CgFW8GrGGSOAAAIIIIAAAggggECSCri+cHZ9fl5buT5P5qfzBeJ30Kozi+CMQoAVnFpxpggggAACCCCAAAIIIJDkAgQDOgXyOxigjsGuo+v106lO8EYhwApezThjBBBAAAEEEEAAAQQQSFIB1xfOrs/PayvX58n8dL5A/A5adWYRnFGSPsAqLi6WzZs3y/Hjx6VDhw6SnZ0ds+7OnTvlhRdekH379sljjz0mmZmZMb+XAxFAAAEEEEAAAQQQQACBeAUIBuIVq/x4v4MB6hjsOrpeP53qBG+UpA+wCgsLJTc3VwoKCmT27NnSo0ePmJXfeecdGTFihOTk5EheXp5kZWXF/F4ORAABBBBAAAEEEEAAAQTiFXB94ez6/Lx6uz5P5hfvlZ2cQavOLIIzitMB1sKFC2Xx4sUEWMHpR84UAQQQQAABBBBAAIFACxAM6JSPHVg6jtFGoU91fP3uU51ZBGeUpAmw/vd//1f+9Kc/yd69e8vpmf/+9ttvy3fffSdXX321NGvWLCbdPXv2yPvvvy8lJSXSvn17mTdvnjRs2DCm93IQAggggAACCCCAAAIIIFAdAYKB6qid+R6/gwHqGOw6ul4/neoEb5SkCbAMnbnl76GHHhLz3CvNV//+/WX48OGSkpKiOSxjIYAAAggggAACCCCAAALlBFxfOLs+P6+Yrs+T+el8cfkdtOrMIjijJFWAderUKZk6daqsWLFCRTA1NVVuuukmGTNmjNSvX19lTAZBAAEEEEAAAQQQQAABBKIJEAzo9IbfwQB1DHYdXa+fTnWCN0pSBViG78SJE3L48OEyyYMHD8qoUaPkq6++ksmTJ0vXrl1jUk5LS5NGjRqx6yomLQ5CAAEEEEAAAQQQQAABDQHXF86uz8/rAdfnyfw0rnYRv4NWnVkEZ5SkC7Aq0tXkVwiDUwbOFAEEEEAAAQQQQAABBFwQIBjQqaLfwQB1DHYdXa+fTnWCN0rSB1inT5+WQ4cOiflf8xD29PT04ClzxggggAACCCCAAAIIIBAKAdcXzq7Pz2tS1+fJ/HS+jvwOWnVmEZxRkj7AOnLkiCxZssTeVnj77bfLxRdfHLPuBx98YG87rFOnjjzzzDOSlZUV83s5EAEEEEAAAQQQQAABBBCIV4BgIF6xyo/3OxigjsGuo+v106lO8EZJ+gCrJrcQrlmzxj7APScnR/Ly8giwgtefnDECCCCAAAIIIIAAAoEScH3h7Pr8vGZzfZ7MT+drxe+gVWcWwRnF2QDL3HI4ffp0efnllwmwgtOPnCkCCCCAAAIIIIAAAoEWIBjQKZ/fwQB1DHYdXa+fTnWCN0rSBFj/+7//KzNmzJDNmzeXUywpKZEDBw6I+d/MzEypV69eTMpHjx6VoqIie2ynTp1k7ty5kpGREdN7OQgBBBBAAAEEEEAAAQQQqI6A6wtn1+fn1dz1eTK/6lzdZ77H76BVZxbBGSVpAixDlp+fL0OGDLHPu9J6paam2jF/9atfaQ3JOAgggAACCCCAAAIIIIBApQIEAzqN4XcwQB2DXUfX66dTneCNklQBVmlpqfzhD3+Q5557rsaSdevWlebNm8udd94pffv2lbS0tBqPyQAIIIAAAggggAACCCCAwNkEXF84uz4/r7auz5P56XyP+R206swiOKMkVYBVGVtNHuIenDJwpggggAACCCCAAAIIIOCCAMGAThX9DgaoY7Dr6Hr9dKoTvFEIsIJXM84YAQQQQAABBBBAAAEEklTA9YWz6/Pz2sr1eTI/nS8Qv4NWnVkEZ5SkD7CCQ8mZIoAAAggggAACCCCAQNgFCAZ0OsDvYIA6BruOrtdPpzrBG4UAK3g144wRQAABBBBAAAEEEEAgSQVcXzi7Pj+vrVyfJ/PT+QLxO2jVmUVwRnE6wDp16pTs3r1b1qxZYx/knpmZGZzKcKYIIIAAAggggAACCCAQOAGCAZ2S+R0MUMdg19H1+ulUJ3ijBCbAOn36tLz11lvywgsvyBdffCFFRUUxa+fk5EheXp5kZWXF/J7qHLhv3z55+eWXbWC2Z88eKSkpEfNriD/84Q/llltukdtuu03OPffcKoc+duyYvPbaa/Lqq6/Kjh077DgZGRly5ZVXyqBBg6Rdu3aSkpJS5TjGaNmyZbJq1Sr56quv7DiNGjWSnj17ysCBA6V169ZVjsEBCCCAAAIIIIAAAgggELuA6wtn1+fnVdr1eTK/2K/psx3pd9CqM4vgjBKIAMvspJoxY4YsX768WrKJDrDM+b344ovy9NNPS3FxcdRzbNKkiUyePFm6desW9ZidO3fKuHHjbHBV2Ss1NdUGYSNGjLDhWLTXpk2b5JFHHpEDBw5EHeeBBx6Qu+++W+rUqVMtV96EAAIIIIAAAggggAAC5QUIBnQ6wu9ggDoGu46u10+nOsEbJRAB1oYNG2xg44VDJsT5/ve/L998843dVeTdGnjw4MFyFWjRooX06tVLrrnmGrn44osTEtSUlpbK888/LwsWLLDnYs7t8ssvlxtuuMGe16effiqvv/66FBQU2HMzodO0adOkR48eZ3TL3r17ZejQofL555/bv7Vt21b69Oljd02tW7dO3njjjTKD/v37y/DhwyvdibVt2zb7N+Nhzqdz585y0003SXp6ut2N9e6775ad65gxY+T2228PXudyxggggAACCCCAAAIIJKGA6wtn1+fntZTr82R+Ol8efgetOrMIzihJH2CZgGjKlCmyYsUKG/6YwOXf//3f5eTJkzJ69Ggb7Nx1110yatQoq25Cm2effdbu1vre974nc+fOlY4dOyasIman1ODBg+3nNmzYUB599FHp3r17uWDJ7NBavHixPPfcczY46tChgz0vE0x5L/Pfn3zySfnrX/9qQycTUJkdUmlpaWXHmN1ZI0eOtM/1MrciVjY3c/vh2LFjZf369dbLBGJ33nlnufPZuHGjPPzww/aczzvvPFm0aJG0bNkyYUYMjAACCCCAAAIIIIBAWAQIBnQq7XcwQB2DXUfX66dTneCNkvQBlglkhg0bJu+//7699c6EPN6tcyYUWrhwoXTq1MmGOeY5UeZlQq8lS5bIU089VWlYpFmmZ555Rsw/5jVkyBAZMGBApcOb3WNe4GYCKjOPyF1YkUFYZQGXN2jkbjSzu8zckmjG814m0DMhlwn4brzxRnnsscfKhWDeceZZXea2TBOc3XffffYfXggggAACCCCAAAIIIFAzAdcXzq7Pz6u+6/NkfjW7zr13+x206swiOKMkfYBVWFgoubm59ha8+++/3z7EPDKsMbfKmYezmxDJ3DLovczuIrMzateuXXYHlwlztF/Hjx+3O79MqNS0adMzzqHi561cuVImTpxYadhldoxNnTrV/s3sMuvXr1+lpxsZhFX2mTNnzrQPbj/nnHNk1qxZUZ+35fmY4Kx9+/Yyb948u4OMFwIIIIAAAggggAACCFRfgGCg+naR7/Q7GKCOwa6j6/XTqU7wRglUgGWCqJtvvrlMefv27TbUMqHO/Pnz5YorrihXAS/Muf766+Xxxx8vt1NJo1QmBDIPXDe/8JednW13gZ0tBHrnnXfss7zMK3K3ltkFNWHCBFm9erV9v3me1iWXXBL1FM2uM7P7zOy8mjNnTllIdfjwYTtufn6+vSXQPFTenFdlr8jPbNy4sd3JZp65xQsBBBBAAAEEEEAAAQSqL+D6wtn1+XmVd32ezK/613gyBa06swjOKIEKsMaPHy99+/Yt043cnWVuh7v22mvLyZtfBpw9e3bS7DBaunSp3elkXibIMs+5Mq/I4CmWX0xcs2aN3aVVMQj78ssv7a2A+/btky5dutgdWN5tlZW1pHcLpvmbcarswfLBaWXOFAEEEEAAAQQQQAAB/wUIBnRqwA4sHcdoo9CnOr5+96nOLIIzStIHWOYZWOaZTps2bbK3D5odV94r8m8Vby80x3i35cUSCiW6ZEePHrW7oz788EOpV69euR1jkUFcLMHTli1b5MEHHxRzC+Ott95qHxxvXh9//LF98LsJxCL/e7S5ne2WxkR7MD4CCCCAAAIIIIAAAi4KEAzoVNXvYIA6BruOrtdPpzrBGyXpAyxD6t0K2KpVK/tg9ubNm1tp87D2SZNpcQyqAAAgAElEQVQmyT//+U+p7DZB71a7ZAiwIh+aXjGkigyeYgmwogVVkbcoxhJgRbulMXhtzBkjgAACCCCAAAIIIJAcAq4vnF2fn9dFrs+T+el8X/gdtOrMIjijBCLAMruWzI6j7777Ti699FK7I8v8Ul+dOnXEuy3PPDvK3J5nHkhuXrt377a/Xmj+t2vXrjYEMzuf/Hht27ZNzMPmzTOzzC8omtv1zDl5r3h3TkUe3717d5k+fbqkp6dLvIFU5PF33XWXfSA9LwQQQAABBBBAAAEEEKi+AMFA9e0i3+l3MEAdg11H1+unU53gjRKIAOvUqVNinnFlbgn0XuYh5+bB7d988439tUEvHLr66qttmLN+/Xo5cuSIPdw8F8r848crMrwyD103t/jdc889kpKSohJgRe7YqkmAFcuOrUT67d27N5HDMzYCCCCAAAIIIIAAAgkVaNasmR2/thfOtfX/j3Z9fl5zuD5P5qf7NeAFrbV1HeqefeJH8/pN65MCEWCZyZpnSJlfEnzjjTfs3L3gxuyqev755+0v95lf1qv4uuCCC+T3v/+9aMPFUoCNGzfKww8/bMM1E1716dPH7nJKS0sr93Z2YIlwwcfSURyDAAIIIIAAAgggkKwCBAO6lfErGKCOwa6j6/XTrU7iR9POYQITYBla88wrs6PJ/Hpedna2jBs3zoqbHVpLliyRZ555plyI9cMf/tCGXhdffHHiKxPxCeY833zzTXnsscfEPGjehFfmFwfN7quK4ZV5G8/AqtXy8GEIIIAAAggggAACCCRMoLZ3YCVsIlEGdn1+3rRdnyfz07ly/L7VVWcWwRklUAFWVaxFRUXy3//933Ly5Em746pt27aVBkZVjVOTv1cM07zbBu+++277zK7KXjX5FcLbbrvN7vKqGITFcktg5K8QjhgxwoZsvBBAAAEEEEAAAQQQQKD6AgQD1beLfKffwQB1DHYdXa+fTnWCN0rSB1gmEDp8+LA0adKk3HOjkpHa7LYyD4v/xz/+YXeCZWRkyNixY+WWW24567mb+Q0ZMkTy8/PF/NJiXl6eZGZmRp3imjVrZMyYMfbv5n0DBgyw//7ll1/aZ33t27cvpgfXm51s5pcazcs8WL5Hjx7JyMo5IYAAAggggAACCCAQGAHXF86uz89rNNfnyfx0vlL8Dlp1ZhGcUZI+wPJ2J50+fVpuuOEGMTuLWrduHXU3k1/0JoQyO6HWrVtnT+EHP/iBvYXQPKurqpcJuyZMmCCrV6+Wxo0b21DJ7B6L9jJ/N+GT2d01Z84c6datmz00niAs3s+sag78HQEEEEAAAQQQQAABBGr/Ie61be568EGApdtRfgU8YelT3Wol/2iBCbAKCgrKNM3Opu7du8udd94p7du3r/XbBCuW1Txg3uy02rBhg/2T2UU1a9YsOf/882PuAPMLi1OnTrXHT5kyRW6++eZK32t2eY0cOVI2bdokTZs2tc/9atGiRdmxZgfYsmXLxDzc3vxK4xVXXFHpOPv375ff/OY3smfPHms4b948adiwYczny4EIIIAAAggggAACCCBwpoDrC2fX50eApXtVE2DpeoZ9tKQPsIqLi2Xp0qXy97//Xb766qsz6lW3bl3p3Lmz9O7dW6666iqpX79+rdbU3OI4Y8YMMQGUeZkwyPy/zUPm43nt2LFDBg8ebH+x0MzHBGCVzcWEZOZ5VcalV69eMnnyZLsTy3uZHWAm4DLPATMm48ePrzTge/nll+15mp1Y5rZD8w8vBBBAAAEEEEAAAQQQqJmA6wGP6/MjwKpZ/1d8NwGWrmfYR0v6ACuyQCbcWbt2rbzyyiv2l/tM+BL5MkGO+cXB22+/3e7QOttzpLQKHxkEXXDBBfL73//ePkA+3peZy7Rp0+TVV1+1bzUPZx89erSYgM577dy504ZTu3fvlnPPPVfmzp0rHTt2LPdRkTu0jIcJxcwzsiIfIL9x40Z7u6PxPO+882TRokXSsmXLeE+Z4xFAAAEEEEAAAQQQQKCCgOsBj+vzI8DSvaQJsHQ9wz5aoAKsyGKZnU8mxHrttdfkP//zP20YU/HVvHlz+9ysn//85zagSUlJUa23+UwTEJndU+bVrl07G6DF8jLHmvOKfO3du1eGDh0qn3/+uf3POTk59hhzi+B7770nq1atEhNQmZf5xcDhw4dXOqdt27bZv3km5nlaffr0sTu63nnnHTEPgTeBmQm4zMPgTeDHCwEEEEAAAQQQQAABBGou4HrA4/r8CLBqfg1EjkCApesZ9tECG2BFFq60tFRM+GMegm4CrS+++KLc7iwTBJlf9svKylKttwmDzC6pijvBYvkQ8zD6Rx999IxDP/30U/tA9127dlU6jAmdzO4scxth5O6sigebWwknTZok3377bdRxHnjgAbn77ruT7oH4sfhxDAIIIIAAAggggAACySjgesDj+vwIsHSvKgIsXc+wj+ZEgOUV0exOys/PtzuV/vWvf9nnRJlXogIs82wu8/Dz6ryiBVhmLDMPE8SZ2wnN7i4TkJkH11955ZUyaNAgu9Mrlt1kRUVF9oHuxsM8P8yM06hRI+nZs6cMHDjQ/pojLwQQQAABBBBAAAEEENATcD3gcX1+BFh614IZiQBL1zPsowU6wDJBz5YtW+SNN96wvwBoflmvspf5VUCzA6s2nokV9oZi/ggggAACCCCAAAIIhFnA9YDH9fkRYOlevQRYup5hHy1QAdahQ4fkww8/tM+8OltgZW6tM8+iuu666+xuI/MsrMiHmIe96MwfAQQQQAABBBBAAAEEEiPgesDj+vwIsHSvCwIsXc+wj5b0AdaRI0dk4cKF8vbbb0fdYeUFVtdcc4399UFzaxyBVdhbm/kjgAACCCCAAAIIIFD7Aq4HPK7PjwBL95ohwNL1DPtoSR9gFRYWSm5urhQUFJTVyjwPqkOHDtK1a1f5yU9+IuYWwbS0tLDXkvkjgAACCCCAAAIIIICAzwKuBzyuz48AS/cCIsDS9Qz7aIELsMyv8LVp08YGV7169SK8CnsHM38EEEAAAQQQQAABBJJIwPWAx/X5EWDpXkwEWLqeYR8t6QMs86D2P/7xj/ZXBc0v6VV8mUDrkksukRtuuIHnXYW9m5k/AggggAACCCCAAAI+C7ge8Lg+PwIs3QuIAEvXM+yjJX2AFVmgWH510DwP6/LLL5frr79errrqKmnWrJmkpKSEvc7MHwEEEEAAAQQQQAABBGpBwPWAx/X5EWDpXiQEWLqeYR8tUAFWxWJ5v0podme9++67UlRUdEY9zfOyzIPdx40bJw0aNAh7vZk/AggggAACCCCAAAIIJFDA9YDH9fkRYOleHARYup5hHy3QAVbF4h08eNAGWatWrZItW7aI2bFlXjk5OZKXlydZWVlhrzfzRwABBBBAAAEEEEAAgQQKuB7wuD4/Aizdi4MAS9cz7KM5E2CdOnVKdu/ebcOrt956S7744gspKSkhwAp7hzN/BBBAAAEEEEAAAQRqUcD1gMf1+RFg6V4sBFi6nmEfLbABVmlpqezdu9fuuHrttdfk008/leLi4jPqmZ2dbR/w/pvf/EbM7YS8EEAAAQQQQAABBBBAAIFECbge8Lg+PwIs3SuDAEvXM+yjBSrAOnr0qLz//vv2FwnXrl1bdotgZBG9XyXs06ePffZVZmZm2GvM/BFAAAEEEEAAAQQQQKCWBFwPeFyfHwGW7oVCgKXrGfbRkj7AMruqli5dKn//+9/lq6++qrRe3oPaf/azn8mVV14p6enpYa8r80cAAQQQQAABBBBAAAEfBFwPeFyfHwGW7kVDgKXrGfbRkj7AKiwslNzcXCkoKChXq+bNm9tbA2+99VZp3bq11KlTJ+y1ZP4IIIAAAggggAACCCDgs4DrAY/r8yPA0r2ACLB0PcM+WmACLPO8q0suuUS4NTDsLcv8EUAAAQQQQAABBBBIXgHXAx7X50eApXttEWDpeoZ9tKQPsMwthP/zP/8jF110EbcGhr1bmT8CCCCAAAIIIIAAAkku4HrA4/r8CLB0LzACLF3PsI+W9AGWRoFOnTplbzHkNkMNTcZAAAEEEEAAAQQQQACBaAKuBzyuz48AS/faJsDS9Qz7aIELsI4cOSK7d++Wr7/+usramV8tXL9+vezatUueeuopycrKqvI9HIAAAggggAACCCCAAAIIVFfA9YDH9fkRYFW38yt/HwGWrmfYRwtMgGVCq0mTJsnWrVvjrllOTo7k5eURYMUtxxsQQAABBBBAAAEEEEAgHgHXAx7X50eAFU+3V30sAVbVRhwRu0AgAqyDBw/Kb3/7W9m+fXvsM4s4sm3btnYHVmZmZrXez5sQQAABBBBAAAEEEEAAgVgEXA94XJ8fAVYsXR77MQRYsVtxZNUCgQiwXnrpJZkxY4adTZMmTeSnP/2pXHjhhfIf//Efsn//frn99tvt//uzzz6zIdfHH38sJSUl0q5dO5k2bZo0b968agmOQAABBBBAAAEEEEAAAQRqKOB6wOP6/AiwangBVHg7AZauZ9hHS/oA68SJEzJ27FhZu3atnHfeebJo0SJp2bKllJaWypQpU2TFihVy/fXXy+OPPy6pqam2nh999JE89NBD9jlZDzzwgNxzzz2SkpIS9lozfwQQQAABBBBAAAEEEEiwgOsBj+vzI8DSvUAIsHQ9wz5a0gdYhw4dksGDB9vdVb1795aJEyeWhVHLly+XqVOnykUXXWSDrcaNG5fVc8OGDTJixAhp2LChLFiwQC644IKw15r5I4AAAggggAACCCCAQIIFXA94XJ8fAZbuBUKApesZ9tGSPsAqLCyU3NxcKSgokCFDhsiAAQPKarZlyxZ58MEHpW7durJw4UIxz7ryXsXFxTJ69GhZt26d3HffffYfXggggAACCCCAAAIIIIBAIgVcD3hcnx8Blu7VQYCl6xn20QIVYM2ePVt69OhRVrMvv/zSBlMm5JozZ45069atXD0XL15sg62uXbvKzJkzpV69emGvN/NHAAEEEEAAAQQQQACBBAq4HvC4Pj8CLN2LgwBL1zPsoyV9gBV5C2HFHViRfxs/frz07du3XD1Xrlxpbzls1aqV5OXl8SuEYe925o8AAggggAACCCCAQIIFXA94XJ8fAZbuBUKApesZ9tGSPsCKfIh7r169ZPLkyWUPaz9+/LiMGjVKzPOu7rrrLvvvka+lS5fKvHnzJCcnxwZYWVlZYa8380cAAQQQQAABBBBAAIEECrge8Lg+PwIs3YuDAEvXM+yjJX2AZQr00ksvyYwZM+yzrswvD1577bVldfvd734nr776qlx22WU2rKpfv779W0lJiUyaNElWrVpV6UPew1545o8AAggggAACCCCAAAL6Aq4HPK7PjwBL95ogwNL1DPtogQiwvvrqK/tLhOaZV6mpqXLVVVfJoEGDpEOHDrJ69Wp7m6B5/frXv5aBAwdKenq6Db3Mrw+ah7lff/318vjjj5ft3Ap70Zk/AggggAACCCCAAAJ+Cxw58b7sP7ZCjp/aISdK9tfodNJTs6VeWhvJzugtDdI71Wismr7Z9YDH9fkRYNX0Cij/fgIsXc9oo7n6fVpxvoEIsMxJr1mzxgZVJpAyr/bt29sdV6dOnZLf/va3sn379kpraQIvs2vrxhtvrJ3O4VMQQAABBBBAAAEEEEDgrAJfHn1O9n33UkKUmp7bT1rUvzchY8cyqOsBj+vzI8CKpctjP4YAK3ar6h7p8vdpYAOs0tJSWb9+vb2VsKCgQLp37y7Tp0+3u622bdsmw4cPl4MHD55Rc/Ng9zFjxkhaWlp1+4H3IYAAAggggAACCCCAgJKA2Snw2bcPKY1W+TAXNZnm204s1wMe1+dHgKV7aRJg6XpWHM3179PABljeiZ8+fVo+/fRTOXDggPTo0aNsPrt375ZZs2bJu+++a59/lZmZKffcc4/069fPPjuLFwIIIIAAAggggAACCPgvsOPQo1JUvD6hJ9Ko7tXSpvGjCf2MaIO7HvC4Pj8CLN3LhgBL17PiaK5/nwY+wEps+RkdAQQQQAABBBBAAAEEEimQX3hPjZ95VdX5mWditc96vqrDEvJ31wMe1+dHgKV7WRBg6XpWHM3171MCrMT2D6MjgAACCCCAAAIIIIDAWQRcD0CYn077+xV8EGDp1M8bxa86un4dhqVPCbB0r0dGQwABBBBAAAEEEEAAgTgEXF9YMr84muEsh/oVfIQlGKBP6dN4BPy+Hr1zTfpfITxy5IgsWbJEDh8+HI9vuWPNLxH+6Ec/kssuu0xat24tderUqfZYvBEBBBBAAAEEEEAAAQSqL8DCufp2ke/0a0Hpev0IsHT60xuFPtX1rDhaWK7HwARYhYWFkpuba395UOP1wx/+UMaPHy+dOnXSGI4xEEAAAQQQQAABBBBAIA4B1xdczC+OZjjLoX4FHwRYOvUjwNJ1jDaa6983Feed9DuwtAMsA2B+lXDKlCly7bXX1k5X8SkIIIAAAggggAACCCBgBVxfcDE/nUYnwNJxDGvw4fp1GJagNXABlnfCH330kYwcOVIOHDggOTk5cu+990r37t2lcePGZXM6dOiQvPfee7J06VIxx2dmZsojjzxibx/8/PPP5R//+IesWrVKSkpK5Pzzz5ennnpKmjZtmthvBkZHAAEEEEAAAQQQQACBMgHXF5bMT6fZCbB0HAmwEutInybWN5AB1t69e2Xo0KE2hLrllltk3LhxkpGREVWquLhYnnzySXn11VelTZs2Mn/+fMnOzpbS0lJ54403ZPLkyWKOGTNmjPTr1692xfk0BBBAAAEEEEAAAQRCLEDAo1N8vxbOrtfPq47r82R+wb4Ow9KngQywnnnmGTH/tG3b1u6aMjurqnoVFRXJsGHDZOvWrXLffffZf8zLBFejR4+WdevW2R1c06dPl/T09KqG4+8IIIAAAggggAACCCCgIMDCWQFRRAiwdByjjUKf6vjSpzqOYe3TwAVYx44ds0HU+++/L4MGDZL7778/5g5YvHixLFy40D6wfe7cuWW7trz/ftFFF8miRYvK3YYY8+AciAACCCCAAAIIIIAAAnELEAzETVbpGwgGdBzDGgxwHer0j1/XoXf2rtcxcAFW5EPcp02bJjfccEPMnWZuF3zooYfsM7Py8vIkKyvLvnflypUyceLEM/57zANzIAIIIIAAAggggAACCFRLwPUFF/OrVluc8SaCAR1HArrEOtKnifUNdIBldl+ZXVixvrydVhUDrBdffFFmz55NgBUrJMchgAACCCCAAAIIIKAkQMCjA+nXwtn1+nnVcX2ezC/Y12FY+jRwAdbx48dl1KhRsmHDBunQoYO9FbBRo0ZVdlvkM7C6du0qM2fOlHr16tn3mdsKTbjVvn17mTdvnjRs2LDK8TgAAQQQQAABBBBAAAEEai7AwrnmhmYEAiwdx2ij0Kc6vvSpjmNY+zRwAZY54ZdeeklmzJhhz71v37721wPT0tKidsKpU6dkwYIFYnZalZSUlHuI+8GDB2Xw4MGyY8cO6d27t72VMCUlJbFdxegIIIAAAggggAACCCBgBQgGdBqBYEDHMazBANehTv/4dR16Z+96HQMZYO3fv18efPBBGzqZ16WXXir33nuvdOnSpezB7Oa/mwe+b9myRZ599ln764Pm1aZNG5k/f75kZ2fbB8Gbfzd/S01NlSlTpsiNN96o07mMggACCCCAAAIIIIAAAlUKuL7gYn5VtkBMBxAMxMRU7YPo02rTlXsjfarjGOsoKaWlpaWxHuzncdu2bZPhw4eL2UEV6yszM1PmzJkj7dq1kxMnTsjYsWNl7dq19u1XX321TJ8+vVwAFuu4HIcAAggggAACCCCAAALVE2DhXD23iu/ya+Hsev08Z9fnyfyCfR2GpU8rVikwAZY58d27d8ukSZPKdldFazmzu+qKK66wxzZv3tweZnZnDRs2zO7C6tixozz++ON2VxYvBBBAAAEEEEAAAQQQqD0BFs461gRYOo7RRqFPdXzpUx3HsPZpoAMsc/Jmw9iePXvkb3/7m91N9fXXX9twqm7dujasuuqqq6RPnz5y/vnnl3u2VXFxsWzevFmaNWsmrVu3ljp16iS2kxgdAQQQQAABBBBAAAEEzhAgGNBpCoIBHcewBgNchzr949d16J2963UMfICl02aMggACCCCAAAIIIIAAAn4IuL7gYn46XUUwoONIQJdYR/o0sb4EWLXry6chgAACCCCAAAIIIIBAhAABj047+LVwdr1+XnVcnyfzC/Z1GJY+dSbAOnTokHzyySfy3XffSb169aRz5872NkLzMg96b9y4MbcJ6lyTjIIAAggggAACCCCAgJoAC2cdSgIsHcdoo9CnOr70qY5jWPs00AHW6dOn5c0335Snn35adu3aVTaXnJwcycvLk6ysLDl+/LiMGjVK9u3bJ+PHj5dOnToltmMYHQEEEEAAAQQQQAABBGIWIBiImeqsBxIM6DiGNRjgOtTpH7+uQ+/sXa9jYAOsU6dOycyZM+WVV16RkpKScvOIDLAif22wYcOG8thjj8lPfvITne5kFAQQQAABBBBAAAEEEKiRgOsLLuZXo/YoezPBgI4jAV1iHenTxPoGMsAyvzw4Z84cefHFF+35m1sFL7/8cklNTZX169dLZIB15MgRGTt2rGzcuNEe26ZNG5k/f75kZ2fXriyfhgACCCCAAAIIIIAAAmcIEPDoNIVfC2fX6+dVx/V5Mr9gX4dh6dNABlgffvihPPjgg/Z5V+ZZV2ZXVdOmTeWdd96RESNGlAuwzATNbq0ZM2bI8uXL7XzNrYR9+/bV6VBGQQABBBBAAAEEEEAAgWoLsHCuNl25NxJg6ThGG4U+1fGlT3Ucw9qngQywzK2Dy5Ytk/POO08WLVokLVu2tPOIFmCZvxUVFcmwYcNk69atcv3118vjjz9ud2zxQgABBBBAAAEEEEAAAf8ECAZ07AkGdBzDGgxwHer0j1/XoXf2rtcxcAFW5DOt+vXrJ6NHj5aUlJQqAyxzwMKFC2Xx4sVy0UUX2eDL/DIhLwQQQAABBBBAAAEEEPBPwPUFF/PT6S2CAR1HArrEOtKnifUNXIBVWFgoubm5UlBQcMatgGfbgWUmam4hnDp16hm3GNYuMZ+GAAIIIIAAAggggAACngABj04v+LVwdr1+9KlOf3qj0Ke6nhVHC8v16M07pdQ8IT2JXzUJsMxD32fPnk2AlcT15dQQQAABBBBAAAEEwiXg+oKL+en0s1/BBwGWTv0IsHQdo43m+vdNxXknfYB1+PBhGTJkiOTn58tdd90lo0aNKpvD2XZgmVxuypQpsmLFCunUqZPMnTtXMjIyaqeL+BQEEEAAAQQQQAABBBCoVMD1BRfz02l8Aiwdx7AGH65fh2EJWgMXYEUGUeeff7489dRT9hcIzetsAdann35qf7nw4MGD0rt3b5k4cWLZs7MS+1XA6AgggAACCCCAAAIIIMDCObE94FfAQzCgW1fqqOsZtmAnLNejV9ek34FlTnTdunUycuRIOXnypNxyyy0ybtw4u5sqWoC1Z88eGTt2rGzfvl3OOeccmTVrlnTr1i0xVwajIoAAAggggAACCCCAQMwCri+4mF/MrXDWA/0KdsISgNCn9Gk8An5fj4EKsE6dOiWPPPKIvP766/a8c3JyZMCAAfbfvYe0m2ddmd1ar7zyir1t0Px6oXn17NnTHlO3bt146sOxCCCAAAIIIIAAAgggkAABFs46qH4tKF2vHwGWTn96o9Cnup4VRwvL9RioAMuc7DfffGN/hXDz5s0xd0Dbtm3t7qtmzZrF/B4ORAABBBBAAAEEEEAAgcQJuL7gYn46veNX8EGApVM/Aixdx2ijuf59U3HegbiF0Dtps6tq4cKF8pe//EVKSkqidkRqaqpcd9119lbDhg0b1k7n8CkIIIAAAggggAACCCBQpYDrCy7mV2ULxHQAAVZMTNU+iD6tNl25N9KnOo6xjhKoAMubVFFRkbz11luyYcMG+eSTT8rCLHNroXnW1fXXX1/2oPdYITgOAQQQQAABBBBAAAEEEi/AwlnH2K+Fs+v186rj+jyZX7Cvw7D0acUqBTLA0mk1RkEAAQQQQAABBBBAAIHaFmDhrCNOgKXjGG0U+lTHlz7VcQxrnxJgJbZ/GB0BBBBAAAEEEEAAAQTOIkAwoNMeBAM6jmENBrgOdfrHr+vQO3vX60iApdOnjIIAAggggAACCCCAAALVEHB9wcX8qtEUlbyFYEDHkYAusY70aWJ9kzbAOnLkiCxZskQOHz6sLmAe5D5w4EBp0KCB+tgMiAACCCCAAAIIIIAAArELEPDEbnW2I/1aOLteP8/c9Xkyv2Bfh2Hp06QNsAoLCyU3N1cKCgp0OiliFPNw97y8PMnKylIfmwERQAABBBBAAAEEEEAgdgEWzrFbEWDpWFVnFPq0OmpnvoegVccx2iiu9ykBVmL7h9ERQAABBBBAAAEEEEDgLAKuL7iYn077+xV8eGdPHYNdR9frF5Y+DUyA1ahRI7nzzjvlhhtuEPPvNXnVqVNHGjduLOZ/eSGAAAIIIIAAAggggIB/Aq4vLJmfTm8RYOk4RhuFPtXxpU91HGMdJaW0tLQ01oMTedyxY8fkqaeektdee03Mv3uv1NRUufTSS+VXv/qVdOvWTTIyMhJ5GoyNAAIIIIAAAggggAACCRRg4ayD69fC2fX6edVxfZ7ML9jXYVj6tGKVkibA8k7s1KlT8vHHH8srr7wiq1evPiPM6tKli92ZdfXVV0t6erpO1zEKAggggAACCCCAAAII1IoAC2cdZgIsHcdoo9CnOr70qY5jWPs06QOsyBM0YVZ+fr689NJL8vbbb0txcXHZn+vWrSv/9m//Jr/4xS/kyiuvlLS0tMR2BqMjgAACCCCAAAIIIIBAjQUIBmpMaAcgGNBxDGswwHWo0z9+XYfe2XDd+lkAACAASURBVLtex0AFWBXDrPfee0/+/Oc/y8aNG88Is3r27Cn9+vWT9u3bE2bpXIuMggACCCCAAAIIIICAuoDrCy7mp9MyBAM6jgR0iXWkTxPrG9gAK/LET5w4IevXr5e//OUvsmnTJikpKSn7c4MGDeTGG2+0txlecMEFPLi9dvuJT0MAAQQQQAABBBBA4KwCBDw6DeLXwtn1+nnVcX2ezC/Y12FY+tSJACtyEuaB7+vWrZM//elP9nbDyDArMzNTevXqJXfccYe0bNlSUlJSdLqUURBAAAEEEEAAAQQQQKBaAiycq8V2xpsIsHQco41Cn+r40qc6jmHtU+cCrMgJHT16VN555x37zCzzIHgvzMrJyZG8vDzJyspKbPcwOgIIIIAAAggggAACCJxVgGBAp0EIBnQcwxoMcB3q9I9f16F39q7X0ekAy0zu4MGDsnLlSnt7YUFBgZ0vAZbOxckoCCCAAAIIIIAAAgjUVMD1BRfzq2mH/N/3EwzoOBLQJdaRPk2sr5MB1r59++Rf//qXrFixQnbt2nWG4KWXXipz584Vc0shLwQQQAABBBBAAAEEEPBPgIBHx96vhbPr9fOq4/o8mV+wr8Ow9KkzAVZVoVXz5s2lT58+ctNNN0mzZs14/pXO9ckoCCCAAAIIIIAAAgjUSICFc434yt5MgKXjGG0U+lTHlz7VcQxrnwY6wKoqtMrOzpZbb71VbrvtNkKrxF4njI4AAggggAACCCCAQLUECAaqxXbGmwgGdBzDGgxwHer0j1/XoXf2rtcxcAEWoZXOhcUoCCCAAAIIIIAAAggkg4DrCy7mp9NlBAM6jgR0iXWkTxPrG4gAq6rQyjzLqlevXnLHHXdIy5YtuT2wdnuGT0MAAQQQQAABBBBAoNoCBDzVpiv3Rr8Wzq7Xz0N2fZ7ML9jXYVj6NGkDrOLiYlm+fLm8/PLLlT6I3QutzHOtWrduLXXq1NHpOEZBAAEEEEAAAQQQQACBWhNg4axDTYCl4xhtFPpUx5c+1XEMa58mbYBVWFgoubm5UlBQUHaODRo0kBtvvFHuvPNOueCCCwitEtv7jI4AAggggAACCCCAQMIFCAZ0iAkGdBzDGgxwHer0j1/XoXf2rtcxMAFWu3bt5MILL5TU1NQad1bDhg1l4MCBYgIxXggggAACCCCAAAIIIOCfgOsLLuan01sEAzqOBHSJdaRPE+sbmABLkyEnJ0fy8vIkKytLc1jGQgABBBBAAAEEEEAAgTgFCHjiBItyuF8LZ9fr53G7Pk/mF+zrMCx9SoCl06eMggACCCCAAAIIIIAAAtUQYOFcDbRK3kKApeMYbRT6VMeXPtVxDGufJm2Adfr0aTl06JCY/9V+mQe+N27cmGdoacMyHgIIIIAAAggggAACcQoQDMQJFuVwggEdx7AGA1yHOv3j13Xonb3rdUzaAEunfRgFAQQQQAABBBBAAAEEklnA9QUX89PpPoIBHUcCusQ60qeJ9SXAql1fPg0BBBBAAAEEEEAAAQQiBAh4dNrBr4Wz6/XzquP6PJlfsK/DsPQpAZZOnzIKAggggAACCCCAAAIIVEOAhXM10Cp5CwGWjmO0UehTHV/6VMcxrH1KgJXY/mF0BBBAAAEEEEAAAQQQOIsAwYBOexAM6DiGNRjgOtTpH7+uQ+/sXa8jAZZOnzIKAggggAACCCCAAAIIVEPA9QUX86tGU1TyFoIBHUcCusQ60qeJ9SXAql1fPg0BBBBAAAEEEEAAAQQiBAh4dNrBr4Wz6/XzquP6PJlfsK/DsPQpAZZOnzIKAggggAACCCCAAAIIVEOAhXM10Cp5CwGWjmO0UehTHV/6VMcxrH1KgJXY/mF0BBBAAAEEEEAAAQQQOIsAwYBOexAM6DiGNRjgOtTpH7+uQ+/sXa8jAZZOnzIKAggggAACCCCAAAIIVEPA9QUX86tGU1TyFoIBHUcCusQ60qeJ9SXAql1fPg0BBBBAAAEEEEAAAQQiBAh4dNrBr4Wz6/XzquP6PJlfsK/DsPQpAZZOnzIKAggggAACCCCAAAIIVEOAhXM10Cp5CwGWjmO0UehTHV/6VMcxrH1KgJXY/mF0BBBAAAEEEEAAAQQQOIsAwYBOexAM6DiGNRjgOtTpH7+uQ+/sXa9j4AOsY8eOyc6dO+Xrr7+OuePq1asnnTt3lrp168b8Hg5EAAEEEEAAAQQQQAABfQHXF1zMT6dnCAZ0HAnoEutInybWN7AB1jfffCOzZs2SN998U0pKSuJSysnJkby8PMnKyorrfRyMAAIIIIAAAggggAACugIEPDqefi2cXa+fVx3X58n8gn0dhqVPAxlgHT16VMaOHSsbNmyoVpcRYFWLjTchgAACCCCAAAIIIKAuwMJZh5QAS8cx2ij0qY4vfarjGNY+DWSA9dJLL8mMGTPsuaempsqPf/xjufrqqyUzMzOmbuAWwpiYOAgBBBBAAAEEEEAAgYQLEAzoEBMM6DiGNRjgOtTpH7+uQ+/sXa9j4AKsEydO2N1Xa9eulYYNG8rs2bPliiuu0Ok2RkEAAQQQQAABBBBAAIFaFXB9wcX8dNqJYEDHkYAusY70aWJ9AxdgHTx4UHJzc2X37t3Sr18/GT16tKSkpNSuEp+GAAIIIIAAAggggAACKgIEPCqM4tfC2fX6edVxfZ7ML9jXYVj6NHABVmFhoQ2wCgoKZPz48dK3b1+dTmMUBBBAAAEEEEAAAQQQqHUBFs465ARYOo7RRqFPdXzpUx3HsPZp4AKsw4cPy5AhQyQ/P19GjBgh/fv3T2wHMDoCCCCAAAIIIIAAAggkTIBgQIeWYEDHMazBANehTv/4dR16Z+96HQMXYJWWlsqUKVNkxYoV0qtXL5k8ebJ9kDsvBBBAAAEEEEAAAQQQCJ6A6wsu5qfTkwQDOo4EdIl1pE8T6xu4AMuc8AcffCDDhg2zwdW8efOkffv2tavEpyGAAAIIIIAAAggggICKAAGPCiPPwNJhjDoKfaoD7FfA43r9vOqEZZ7efFNKzRanJH+ZU3z++edlwYIFct5559lnYXXp0kXq1KmT5GfO6SGAAAIIIIAAAggggECkgOsLLuan0+9+BR9hCQboU/o0HgG/r8fABFjFxcWyefNmOXbsmKxevdr+Y15169aVrKysmMybNm0qTzzxhGRmZsZ0PAchgAACCCCAAAIIIIBAYgRYOOu4+rWgdL1+BFg6/emNQp/qelYcLSzXY2ACrMhfIaxu6XNyciQvLy/mwKu6n8P7EEAAAQQQQAABBBBA4OwCri+4mJ/OFeBX8EGApVM/Aixdx2ijuf59U3HeSX8LYZADrFOnTsnUqVPtA+jNLykOGDAgpi42u81ee+01efXVV2XHjh1SUlIiGRkZcuWVV8qgQYOkXbt2kpKSUuVYRUVFsmzZMlm1apV89dVXdpxGjRpJz549ZeDAgdK6desqx+AABBBAAAEEEEAAAQQ0BVxfcDE/nW4hwNJxDGvw4fp1GJagNXABVmIv28SNbsKrxYsXy3PPPWeDo1gDrJ07d8q4ceNscFXZyzzI/rbbbpMRI0bY2yijvTZt2iSPPPKIHDhwIOo4DzzwgNx99908SyxxbcDICCCAAAIIIIAAAhUEXF9YMj+dlifA0nEkwEqsI32aWF8CrFrwNTuoZs6cKf/4xz9seGVesQRYe/fulaFDh8rnn39u39O2bVvp06eP3TW1bt06eeONN8Q8E8y8+vfvL8OHD690J9a2bdvs3w4ePGh/ubFz585y0003SXp6ut2N9e6779rzMn8bM2aM3H777bWgwkcggAACCCCAAAIIICBCwKPTBX4tnF2vn1cd1+fJ/IJ9HYalTwmwdPo06igfffSR3fm0a9eucsdUFWCZQOnJJ5+Uv/71rzZYMgGV2SGVlpZWNo7ZnTVy5EjZvXu3nHvuuTJ37lzp2LFjuc8x4dnYsWNl/fr1doeWCcTuvPPOckHXxo0b5eGHH7YBl/lVx0WLFknLli0TLMPwCCCAAAIIIIAAAggQYGn1AAGWlmTl4xDw6PjSpzqO0UZxvU8JsBLQP6WlpWLCpYULF8ratWvLdl1FflRVAZa5ZXDw4ME2VOrQoYMNp8zOq4qvDRs22NsHzU6sXr16yeTJk23g5b3MTi0Tcp08eVJuvPFGeeyxx8qFYN5xL7/8ssyYMcOe63333Wf/4YUAAggggAACCCCAQKIFXF9wMT+dDvIr+PDOnjoGu46u1y8sfZq0AZYJbsyzn/bt2ydNmzaVJ554QjIzM22g4/336l5CkeNVd4yzva+yB823adPGBkwLFiywb60qwFq+fLl94Lt5mdv6+vXrV+lHmuBq9OjR9pZCM69nnnlGWrRoUXasuXXRPLj9nHPOkVmzZkm3bt0qHce4msDMBGft27eXefPmScOGDRPBw5gIIIAAAggggAACCJQJuL6wZH46zU6ApeMYbRT6VMeXPtVxjHWUpPkVwsgQKCcnR/Ly8iQrK0uC8CuEkefYpEkTefDBB+0zp7zdUlUFWGYX1IQJE2T16tU2RDKh1yWXXBK1hmanl3lAvNl5NWfOnLKQ6vDhwzYoy8/Pt7cEPv3005KdnV3pOJGf2bhxY7t7zDxzixcCCCCAAAIIIIAAAokUYOGso+vXwtn1+nnVcX2ezC/Y12FY+rRilQiwFPrWBFjmVj6z4+r6668v+3XAd955x97uV1WAFRk8RYZ30U5tzZo1dpdWxXG//PJLeyug2cXWpUsXuwMrIyMj6gxNCGaCK/OaPXu29OjRQ0GDIRBAAAEEEEAAAQQQiC7AwlmnOwiwdByjjUKf6vjSpzqOYe3TpA2wEltWf0aPNcCK3MEVS/C0ZcsWu8vr+PHjcuutt8qjjz5qJ/jxxx/bB7+bQCzyv0eb/cqVK2XixIlVBmz+6PGpCCCAAAIIIIAAAi4KEAzoVJVgQMcxrMEA16FO//h1HXpn73odCbB0+jSmUWINsCKDp1gCrGhBVeTnxRJgxXp+MU2WgxBAAAEEEEAAAQRUBY6ceF/2H1shx0/tkBMl+2s0dnpqttRLayPZGb2lQXqnGo1V0ze7vuBifjXtkP/7foIBHUcCusQ60qeJ9SXAqkXfWAOieHdORR7fvXt3mT59uqSnp0usn+cRRB5/1113yahRo2pRh49CAAEEEEAAAQQQiCbw5dHnZN93LyUEqOm5/aRF/XsTMnYsgxLwxKJU9TF+LZxdr58n7/o8mV/V11gsR/h1HYalTwmwYulCpWNiDZRqEmBF7tiK9fMqC7Bi2bGlxFLpMHv37k3k8IyNAAIIIIAAAggkvUCDBg2kfv36YnZeffbtQwk934uaTLM7sY4ePSpHjhxJ6Gd5gzdr1sz+a20vnGvr/5/J/HTbyAsGaqt+9Klu/bzRaruOrl+HQetTrx5a3ZU0D3HXmlAyjRNroFSTAMuVHVi1/X+YkqlPOBcEEEAAAQQQQMAIZGZm2h8D2nHoUSkqXp9QlEZ1r5Y2jR+V4uJiOXjwYEI/K2gLrupiuL5wdn1+9Gl1O//s7yPASoxrUK5HAqzE1D8ho1YnwOIZWAkpBYMigAACCCCAAAKBEcgvvKfGz7yqarLmmVjts56v6rCE/L22d2AlZBJnGZT56Yhza5aOY7RR6FMdX/pUxzHWUdiBFatUNY6LNcCqya8Q3nbbbfLwww/bs4t3J1fkrxCOGDFC+vfvX41Z8hYEEEAAAQQQQAABTQEWljqafi0sqV+w6+edPXUMdh1dr19Y+rRiFxJg6VyXlY4Sa4B1+PBhGTJkiOTn50urVq0kLy/PbiGP9lqzZo2MGTPG/tm8b8CAAfbfv/zyS7nvvvtk37590rVrV5k5c6bUq1cv6jiLFy+WhQsX2r/Pnj1bevTokUANhkYAAQQQQAABBBCIRcD1hRfzi6ULqj6GgK5qo5ocQZ/WRO//v5c+1XGMNorrfUqAldj+KTd6rAFWSUmJTJgwQVavXi2NGze2oVLbtm2jnqn5uwmfUlNTZc6cOdKtWzd7bDxBWLyfWYtsfBQCCCCAAAIIIBBqAdcXJMxPp70JBnQcwxoMcB3q9I9f16F39q7XkQBLp09jGiXWAMsMtnz5cpk6daodd8qUKXLzzTdX+hnHjh2TkSNHyqZNm6Rp06byzDPPSIsWLcqONbuuli1bZndezZ8/X6644opKx9m/f7/85je/kT179kj79u1l3rx50rBhw5jmxUEIIIAAAggggAACiRNwfUHC/HR6x6+Fs+v1C0sw4HodXZ9fWPqUAEvn/17ENEo8AdaOHTtk8ODB9ldgOnfuLLNmzbI/o1zxtWHDBjHPqzK/GNOrVy+ZPHmy3YnlvdatW2cDrpMnT0rv3r1l/PjxkpaWdsY4L7/8ssyYMUPMTixz26H5hxcCCCCAAAIIIICA/wKuL7yYn06PEWDpOEYbhT7V8aVPdRzD2qcEWIntn3KjxxNgmSBp2rRp8uqrr9oxzMPZR48ebX9K2Xvt3LnThlO7d++Wc889V+bOnSsdO3Ys95mRO7RMsGVCMfOMrDp16pQdt3HjRvvgdxOWnXfeebJo0SJp2bJlLcrwUQgggAACCCCAAAJhXZAQDOj0PsGAjiPXYWId6dPE+rr+fUqAldj+qXaAZd64d+9eGTp0qHz++ed2nJycHPn5z39ubxF87733ZNWqVWICKvMyvxg4fPhwSUlJOWNG27Zts38zAZV5medp9enTx+7oMqGaeQi8CcxMwGUeBn/77bfXogofhQACCCCAAAIIIHA2AdcXJMxPp/8JBnQcCbAS60ifJtbX9e/TwAVYR44ckSVLltgHlFf3ZZ7tNHDgQGnQoEF1h6jW++LZgeV9wKeffmof6L5r165KP9OETmZ3lrmNMHJ3VsWDza2EkyZNkm+//TbqOA888IDcfffd5XZnVWuivAkBBBBAAAEEEEBATcD1BQnz02kVggEdRwKsxDrSp4n1df37NHABVmFhoeTm5kpBQUG1K292MuXl5UlWVla1x6jOG6sTYJnPMbusXnvtNXs7oXk2ltktlZGRIVdeeaUMGjRI2rVrV+nOq4rnWFRUZB/obnZuffXVV3acRo0aSc+ePW2g17p16+pMi/cggAACCCCAAAIIJFDA9QUJ89NpHoIBHUcCrMQ60qeJ9XX9+5QAK7H9w+gIIIAAAggggAACCNRIwPUFCfOrUXuUvZlgQMeRACuxjvRpYn1d/z4NXIBlfm1v8+bNcvz48Sorb3YYbd26Vd58803Zv3+/dOvWTX73u9+JuYWQFwIIIIAAAggggAACQRBwfUHC/HS6kGBAx5EAK7GO9GlifV3/Pg1cgFWdcptb8J544gn55z//KVdffbVMnz7d3oLHCwEEEEAAAQQQQACBZBdwfUHC/HQ6kGBAx5EAK7GO9GlifV3/Pg1FgGUmaX6Bb/DgwfZh6FOmTJEbb7wxsZ3D6AgggAACCCCAAAIIKAi4viBhfgpNIiIEAzqOBFiJdaRPE+vr+vdpaAIsM9GFCxfK4sWLpXv37nYXVnp6emK7h9ERQAABBBBAAAEEEKihgOsLEuZXwwb5f28nGNBxJMBKrCN9mlhf179PQxVgrVy5UiZOnCitWrWyv0KYmZmZ2O5hdAQQQAABBBBAAAEEaijg+oKE+dWwQQiwdACrGIU+1WEmwNJxDGvQGqoAa+nSpTJv3jzJycmxAVZWVlZiu4fREUAAAQQQQAABBBCooQAL5xoCEvDoAEYZxfX+9Kbt+jyZn85l4ldAF5Y+DU2AZR7kPnLkSNm0aZO0b9/eBln8GqHORcooCCCAAAIIIIAAAokTYGGpY+vXwpL6Bbt+YQkG6FP6NB4Bv75PQxFgFRUVyaxZs+yvEJpXv379ZPTo0ZKSkhJPjTgWAQQQQAABBBBAAIFaF2BhqUPu14KL+gW7fgRYOvXzRuE61PWsOJrr3zeBC7DMrwmOGzdO9u3bV2XlS0pK5MCBA2L+13ude+65Mn/+fLnsssuqfD8HIIAAAggggAACCCDgt4DrCxLmp9NhBAM6jtFGoU91fOlTHcew9mngAqzCwkLJzc2VgoKCuCufmpoqQ4YMkf79+7P7Km493oAAAggggAACCCDghwALZx11Fs46jhVHcb0/vfm6Pk/mp3N9+PU9E5Y+dT7AMqHVD37wA7n88svl3nvvlQsuuECnMxkFAQQQQAABBBBAAIFaEGBhqYPs18KS+gW7fmEJBuhT+jQeAb++TwMXYMWDyrEIIIAAAggggAACCARdgIWlTgX9WnBRv2DXjwBLp37eKFyHup4VR3P9+4YAK7H9w+gIIIAAAggggAACCNRIwPUFCfOrUXuUvZlgQMcx2ij0qY4vfarjGNY+JcBKbP8wOgIIIIAAAggggAACNRJg4VwjPgIeHb6oo7jen97EXZ8n89O5UPwK6MLSp6ELsE6cOCEffPCBXHrppdKgQQOdLmUUBBBAAAEEEEAAAQQSJMDCUgfWr4Ul9Qt2/cISDNCn9Gk8An59nwY6wNqzZ4/885//lA8//DCmXyU8efKkfPPNN9KsWTPJy8uTrKyseGrEsQgggAACCCCAAAII1LoAC0sdcr8WXNQv2PUjwNKpnzcK16GuZ8XRXP++CWSAVVpaKi+++KLMmzdPSkpK4u6AnJwcAqy41XgDAggggAACCCCAgB8Cri9ImJ9OVxEM6DhGG4U+1fGlT3Ucw9qngQywPv74Y3nggQfk8OHDcVU/IyNDLrzwQunVq5f8/Oc/l7p168b1fg5GAAEEEEAAAQQQQKC2BVg464izcNZxrDiK6/3pzdf1eTI/nevDr++ZsPRpIAOsmTNnyrJlyyQ1NVX69u0rv/71r6VevXoybNgwezvhfffdZ/+bCbi2b98uzz77rGzdulV+8IMfyIIFC+SCCy7Q6U5GQQABBBBAAAEEEEAgwQIsLHWA/VpYUr9g1y8swQB9Sp/GI+DX92ngAqxjx47JyJEjZdOmTXLZZZfZ2wjr169v57Fw4UJZvHixdO3aVUzIZUIt8youLpYnn3xSXn31VenZs6dMnTqV3VfxdCfHIoAAAggggAACCPgmwMJSh96vBRf1C3b9CLB06ueNwnWo61lxNNe/bwIXYBUWFkpubq59aPugQYPk/vvvL5vDmjVrZMyYMdKiRQu76yo7O7vsb+aB74MHD7YPcZ81a5Z069YtsZ3D6AgggAACCCCAAAIIKAi4viBhfgpNIiIEAzqO0UahT3V86VMdx7D2aaADrPHjx9tbCL2X92ws85B3c6vgpZdeWvY389+mTJkiK1askN69e8vEiRMlJSUlsd3D6AgggAACCCCAAAII1FCAhXMNAf/f21k46zhWHMX1/vTm6/o8mZ/O9eHX90xY+jTQAZYJpG6++eayOUTuzpo9e7b06NGj3PyWLl1qbzns1KmTzJ07V8xD3XkhgAACCCCAAAIIIJDMAiwsdarj18KS+gW7fmEJBuhT+jQeAb++TwMXYJlnYJmHtb///vv29kFzG6H3ivzbkCFDZMCAAeXmt3LlSrvzKicnR/Ly8iQrKyueGnEsAggggAACCCCAAAK1LsDCUofcrwUX9Qt2/QiwdOrnjcJ1qOtZcTTXv28CF2BF3grYoUMHu5OqUaNGdh4lJSUyYcIEWb16tdxyyy0yefLkcrcJmge8mwe9E2Al9qJhdAQQQAABBBBAAAE9AdcXJMxPp1cIBnQco41Cn+r40qc6jmHt08AFWOaE161bZ3+J8OTJkzaoMv/uhVjeLxGed955smjRImnZsqWdY1FRkd25tXXrVm4hTOw1w+gIIIAAAggggAACigIsnHUwWTjrOFYcxfX+9Obr+jyZn8714df3TFj6NJABlrlVcOzYsbJ+/Xp7/qmpqXLttdeKeaj7zp075cEHH5TvvvvO7rT65S9/Kd/73vfkz3/+s2zfvt0ef9ddd8moUaN0OpRREEAAAQQQQAABBBBIoAALSx1cvxaW1C/Y9QtLMECf0qfxCPj1fRrIAMuc9N69e+3OKy+U6tKli8yaNUvS09NlxowZsnz58kr9MzMzZf78+XLxxRfHUx+ORQABBBBAAAEEEEDAFwEWljrsfi24qF+w60eApVM/bxSuQ13PiqO5/n0T2ADLnLjZibVixQoxvy545ZVXlj3z6ujRo/L444/LG2+8UW5+5lcHH330UbtbixcCCCCAAAIIIIAAAkEQcH1Bwvx0upBgQMcx2ij0qY4vfarjGNY+DXSAFXnyJ06csLuvvNfp06ft865MiGX+1rp1a7npppv45cHEXi+MjgACCCCAAAIIIKAswMJZB5SFs45jxVFc709vvq7Pk/npXB9+fc+EpU+dCbB02o1REEAAAQQQQAABBBBILgEWljr18GthSf2CXb+wBAP0KX0aj4Bf36cEWPFUiWMRQAABBBBAAAEEEKhlARaWOuB+LbioX7DrR4ClUz9vFK5DXc+Ko7n+feNEgGVuEdyyZYu8++67Yp5/5b3MrxCaZ2O1bdtW0tLSEtspjI4AAggggAACCCCAQAIEXF+QMD+dpiEY0HGMNgp9quNLn+o4hrVPAx1gfffdd7Jo0SJ55ZVXpLi4OGonNGjQQHJzc+UXv/gFQVZirxdGRwABBBBAAAEEEFAWYOGsA8rCWcex4iiu96c3X9fnyfx0rg+/vmfC0qeBDbD27NkjY8eOle3bt8fcaTfccINMmDBB6tevH/N7OBABBBBAAAEEEEAAAT8FWFjq6Pu1sKR+wa5fWIIB+pQ+jUfAr+/TQAZY5jbBkSNHyubNm+35Z2RkSK9eveSaa66RCy+8UOrUqSMnT56Ubdu2yZo1a+Ttt98u26HVt29fGTNmDDux4ulOjkUAAQQQQAABBBDwTYCFpQ69Xwsu6hfs+hFg6dTPG4XrUNez4miuf98EMsD629/+JlOnTpWSkhLp3Lmz/ffvf//7UTshcrfWOeecI7NmzZJu3boltnMYHQEEi3tILQAAIABJREFUEEAAAQQQQAABBQHXFyTMT6FJRIRgQMcx2ij0qY4vfarjGNY+DVyAZR7Ybm4dXLt2rbRq1Uqeeuopad68eZVdYEKswYMHy9dff213a02ePFlSU1OrfB8HIIAAAggggAACCCDgpwALZx19Fs46jhVHcb0/vfm6Pk/mp3N9+PU9E5Y+DVyAdfDgQftA9t27d8ugQYPk/vvvj7nTZs6cKcuWLZOLLrrIPvy9cePGMb+XAxFAAAEEEEAAAQQQ8EOAhaWOul8LS+oX7PqFJRigT+nTeAT8+j4NXIBVWFhoA6yCggKZNm2amAezx/pauXKlTJw4UXJyciQvL0+ysrJifSvHIYAAAggggAACCCDgiwALSx12vxZc1C/Y9SPA0qmfNwrXoa5nxdFc/74JXIB1+PBhGTJkiOTn59vdV2YXVqyvpUuXyrx589iBFSsYxyGAAAIIIIAAAgj4LuD6goT56bQYwYCOY7RR6FMdX/pUxzGsfRq4AMuc8Ny5c+WFF16QDh062H9v1KhRlV1QXFwso0ePlnXr1km/fv3sv6ekpFT5Pg5AAAEEEEAAAQQQQMBPARbOOvosnHUcK47ien9683V9nsxP5/rw63smLH0ayABr7969MnToUPn888+lb9++MmbMGElLS4vacaWlpfL888/LggULbNg1f/58ufjii3U6lFEQQAABBBBAAAEEEEigAAtLHVy/FpbUL9j1C0swQJ/Sp/EI+PV9mrQB1unTp+XQoUNi/rey1yeffCKPPfaYmIe6m51YJtBq3759uSDLvNeEXH/4wx/srxZmZmba93Tp0iWe2nAsAggggAACCCCAAAK+CbCw1KH3a8FF/YJdPwIsnfp5o3Ad6npWHM3175ukDbAiH9YeT4kzMjKkSZMmcvToUSkqKqr0rTzEPR5RjkUAAQQQQAABBBDwU8D1BQnz0+kuggEdx2ij0Kc6vvSpjmNY+9S5ACuWdiDAikWJYxBAAAEEEEAAAQSSQYCFs04VWDjrOFYcxfX+9Obr+jyZn8714df3TFj6NGkDLHNr4Lhx42Tfvn06nRQxStOmTeWJJ56wtxTyQgABBBBAAAEEEEAgmQVYWOpUx6+FJfULdv3CEgzQp/RpPAJ+fZ8mbYAVDx7HIoAAAggggAACCCDgqgALS53K+rXgon7Brh8Blk79vFG4DnU9K47m+vcNAVZi+4fREUAAAQQQQAABBBCokYDrCxLmV6P2KHszwYCOY7RR6FMdX/pUxzGsfUqAldj+YXQEEEAAAQQQQAABBGokwMK5RnwEPDp8UUdxvT+9ibs+T+anc6H4FdCFpU8DH2CdOHHCPierZcuW5eayZcsWmT9/vuTn50vdunXlpptuktzcXDHPv+KFAAIIIIAAAggggEBQBFhY6lTKr4Ul9Qt2/cISDNCn9Gk8An59nwY2wDp27JgsXLhQ/vKXv8hPf/pTefzxxyU1NdXO55133pGHHnpIiouLy83PPLR9zpw50q5du3hqw7EIIIAAAggggAACSSxw5MT7sv/YCjl+aoecKNlfozNNT82WemltJDujtzRI71SjsbTezMJSR9KvBRf1C3b9CLB06ueNwnWo61lxNNe/bwIZYJlgavz48fL222/b8+/UqZPMnTtXMjIy5OjRozJkyBD58MMPK+2MNm3a2J1Z2dnZie0cRkcAAQQQQAABBBBIuMCXR5+Tfd+9lJDPaXpuP2lR/96EjB3PoK4vSJhfPN0Q/ViCAR3HaKPQpzq+9KmOY1j7NJAB1rp162TkyJFy8uRJadKkifz617+WO+64w94quHHjRhk6dKj92yWXXCKzZs2SrKwsWbp0qSxatEhKSkpkzJgx0q9fv8R2DqMjgAACCCCAAAIIJFTA7Lz67NuHEvoZFzWZ5vtOLBbOOiVm4azjWHEU1/vTm6/r82R+OteHX98zYenTwAVYpaWlMmXKFFmxYoVUdkugua1w8eLFdl5ml1bfvn3tv5tdW6NHjxYTfnXv3l2mT58u6enpOl3KKAgggAACCCCAAAK1LrDj0KNSVLw+oZ/bqO7V0qbxown9jKoGZ2FZlVBsf/drYUn9YqtPVUf5Vb+wBAP0aVUdGNvf6dPYnLSOSik1CVESv8yzr4YNGybvv/++3HXXXTJq1KiyszV/MzuzNm3aZHddmR1X559/ftnfzS6sefPmyUUXXWT/1rhx4ySeKaeGAAIIIIAAAgggcDaB/MJ7avzMq6qEzTOx2mc9X9VhCf07C0sdXr8WltQv2PUjwNKpnzcK16GuZ8XRXP++qTjfpA+wCgsL7a8JFhQUlNthZSayc+dOGTx4sJhj2rdvb8Oqhg0bls1xzZo19vbBnJwcycvLsyEXLwQQQAABBBBAAIFgCoTl/6Pu+jyZn871RzCg4xhtFPpUx5c+1XEMa58GOsAytxLefPPNZXNYuXKlTJw40f6/K+7OMv/txRdflNmzZxNgJfaaYXQEEEAAAQQQQKBWBFxfUHqIrs+T+elcLgQDOo5hDQa4DnX6x6/rMCz/9yJwAdbhw4ftrwzm5+fL/fffL4MGDbJziHw2Vmpqqjz55JPSo0ePsvlF/j3yVwt12pRREEAAAQQQQAABBGpbwPUFV1gWJK7XkfnpfDMQDOg4EtAl1pE+Taxv4AIs8yuCEyZMkNWrV0vnzp3trwzWr19f9u3bJ7/97W/tbYQtWrSwz7hq3rx52fy2bdsmw4cPl4MHD0rv3r3tTq2UlJTa1eXTEEAAAQQQQAABBNQEXA8GCLDUWsUO5NfC0vU+dX1+XIdch/EI+PU9E5Y+DVyAZU749ddftwGUCbPMLwped9118vLLL8vWrVvtfHr16iWTJ08WsxPrxIkTNuyaM2eOfPvtt3LOOefY0Ktbt27x9CHHIoAAAggggAACCCSZAAtn3YL4tfByvY7MT6dP/erPsAQD9Cl9Go+A39ejd65J/xB3c6JHjx6VsWPHyoYNG84wzszMlPnz58vFF18shw4dsg91/+yzz8qO69u3r32Qe1paWjz14VgEEEAAAQQQQACBJBNwfcHFwlm34fxacLnep67Pj+uQ6zAeAb++Z8LSpxVrEYgAy5z0N998I9OnT5e3337b7sQyryZNmtidV97uKrP7ygRda9eutbuxfvazn8moUaMkIyMjnh7kWAQQQAABBBBAAIEkFGDhrFsUvxZerteR+en0qV/9GZZggD6lT+MR8Pt69M41MAGWd8Jml9Unn3wi2dnZ0qpVqzN2Vi1evNjeOnjHHXdI69at46kJxyKAAAIIIIAAAggksYDrCy4WzrrN59eCy/U+dX1+XIdch/EI+PU9E5Y+rViLwAVY8TQTxyKAAAIIIIAAAgi4I8DCWbeWfi28XK8j89PpU7/6MyzBAH1Kn8Yj4Pf16J0rAVY8VeNYBBBAAAEEEEAAAd8EXF9wsXDWbS2/Flyu96nr8+M65DqMR8Cv75mw9GnFWhBgxdOdHIsAAggggAACCCDgmwALZ116vxZerteR+en0qV/9GZZggD6lT+MR8Pt69M416QOswsJCyc3NlYKCgnh8yx2bk5MjeXl5kpWVVe0xeCMCCCCAAAIIIICAvwKuL7hYOOv2l18LLtf71PX5cR1yHcYj4Nf3TFj6tGItCLDi6U6ORQABBBBAAAEEEPBNgIWzLr1fCy/X68j8dPrUr/4MSzBAn9Kn8Qj4fT165+p0gNWxY0c5//zzpWHDhjJw4EBp0KBBPDXiWAQQQAABBBBAAIEkEnB9wcXCWbfZ/Fpwud6nrs+P65DrMB4Bv75nwtKnFWuR9AFWPM1TWloq5pbDV155RZYsWSJ169aVxx57TH7yk5/EMwzHIoAAAggggAACCCShAAtn3aL4tfByvY7MT6dP/erPsAQD9Cl9Go+A39ejd65OBViRBVizZo1MnDhRmjRpIosWLZKWLVvGUx+ORQABBBBAAAEEEEgyAdcXXCycdRvOrwWX633q+vy4DrkO4xHw63smLH1asRbOBljFxcUyevRoWbdundx33332H14IIIAAAggggAACwRVg4axbO78WXq7Xkfnp9Klf/RmWYIA+pU/jEfD7evTO1dkAy0xw6dKlMm/ePOnUqZPMnTtXMjIy4qkRxyKAAAIIIIAAAggkkYDrCy4WzrrN5teCy/U+dX1+XIdch/EI+PU9E5Y+rVgLpwOslStX2tsIc3JyJC8vT7KysuLpRY5FAAEEEEAAAQQQSCIBFs66xfBr4eV6HZmfTp/61Z9hCQboU/o0HgG/r0fvXJ0OsBYuXCiLFy8mwIqnMzkWAQQQQAABBBBIUgHXF1wsnHUbz68Fl+t96vr8uA65DuMR8Ot7Jix9WrEWzgZY27dvl2HDhsn+/fula9euMnPmTKlXr148vcixCCCAAAIIIIAAAkkkwMJZtxh+LbxcryPz0+lTv/ozLMEAfUqfxiPg9/XonWvSB1inT5+WQ4cOifnfql4nT56Uzz77zP6zbNky+fbbb+1bxowZI/369avq7fwdAQQQQAABBBBAIIkFXF9wsXDWbT6/Flyu96nr8+M65DqMR8Cv75mw9GnFWiR9gFVYWCi5ublSUFAQTx+VHdumTRuZP3++ZGdnV+v9vAkBBBBAAAEEEEAgOQRYOOvWwa+Fl+t1ZH46fepXf4YlGKBP6dN4BPy+Hr1zdTrA6tChg0yePFlatWoVT204FgEEEEAAAQQQQCAJBVxfcLFw1m06vxZcrvep6/PjOuQ6jEfAr++ZsPRpxVokfYB15MgRWbJkiRw+fDimPkpPT5d27drJj370I2ndurXUqVMnpvdxEAIIIIAAAggggEByC7Bw1q2PXwsv1+vI/HT61K/+DEswQJ/Sp/EI+H09euea9AFWPKgciwACCCCAAAIIIOCugOsLLhbOur3r14LL9T51fX5ch1yH8Qj49T0Tlj6tWAvnA6xTp05Jfn6+tG3bVjIyMuLpRY5FAAEEEEAAAQQQSCIBFs66xfBr4eV6HZmfTp/61Z9hCQboU/o0HgG/r0fvXJ0NsPbt2yd/+tOf5G9/+5s0atRI8vLyJCsrK54acSwCCCCAAAIIIIBAEgm4vuBi4azbbH4tuFzvU9fnx3XIdRiPgF/fM2Hp04q1cCrAMrut1q1bJ3/84x/lo48+kpKSEjvfnJwcAqx4rkKORQABBBBAAAEEklCAhbNuUfxaeLleR+an06d+9WdYggH6lD6NR8Dv69E7VycCrKKiIvnrX/8qL7zwgpiHvld8mV8hNDuwMjMz46kRxyKAwP9p7zzA9ijKtj2EUKWXUEMABQy9SC+hN0OQDyJICb/SRATEUAUEFUQQxA8RVCASEIkUBaUJCUgRIkVREkAQ6SX03kL5j3P45mWy2d1n931299mdveY4OETefXZnznvqNffcIwIiIAIiIAIiUCMCoS+4tHAutrL1asEVej0NvXxqh2qHeQj0qp9pSz2N2qKxAtZHH31k7rvvPjNmzBgzceLEPm8rv4CDBg0yu+yyi9l+++3tMUIlERABERABERABERCB5hLQwrlY2/Vq4RW6HVW+Yuppr+pnW4QB1VPV0zwEet0eXV4bJ2DhbUVcq3Hjxpnnn39+OuYzzjijWXHFFc1BBx1kVlppJTNgwIA8dtGzIiACIiACIiACIiACNSUQ+oJLC+diK16vFlyh19PQy6d2qHaYh0Cv+pm21NOoLRohYGXxtqJga621ljnuuOPMQgstlKfO6VkREAEREAEREAEREIEGENDCuVgj9WrhFbodVb5i6mmv6mdbhAHVU9XTPAR63R5dXmstYL399ttmwoQJZuzYseaxxx6bju8ss8xiVlllFTN58mTz1ltvmeHDh5vjjz8+jx30rAiIgAiIgAiIgAiIQEMIhL7g0sK52IrYqwVX6PU09PKpHaod5iHQq36mLfU0aovaCVgff/yxefTRR80FF1xgbrjhBvPee+9Nk2d3RHDUqFFm3XXXNa+//rrZe++9zVNPPSUBK09L07MiIAIiIAIiIAIi0DACWjgXa7BeLbxCt6PKV0w97VX9bIswoHqqepqHQK/bo8trbQSsDz74wFx//fU2KHuct9WSSy5pdt11V7PZZptNE5D9xRdflICVp+bpWREQAREQAREQARFoKIHQF1xaOBdbMXu14Aq9noZePrVDtcM8BHrVz7SlnkZtURsByxeiXCYXXXRRs8MOO5htt902Ma6VBKw8zUvPioAIiIAIiIAIiEBzCWjhXKzterXwCt2OKl8x9bRX9bMtwoDqqeppHgK9bo8ur7UUsIYOHWr22Wcfs84665iZZ545lasErDzVTs+KgAiIgAiIgAi0gcAb7//dPP/2H807Hzxi3v9w+lub8zCYecZBZraBnzWDZh9h5px59Tw/LfzZ0BdcWjgXW2V6teAKvZ6GXj61Q7XDPAR61c+0pZ5GbVFLActlknhXiFl4YW288cbTHB10z0jAytO89KwIiIAIiIAIiEDoBJ5+8zwz5a1LSinmQp/5sllsjr1KeXeWl2rhnIVS9md6tfAK3Y4qX/Y6mPZkr+pnW4QB1VPV0zwEet0eXV5rI2DlDd7uPLMkYOWpdnpWBERABERABEQgZAJ4Xj38ylGlFnGZeU/qmSdW6AsuLZyLrbq9WnCFXk9DL5/aodphHgK96mfaUk+jtqiNgOVn7P333zd33HGHOf/88839999vPvzww2nyPcsss5hhw4aZnXfe2SyyyCJm33331S2EeVqZnhUBERABERABEQiSwCOvHm9ee++OUss29yzrms/Oc3yp30h6uRbOxWLv1cIrdDuqfMXU017Vz7YIA6qnqqd5CPS6Pbq81lLA8kFOmTLFXH755eaqq64yzz8/fQwHPLEQuPhn+PDh5vjjezOhymN8PSsCIiACIiACIiACZRCY9OIeXce86pQvYmKtuMCFnR4r5e+hL7i0cC622vRqwRV6PQ29fGqHaod5CPSqn2lLPY3aovYClsvwRx99ZO677z4zZswYM3HixOm8snhu3nnnNbvuumvqrYV5KqOeFQEREAEREAEREIEmEQh9YRl6+dqyIAndjipfMb2mhIFiOCa9RfW0GL6qp8VwzPqWxghYfoHefvttM2HCBDN27Fjz2GOPTVdWgr8vv/zy5qtf/apZb731zMCBA7Py0HMiIAIiIAIiIAIi0FgCWpAUYzotSIrhqIVzuRx7VU9D72ckJBdbb1VPi+UZfVtb2qMrdyMFLJd5F/j9d7/7nbn++uvNG2+8MV3tmHPOOc3IkSPNXnvtZYidpSQCIiACIiACIiACoRIIfSIbevm0cC62ZWrhXCzPttTPtpQz9P409PK1pZ5Ge7FGC1h+YT744ANz++23m1//+tfTBX5ffPHFzbnnnmsWWGCBcnpxvVUEREAEREAEREAEakAg9Al76OVry4IkdDuqfMV0hr0SINUOi7Gfe0uv7Bh6O2xLPQ1WwPIL9tprr5krr7zSjBs3zgZ+l4BVbCekt4mACIiACIiACNSTQOgT9tDL15YFSeh2VPmK6R97JXyoHRZjPwlYxXJMelvo/U0rBCxXSAK/33///eaWW24xu+yyi5lvvvmqqUX6igiIgAiIgAiIgAj0gEDoE9nQy6eFc7GNplcCSOj1NPTyqR2qHeYh0Kt+pi31tFUCVp6Kp2dFQAREQAREQAREoOkEQl9Yhl6+tixIQrejyldMTyphoBiOSW9RPS2Gr+ppMRyzviWYGFhZC6znREAEREAEREAEOhMYf8e95szf/snc++B/zRPPPt/5BylPDFl0kFlluaXNN3cdbjZfd7Wu3qUfpxPQgqSYGqIFSTEctXAul2Ov6mno/YyE5GLrreppsTyjb2tLe3TlloBVbn3S20VABERABESgcQSOOv18c/J5l5aS7yP2GmlOOuT/lfJuvdSY0CeyoZdPC+diW7EWzsXybEv9bEs5Q+9PQy9fW+pptBeTgFVOv663ioAIiIAIiEAjCYy/4x9my32OKTXv159zotl83VVL/UZbXx76hD308rVlQRK6HVW+YnrgXgmQaofF2M+9pVd2DL0dtqWeSsAqtj3qbSIgAiIgAiIQFIEvHfgD88ebJpZaphGbrGOu+NmxpX6jrS8PfcIeevnasiAJ3Y4qXzE9cK+ED7XDYuwnAatYjklvC72/kYBVTT3SV0RABERABESgkQSW2vKr5vFnuot51angSywyyDx2w687Paa/94NA6BPZ0MunhXM/Kn3KT3olgIReT0Mvn9qh2mEeAr3qZ9pSTyVg5amNelYEREAEREAEWkZgwIpfrKTEH026upLvtO0joS8sQy9fWxYkodtR5Sum55UwUAzHpLeonhbDV/W0GI5Z36IYWFlJ6TkREAEREAERaAEBCVjNNrIWJMXYTwuSYjhq4Vwux17V09D7GQnJxdZb1dNieUbf1pb26MotAavc+qS3i4AIiIAIiECjCEjAapS5psts6BPZ0MunhXOx7U8L52J5tqV+tqWcofenoZevLfU02otJwCqnX9dbRUAEREAERKCRBCRgNdJsfZkOfcIeevnasiAJ3Y4qXzH9aK8ESLXDYuzn3tIrO4beDttSTyVgFdse9TYREAEREAERCIqABKxmmzP0CXvo5WvLgiR0O6p8xfSjvRI+1A6LsZ8ErGI5Jr0t9P5GAlY19UhfEQEREAERCJTA+DvuNWf+9k/m3gf/a554trvb+oYsOsisstzS5pu7Djebr7taLYhJwKqFGfqdidAnsqGXTwvnflf92B/2SgAJvZ6GXj61Q7XDPAR61c+0pZ5KwMpTG/WsCIiACIiACHgEjjr9fHPyeZeWwuSIvUaakw75f6W8O89LJWDloVW/Z0NfWIZevrYsSEK3o8pXTN8oYaAYjklvUT0thq/qaTEcs75FMbCyktJzIiACIiACrSYw/o5/mC33OaZUBtefc6LZfN1VS/1Gp5dLwOpEqN5/14KkGPtoQVIMRy2cy+XYq3oaej8jIbnYeqt6WizP6Nva0h5duSVglVufevr21157zYwbN85cd9115plnnjEffvihmXvuuc2wYcPMnnvuaYYMGdLT/OnjIiACItAkAl868AfmjzdNLDXLIzZZx1zxs2NL/Uanl0vA6kSo3n8PfSIbevm0cC62fWnhXCzPttTPtpQz9P409PK1pZ5GezEJWOX06z1/61133WW++93vmhdeeCE2LzPOOKM54IADzO67724GDBjQ8/wqAyIgAiJQdwJLbflV8/gz3cW86lTGJRYZZB674dedHiv17xKwSsVb+stDn7CHXr62LEhCt6PKV0xX1ysBUu2wGPu5t/TKjqG3w7bUUwlYxbbHWr5t8uTJ5pBDDjEvv/yyQahaY401zFZbbWVmnnlm6401ceJE643F3w4//HCz44471rIcypQIiIAI1IlAW4SdtpSzTnWryLyEPmEPvXxtWZCEbkeVr5herVfCh9phMfaTgFUsx6S3hd7fSMCqph717Ctvv/22OeKII8wdd9xhZpllFnPwwQebkSNHmhlmmKEvT3feeac55phjrMC18MILm7PPPtsMHjy4Z3nWh0XAEQj9djdZutkE2iLstKWcza6NybkPfSIbevm0cC62ZfZKAAm9noZePrVDtcM8BHrVz7SlnkrAylMbG/js7bffbkaPHm2mTp1qttxyS/P973/fDBw4cLqSXH755eaUU06xnlj77ruv/UdJBHpJoA23u/WSr77dPYG2CDttKWf3NaKebwh9YRl6+dqyIAndjipfMf2jhIFiOCa9RfW0GL6qp8VwzPoWxcDKSqohz5166qk2cPtMM81kTjvtNLPeeuvF5hzvq/3339888sgjZsUVVzRnnHGGmWuuuRpSSmUzNAJtud3N2S10T7NQy9cWYact5QytH5XwUaxFtSAplmf0bVo4F8O3V/U0dPupPy2mfrq3qJ4Wy7Nt/Wm0vBKwyq1Plb799ddfNwcddJCZNGmSPRL4y1/+0gwaNCg2D3heHX300Wb8+PFmnnnmMWeddZZZdtllK82vPiYCjkBbbnejvKF7moVcvrYIO20pZ6g9cOgLy9DLp4VzsS1TC+diebalfralnKH3p6GXry31VAJWOf14Ld769NNP26OAU6ZMMWuuuab1wJp99tkT8zZmzBgrXJF+8pOfmI022qgW5egmE6F6fnTDpAm/bcvtbqF7moVevrYIO20p59SH7zLv3Xap+fCZh81HrzzXVVc5YN6FzYyLLmNmWX+kmWnZNbt6V7c/Dn3CHnr52rIgCd2OKl+3Pdknv++VAKl2WIz93Ft6ZcfQ22Fb6qkErGLbY63e9sADD5gDDjjA4Ik1fPhwc/zxx6fm79prrzXHHnusfQbPrVGjRtWqPHkzE7LnR14WTXu+LQvm0D3NQi9fW+ppG8r5ztVnmXdvurCUrnLWTfYws33xG6W8O8tLQ5+wh16+tixIQrejypelt+r8TK+ED7XDzrbJ80Sv7Bh6O2xLPZWAlae1NezZW265xXz729+2uc4iYPnPN13ACt3zw1XFcy/7s/nVpdeaR5+eYl569fWuauj888xlllpsIbPvyK3N3jtt3dW7uv1xGxbMMArd0yz08rWlnoZezqkP3WXe/NVB3XZbqb+fY78zzEzL9MYTK/QJe+jla8uCJHQ7qnzFdLG9Ej7UDouxn3tLr+wYejtsSz2VgFVse6zV2/IKUv7zu+yyizn00ENrVZ48mQnd8wMW3zzxbHPWxVflwZL52W98Zbg58+j9Mz9f9IOhL5gdr9DLqfIV0zI+mnR1MS/q51tCt+Obvz7cTJ18az/pZPvZTCtsaOb46inZHi74qdAn7KGXry0LktDtqPIV07H1SvhQOyzGfhKwiuWY9LbQ+xsJWNXUo558pRsBK4vHVpmF+sIXvlDm6/VuERABERABERABERABERABERABERCBCgncfffdhX5NtxAWirO3L+tGwOq1B5bi2JWPAAAgAElEQVQErN7WHX1dBERABERABERABERABERABERABIokIAGrSJqBvavNMbACM6WKIwIiIAIiIAIiIAIiIAIiIAIiIAIi4BGQB1ZA1aGbWwgJ/r7rrrsGRENFEQEREAEREAEREAEREAEREAEREAERCIWABKxQLGmMefrpp82+++5rpkyZYtZee21z6qmnmtlmmy2xhGPGjDFnnXWW/ftPfvITs9FGGwVEQ0URAREQAREQAREQAREQAREQAREQAREIhYAErFAsaYx5/fXXzUEHHWQmTZpkllhiCXPuueea+eabL7aEH374oTn66KPN+PHjzTzzzGOFrGWXXTYgGiqKCIiACIiACIiACIiACIiACIiACIhAKAQkYIViyf8rB15X48aNs55XP/vZz8yqq64aW8Lnn3/e7LfffubJJ580K664ojnjjDPMXHPNFRgNFUcEREAEREAEREAEREAEREAEREAERCAEAhKwQrCiV4bbb7/djB492kydOtWMGDHCfOc73zEDBw6crpSXX365OeWUUwyeWBw75B8lERABERABERABERABERABERABERABEagjAQlYdbRKF3l6++23rYB11113mRlnnNHsv//+ZtSoUWbAgAF9b73zzjvNMcccY15++WWz8MILm7PPPtsMHjy4i6/qpyIgAiIgAiIgAiIgAiIgAiIgAiIgAiJQHgEJWOWx7dmbJ0+ebA455BArUJGIbbXDDjuYOeaYw9xyyy3mxhtvtJ5XCFyHH3642XHHHXuWV31YBERABERABERABERABERABERABERABDoRkIDViVBD/85RwuOOO8688sorsSVAvDrggAPM7rvvPo13VkOLq2yLgAiIgAiIgAiIgAiIgAiIgAiIgAgETEACVsDGfe2112xA9+uuu84888wz1utq7rnnNsOGDTN77rmnGTJkSMClV9FEQAREQAREQAREQAREQAREQAREQARCISABKxRLqhwiIAIiIAIiIAIiIAIiIAIiIAIiIAIiECgBCViBGlbFEgEREAEREAEREAEREAEREAEREAEREIFQCEjACsWSKocIiIAIiIAIiIAIiIAIiIAIiIAIiIAIBEpAAlaghlWxREAEREAEREAEREAEREAEREAEREAERCAUAhKwQrGkyiECIiACIiACIiACIiACIiACIiACIiACgRKQgBWoYVUsERABERABERABERABERABERABERABEQiFgASsUCypcoiACIiACIiACIiACIiACIiACIiACIhAoAQkYAVqWBVLBERABERABERABERABERABERABERABEIhIAErFEuqHCIgAiIgAiIgAiIgAiIgAiIgAiIgAiIQKAEJWIEaVsUSAREQAREQAREQAREQAREQAREQAREQgVAISMAKxZIqhwiIgAiIgAiIgAiIgAiIgAiIgAiIgAgESkACVqCGVbFEQAREQAREQAREQAREQAREQAREQAREIBQCErBCsaTKIQIiIAIiIAIiIAIiIAIiIAIiIAIiIAKBEpCAFahhVSwREAEREAEREAEREAEREAEREAEREAERCIWABKxQLKlyiIAIiIAIiIAIiIAIiIAIiIAIiIAIiECgBCRgBWpYFUsEREAEREAEREAEREAEREAEREAEREAEQiEgASsUS6ocIiACIiACIiACIiACIiACIiACIiACIhAoAQlYgRpWxRIBERABERABERABERABERABERABERCBUAhIwArFkiqHCIiACIiACIiACIiACIiACIiACIiACARKQAJWoIZVsURABERABERABERABERABERABERABEQgFAISsEKxpMohAiIgAiIgAiIgAiIgAiIgAiIgAiIgAoESkIAVqGFVLBEQAREQAREQAREQAREQAREQAREQAREIhYAErFAsqXKIgAiIgAiIgAiIgAiIgAiIgAiIgAiIQKAEJGAFalgVSwREQAREQAREQAREQAREQAREQAREQARCISABKxRLqhwiIAIiIAIiIAIiIAIiIAIiIAIiIAIiECgBCViBGlbFEgEREAEREAERiCfwwQcfmAEDBth/lJpJ4MknnzS/+c1vzAEHHGDmmmuuZhZCuRYBERABERCBLgl8/PHHhnnNTDPN1OWbmvFzCVjNsJNyKQIiIAIiIAIiUACBZ5991nzrW98ym222mfna175mBg4cWMBb9YoqCSBejR492vz3v/816667rjn55JPN7LPPXmUW9C0REAEREAER6DkBxKsLL7zQ/PGPfzQ//vGPzVJLLdXzPJWdAQlYZRPW+0VABESgJQReffVV8+CDD5q33nrLDqBLLLGExIEG2f4vf/mLef75583IkSPNDDPM0KCcZ88q4tXBBx9shY8ZZ5zRHHvssWb48OHZX9CAJ998800zadKkYNuhL15hjsUXX9yce+65ZoEFFmiAdZRFERCBphDAo+WJJ54wjz76qPnMZz5jPv/5z5t55pmnKdlvfT4Rdi699FIzaNAgs/HGGwfJw4lXP//5z82HH35oll9+eXPmmWcG75UsASvI6tyeQrEI+dnPfmbuvPNO895779kFyYorrmiPFKy22mqNX4R99NFH5r777jOXXHKJXZCQZpllFrPhhhuaL33pS2bw4MGNN/bjjz9ufvvb35q77rrLvPPOO2bOOee0A82OO+5oFlpoocaXD0HghBNOMLvvvrtZa621Gl+euALQDk888URbRxlAXZp33nnNoYcearbYYotGH9VigsAE9ne/+52tp5RxyJAh5stf/rJZb731Gl02Z6tbbrnFHHPMMbYfpf/cY489Gt9/RuuqL17xN+rl0UcfbeaYY44g2uVLL71kTjvtNDNhwoRp2iF96t5772123nnnxgvKUfEKwyFcnX322UHsOtP+rrzySns08plnnrH1cr755jPbbbed9RZkEd309Nprr5mrrrrKXHfddeb111+3xaE/3X777c0GG2xg5zhNTszbbr/9djtve+SRR2xRmMvstNNOdm7TdE9BJwo89NBD5tvf/nbjyxNX12iH2G/MmDHmjTfe6HuENcawYcOs92fT56dvv/22YdPqsssuM4wdtDvqJ/OaUDYDLr74YvPTn/7Ujns/+MEPzKabbtrkrmW6vEfFK47Sf//737f9aOhJAlboFg60fOyKjB071vzqV7+aZqLuissgs9deezX6eAiT1+OOO8784x//iLWiG0iPOOIIM//88zfO0llsGMJEgTrKPyxCELJCErEYPK+55hp7fIfJUFyinu6www5WyGriUS0WWD/60Y+mEwVcWddee207YWhiG/Ttde2111pvJBI2C03ECl28+ve//20OP/xw8/TTT8e2w6WXXtr87//+r1lkkUUaN1a4DEfFKzZwnnvuOduvsJG16qqrNrZsZByR/Mgjj+wTPaKFwaMVgbKpx0MQdvCGwFMgabxg0+Owww6z4nITvUARAr773e+av/3tb7F1EfHKiclNFeroS/fZZx/b9rbddltbZ5suyvnG6mRDnl1wwQVtW8TbpWmJedttt91m5y2vvPLKdNnHlqwrsG0T26BfoLPOOsuKkCTaW0giVpvFK+wpAatpPY/ya6KNlt1lYmDMPPPM1hMLjxe3CGNCjydP05K/GGExudxyy1nXZTw/8MjCa8l5ujCQMhCtueaajSlm1IYMLEsuuaRdiDz11FOGHVqXGEwRPzjm08SAy3i2sEtJCk3EuvHGG63owW4lC49ddtnF2vH999+3whbtkXpKHT7ooIPMbrvt1pg6SkbpS+hDnPfj3HPPbb11pk6dancsXRsMIQbPvffeaw488EDrBRmaiBW6eOWXj/5yxIgRZqONNjLvvvuuufzyyw2eEqeeeqpZYYUVGtX+/MxGxSsEDoRxFs+IzCxMttlmm8aWL3q01Y35lPvvf/97X1+z7LLL2uMhjCVNSmxYIVzhbU2/6eZt9KcsohF8nKjFePHFL37RjvtNEkY4usvC34lXjBef/exnbfnYkGScdIn/zobWMsss0yQz2rxiJzyQ8EYmhSRi+TakHrLhSPlYXzz22GNm3LhxfaIPNkQ453haU5LznmMzw51aYQ1BWamnrg0yJz/ppJPsONLk5G/MUY5QRKy2i1fYUgJWk1tmS/PuL5oZWJgwOLd6Jkmo7eedd56dJDE54GhBk86sI94QYBihiknq9773PbPOOuv07YTQcd1999128uN22+mUmcgj8jRhxwRR56ijjrIDKIGUOcbjbpFy5cOrhwmDW0wjjnzjG99o3PGCBx54wHqzuKMSoYhYkydPNocccoh5+eWXzRprrGF++MMfTuOFFB1g8Rpg4dUUt3v6EnbSr7/+elvnELI4xoOIStkmTpxoPSQpP5M/Amc2ebKHWMeuuu/BE4InVujiFeMcC40rrrjCjhcIVSuvvPI0swMEZRZgTU1x4hVjBgId3ixsejA+IHg0MfmL5rgxH88sBANi8ZC+853vmP/5n/9pVFHZ0GAuQ32NztsoCHETGR9+//vf94l1ceNKXQtNuRgDOI7FeMFmAEex3KYbcx2OoBOrzYkEzHmOP/54GxKiCfM2nz355hioSyGIWIz5p5xyiq2DSXPq6HjCxtyoUaPqWi2nyxcnOlhf0N5oX2x+uzkZ/415N22VxKY4XmZNEpGjBb7//vvt/Ns/Btp0EUvi1SdWloDVmG5HGYUAEz0GjH/961+286VzjcYv8ReeTBDY9Rs6dGhjAHLunkGUxSMLZCYGcSk6qadTJjhx3QMwM5HjiAAxIpJsSHmZ5DGhxYPAebo0cZIUFbAoW9NFLGzIIurmm2+2gdqx06KLLjpdNfXbIvUZL4ktt9yyEW2R+smikWMvScfpfDG9yQto196Y2OLtwbEIvECd91xTjxOGLl5hN2Ls7L///lZIRWRl0RxSShKvGPcZI1ydXX311W2skyYuthDJ8WRF7EDkiesj/YUnG1UICE1J1E3qKHV1pZVWsnbCOyma6GsvuOACu+noxnximjIfqruXi98Ov/nNb5o999wzVpRChCTWIAtrUtM2H53NogIW/72J8zO/DuI5h7c885s0G/ptkc2CM844oxFxFP25d9KRcl9MDyG2oNuYw2Oeyz7YDKBvaaqIJfHq0xYrAaspMwDl0xLwj7mkHRlgYclkHs8rzkDjdt+ExE45HmW33nqrdT1nIpd2VMAfSN1kCNGrzvEjGECYzL744osdd5KZ0CLo4abt3O+bNkny6ywTAsrddBHLF+U6LZrxtkOwZNLQFJGHSQL9C1cSp7VDfwHdtEVltD+kzPQd7L46T0cm5k0VsZi44gXhgiinBWynTSKUExfEeUqycEYMYsFd56PL7ohEp7GOsYW+CM9BFil4JxO/jThSdfX+SBOvXP3FExnvs6YutmhfeJONHz/eXkBDm3PeyH4b9fsaLnBBBGlK4ig5m2scve40XvibHq58HOMiDmEcl7owwGsHL+Qs9ZA+hktPuGyhiSKWX2cRkvn/7uh50+Znrv5kHfN53j9CmcXedamjWedtbv3URAeAKGu/36R9skH3hz/8obEi1kUXXWTHCNpcWsB2d5EEXpLYncTzW2+9tT2pE7eBUJd6mjUfErCyktJztSDgxxP6yU9+knhkxz3HhJBOi10v3GNnmmkmO0msa/wIFlLuSEQW9106MRad3ObjUt13FvxBNM2G/sSCTpgJrBOxOD7BRLgJQcH9yQDHe1hsORftpnpiuTLNNttsHYMncyRt3333NVOmTDGbb765nbjjjVXn5E9Q0/LsP4eXEm0WNggExBviRp8mTRQ4fo3gT5kRBjjy0lQRy/cSTDoKmSWoNLfZ4hUT52FYhzqMxwo2YneZ40nR26Mo4w033GCPFsYF7EWgw/uHHfk6pSziFfl1wgH/3sQ4WH4fkjbm+89RH/GS5PZXEoH52aSr63jo6ih5zTLm42GP+MyczSXEVo431fXG0E7tMG5hzZzGzQXqPm/z8x/duEG0QlDF047URBHLL1OWeYoLDp5lDlSXftWtizrl2T3H5gbej3gLEjKCtsctfvQ9dd7U8Xn7G3Pc4spclLGwqSKW7yWY5EXX6QIwvJSZr3Japyl2jGtDErDq0rMoH5kI+AJW0k4eHdYvfvELGweLuB+IPM4dnY+wmEGBxlW4bldS5xWw/Ak8C+YHH3zQlpWgjBydrNuihPz6AlbW+AHYlEUYE3cXeLIpx5rcRGexxRYz55xzjp0E+BPXJopYBOJlIUJbOv300816662X2H6Z1CLKIiJnEWUzdQQlP+QvFtOOJjFRwJsQkY5JoduFdtlr2m0+Tph0niAEWsbWaSLWww8/bGNo1NE7ggU+/cQLL7xgNy2oqy6QedQVP61K1fn2N7dwjtstz1pG6ilHgupyxTjtj/h699xzjzVLmvecP56wu8wYUXeBPCoGuIDYad6eCHr0NdRlNuKI/+UnBFY8ufBWqptHXV4B69VXX7VlJW4NAqy7mGfXXXe19aJu5cMOae0wqW9hLkPcLDa1SNE+quRhrt+v9zel8NZFGMDLrskilj9PQSxF5GBMT0puDsTfs4iy/YZd4A/99RPCVFJ/727Opp8h4Tnpp6bdvOxvzLGByriYJmLxd0S7z33uc7WLuUvemMdQ/0jRzfxo2ISk6sMYuddee9m2W9eNj05VXwJWJ0L6e60I+JPVJPXZDy6dlvk6xlZwEze3KGQgQfhIS+4ICRM+vFzYkSbV9WY0f6KQJ35A9PYUdiyZODCY1jX5R0L9SRELtCaLWMSHYiGBWEqsD+JFJC0qsnoY1MmG/hEJRG6OsEYDY/uLlrS8NykQuutfmbi7vod2lyRi3XTTTVb4oC+t6xEfP3i078Xh72Rygyb1mZ13Nj3oozhSeOGFF/YFXK7r7W/+Ed2oB5J/WQZlJEg/AaNJHFNHUHdeWYhYeN3V5SICdxMvu/0IM0meNxzHYiOEm0IZKzl2X1dvubh+wj+6lNRX+MGl0/qausbB9L3kWDAheqQlZ1PmQ8Q4w4ueNlnnm9H8MREvD/7JkvDWZVHNBh2prv2MXxZ3JBRx0d/AarKIxeYTl0AwLhBvjU1wNi6SUtbTIFnqQFXP+OEsksR+1hDM5wj1kZaS1l9VlSXPd/wTOe6INn1qnIi1ySab9M13uLSH8Bf0O3VK/kVfvudm1Ot82LBh1pMV72zmtIyR3D7JBWEkxhscQXbcccc6FS9zXiRgZUalB+tAwG+g5GfJJZe0HQyeHXRITAII7M4EiB1pPD9wZyY+CJOhK6+80npmuVtgCJbKLRx1UaD9ySzlSwskyd95nh084kQRVJvyuGucOwWB75U9/TznzWPUo6Dukz0/3ld04t5kEcv3POq0a9xEAYu24S+6EDYQB9yOJH/nmAsTXhZW9EMsyjbYYAPrkh2dKDRBbKVMzgOUSSwTHbw5XD8TFbHoc2GAfeu8sIxeJOBc5+knWXSmTcQpH8/h9UJix/LrX/96rTxA/LaIJyTjAfbwLzxJ2qyJxuKp27XwtK1ZZ521Y2B25+WKjZp4Q58vpjIm7rTTTlYAYQ7DDYu0xb/85S+2DtImEezwDiD95z//sUfr3KIEwZ0g6Rx9rUvyNx7TLv1w+XUB0eeff34rSBK3hmOuzP/SgsD3srx+oPqFF17Y5psjWFmSHzib5+vsaUb+WPiPGzfOet5GN1mbLGI5zyPK2ClMRRMFLH+DnE0qxBy/n/A9AumHdthhB3vDIkeU2eiIbuogkCAu103gibY51/+wOUW75EZsUpyIxcVS9McIPsxt2bxcbrnlsjTjSp/x4x+7OYy7rTbt4iFszMY/Xp+UMW9fVWkhO3xMAladrKG8ZCLw0EMP2YCgblER9yN2YnGRjet4fA8tFqQIXmlHoDJlqsCH/Mls0rXo7nOuLOwe0dGuuuqq9vYwVHcmVHk8nAosQsdX+TEu8h53jIqYnYLCdsxMiQ+4nXO85Jx9/M81WcRyk720QJKU1feQQEzmiE8dj4BEqwHtBwEZbw5EcnfVNM/5QioTnjjvo+jxEF9cKLHKdfVqX2yMCgFRTyz3ISavdb84ApEHW3KMlT6Vf0f0wEOSSTwCT1JCjEQwoB7X0cPH3xBgPHO32LlJO+VKK2N08Vzn/jTJRv540oR2Fi0HCwnmIf6Nu9FnWFAibCDARjfcoh5adWMQHbMJQp/k2eCXxcUiggXC7GWXXWa9Bup6m60vgORd3EePO7PQRlCuY3LzTo7Xx8W0bKqI5W8GpB1bxibu5APH7AnXgadoExJ9DGMf7Y8Nbz8Gkjt+xhHRpDHd37ir4/opzgZJG3M8GxWx3O87rb16bWvG/bFjx9obwEkIrsyrse+IESPsRk6SYwZlRnjkkiJSHo/RXpfb/74ErDpZQ3nJTACl+cgjj+y7YYof0lhp1HTIDKpp8Tz8YyV1uxktOhlFIOCYDkc//IU/Z7SPOuooG3/HF6r8M9IMML4nRWbAJT/IhN1NSPlU3gCt/mSvriKdQ4g98fzbaqutYo/BNFXEYuHLxI2b2tyOVtrkAU+CtJv6WOQw8cXDoC47eohYeG/GBbrErsRW2GabbRJ32p0Ihuje6Za4kptc5te769Hj+kX6FvqT3/zmN33v+8pXvmKP39U9GOj1119vJ+XE86Bf5H+zBOv1+1MWz/RbdTlm54wQF+uLa8OJ88i4gYcOu89JycVXeu6552q76ZFWgX3htSmLqmh56E9YkCCC+DE7XV3tFD/QP1ZSx5vRoqEdNttsM3s01I+dxxjA4hrvHpIvVPl1PEudztzhFfigf/Npf46Os/hk4xX7131RyfwTj56kzd+milh4OrLRgVicdjIja8wzwoGQuPW1Dok2xj9JMStppxw1pPxJG41+PW3CjahpG3PYhI0s1lI333xzn4nwvCbIeZ0Tc3DiJxIrkv4GezFexG2WR8vh96edxpa6MpCAVVfLtDBfLBTYAcBdNYuHBm6Sjz/+uL2Jh8UhO+SoznhdJV1F7bD67t5ZAjYWZQ53RXungMfRXXG+zzGlVVZZxXZULIjZYWeiE3d8pz+B0osqI4MFk4Crr77aHn/gGAA7PZwn94PmR4MNdtrx8vPnex1ULQzwbQRUbjHBW46FB3bhHDkBorPU3SjruolYlInjVQi91CXqK8fjKGP0lrNO9ca/mCBJLPa9ldJ25zt9K8/fOSaHG/Vtt91m+46hQ4dagY0JeZFijAsgSt6qDPbaXxu64LRx/SJB3hG43BFsytSfhVoeO6U9m8eGcXGEsl4i4ccOyfqbIsqY1YbRo9UcKWBHlqM+aaKxy6Pfn1YtfmQdLzrx9Del6hQaIO94wdiP1x9B2ocMGWL7jDvuuCPTDYuEEkAAyXK5Rieeef6e1Yb0H+4oIO9n7kKsTrwdKPfdd9/dd5NdNIanH14h6cbNPHnO+yzfRySkTSJscLts3FjvlzFvTLJezUsdC8rGWMjcmph4/NNNqqOIxcUAzDcY45M2p7KU2QlYaf2l81biffTFcXE0s3wrzzNF2zDu2wi1xFNk87wX4kd/bEh8R+Z7UcEtzbMcAb0XF5vksWF0YyBr3+jHec36mzz1sIpnJWBVQVnf6EjATcBxm+Z4R5r6n/Qy10FlOabUi7g8TrBh8sNxAYS6tMREgltdEBKSEhNVFlRRXv5Z9ywLmI4GyvAANkQMIKZY3HXtBBH+7ne/a4UQN/GLdr55xItexCDAJhwXmzBhwjS75G4hz64ynoGdBMo4nHURsdhZxU6PPfbYdNnsz/W7ncTU6FE7jmnRPlyMlwxVL9cjfO+Xv/ylueiii6azIS8iJgTHsIoKBN2LetqNDV0wYuxw7rnn2sUlyRevWJj5sSKqFrH6a8OoaJ5VjPJF2Kr607w2pP9g1xixg0TQc0QQxJwsx3azehTkamwpD/dnvEj7tr/4r0vMuW7HCzaqiK3HYiPLMaWq+5q8NuR5xk7mCL4IHrUrsS3j5kguLmHcjZtF1cvoe+hr8KA+//zz+25D5BkCfRPKgo03f8MjKibnPWLtPGCrXFSyEYDn33XXXWfFHTef4Wg1XnLd3GZdBxELQY56x7jvz2s4/kdsUrzI83p9d7KTf9SO8XH33Xe3bbmsG1LLtGG0TfRi/dStDeM25qLiFXMdHAX++c9/9jkHVCli9ceG0f4mT79R9ZhfdB8tAatoonpfvwm4wJBJokzai/0ONYtHVS/i8vgBvZMmaNEy0mkTmJ5jO+4qafcM8REIIv2FL3xhup1An0cVLr5JuxjR8vg3Zri/RXdlESARgTrt/vleEVV4trD4xV2XRUVaynsc0n9Xr0WsOA+baFnzihUsxInbwq5ZNK5SnHiVFLuu3x2L90N2+ZmQ//Wvf019XZE37LhYGQRNzeLa3W05u7WhWzTT97BoxjMtKl5xFI/jdxdffLH1dmWBnbde9Lec3drQ3czHkQ7iQGQRKv1r47OKXv0tX1QsTHpPHO+4K7Szxu1yk9kqPFq7GS/SuPpHW/LGIOrGXnG/LWK8cIJUVo+qKuPydGNDd0lEdCOI+QGBo7lR2ffWdnwdjyrqKN9kzkVMODzi4pILdM08zD9uFvX2pFzMaRC/O3louwsJ8ixEu6m7bDqyYeVOB0TfxTwMsaYbT5ReiljRWx7jWK2//vo27EjSTafR31D3GQPx+mQcYeOdOulSVLxKil3Xjd3831ZhQ/97/vopyzH8bstZhA3dxhyOA2zMcTLEv5jGxbwillnc7YTd1P8s5e/Ghm7zissuiH+MIJvlFEHVfU0WDnmekYCVh5aeLZWAf+tXXhGLM8zsPnM1OB1RpwCYftDXqm4t8r2iAJlVxOJZ577O7Tzut+weJSV/wVVF+XwRigGAYwJ40DBZIzAmApO7RSm6oKJsV111lfVscrt/HOPCoy7Nk6nKybp/pJPJKO7TDBJM7pisEl+HQc9NAruJX9ErEcv3hsNG1BvcwxkIOTrBtdK0UbzxGAAAACAASURBVMQKFheIMVlc4pO8AqoWr/xFBf0LR6y4UY6jIIg1d911lxU0aDukpGum83SC/rEXBGf6JefRlOc9WZ8twoZ4snB7K3FAaLdwc8cGo94E0UUsiy5+082OfVpZi7Ah9RcBE+G/k0juL5wJektbKDumYLc2JJ4VQjtH613qdKMWTFiQ4YGB10WnI/hZ62PSc92MF2nf9uNA5b3httsy+b8varxg4Y+XD/HaGG+og0kCiG/DuEV1keXjXUXYkHkbcdcIBcFxScTktLhDbsFVRfl8MZi6xHiA0EFivGeu6YR72g4bb36KjuNOcMYTJ2lx6R/rIUA6t0lm7aP6Y1/fhnjIc8QfDxTaEYt7561UxE1lvRCx/HYIf+JrYifiAU6cONEGsXbx5vLcMJvmgVS1eFWlDV0d873qy770oygb+htzBD7nFj+3+RYN2B4N7M48l/l9WXO3ImzIfI12yy2tWZJfh+saU7BTOSRgdSKkv1dGwF/o8tG8IlbWK3D9DpHg03Rm/g1jZRXY7zDcN/KIWHny5XbTs4h5ed4b96wfDDDJ+yga0yvqxcBCGE8zjro4EYuJFEcN4m538YMXlh3E3Q/iHOdB5pj4gxDXZ+OuzjGD/iR/8luF+7kfbDzJ+yi6q8xNJwiVnXaU4wSsqsUrbOC8M/h3PML22GOP6fLuiwdFHFPxb7DrRtTMUoeKsiE3muJRQHy3z3/+81bIoj4mHYVxIhZ8TzrppFKvnO6FDavsa4qyobtOG9u5sZQFGsdl4gQCv+8q28OsiPEirT04Dzv6mCIW3lnanv9MkeOFfysaY/npp59u4yzGpZBsGFc+vLYIL0Hd7iTm5bVZ9Hn/kpm4MT96bCdpARgd5xjL08IMVDle+AHn48b86JytiI1QX8QqO1QANiVMACJF0pjvt5k8omiSgFW1eNULG/o32GX17u2mPRZlQ39jjjUDcz3aedJtg07E4lZ3LkHp71y+U9l7YUPy5C61YfO2rre6dmInAasTIf29MgJRASuviOVPjJkocDsYO5a+KzqTIEQRFmdpYkQZhY4TsPhONyIWu4R0wO78fjTGxE477WQZlHXu3g/+u+CCC9ojR0neF77XW9IxT7xgcGd/4YUX+hZeHCn46le/2icyMqnH3dvZkEVzmbeC4fXGkQYGQFzBuXEtTrTxd8CzHvlIq2fUF47TsTMad3V6kXXUBf/tFDvGX1AtscQS08RISspPVMDC9tzkRkBNEpOgMo8N8g0/Pk6no0W+EM4tbti804IZrxfqqdstp10wWcdzibqM9xUea2VNgshfkTZ0x7lduTvFcaG8TPi4AaesVKYNWaxhd45b+/1XdLwou68p0oa0VRad/vEndmfx6MHLCiGLHVu+eeGFF1qRspvjz1nsXvR4EffN6BXhZZcpmocixwtfDOM7jLH0KXiSuDGIBQgezLTZEGxIGWiPfl/pxwNlvkNfymU9ZSXfhkmeOdQz5iosBNOO+8XdLsmYjhhH/CzGDGyIRxALyarHC+bHeHoR+zGa/NtJi4r9x7jIpjFH+cu0oT9eJF3qQPvCs/y8886z3v7uyHynehUnYP3nP/+xGz98l/lf2ccG/TG/aBu68ZCLl9xJCr731ltv2bkbpx9IbHbstttunXD1++9F2tA/peMylCReub/TLvknzSu034X7vx+6Mb9oG/J65t5cpMXlS26NGB0vopdldFueKn8vAatK2vpWKgEXZI9OhUknEwPnoh0XqDzuZXG33HBDHBMM/+a+quK1+Hn0dwBwRUd8csc8+iNiOW8ROlfEOgQFvJgQgeBWZByfJMP5xyI7Bc/3z82nTfhYeOGSj4tvWqrKhu5oK0c2OwXSdcca3eA+atSorlo9gw0LlU5eTt18xB/YOx1b8I84ZJ3w+QIWk1bqbZXiFWz8oziIZWnxDPzYap0m7b7HFhME+hpiLNx33332WIzb4UvznOjGdu63RduQoMUcp3S3nNIeWWyVWQ87cSjLhtFjiRxlQujB04PdV7woquhrirZhdMHhjsokce7PGNTJZtG/lzFexOWBMQSBwHmgdTpCmbccac8XPV7E3UjMUTv6auqMf3NfU8d8x9O1Rfofjq/T52BDxlU8Fapoh+Qlqw2dp3unzZxOwe79+tTJ066Iupq1rykrlqqb1xdRlqR3ZB0v+hNXzefCZgBH7tkYr1K8KsuGUU9719cgXrFp7C5fqKJPLdqGCLW/+c1vbJXpJF6VWTfzztv60w79uSkiOWtqNhiZ37p4ylWMF2VylIBVJl29OxcBt+vPZIDdcAIkIhjkEbGYKPA7XD6TbrmhMRMvC8GlygWZH8Qdz45NNtnE7ob3R8RCDGKCToDsuMSgykK9TI8PvuuXiRtWOKKSltzNLZ2CsKYFr+f97GDiWVbFotrVSzyFzjnnnFSmfmyAKoLn52pgCQ/nWVTyCjdpz+pl5gtCDKDEcyFV4Xnlipx1QcLz/o1zaRdCUEfZvR07dmzsbYa8C88rYrtxVLnMVLQNKRt2ZmeaY6JVtLNOfMqwId+kfn7rW9+yXh9xqarxomgburIwJiJyMCbG3SxKO8a+xDLpz+2pnezm/72s8SIuD/5mFkdGGA+58r7sVMZ48dJLL1lvHxaQSYm+ikU0wYnLTGXaEE8yvJDixFY2CJgvjRw5svR5mxvjCC3BXJSxKi6NGTPGEJcLjziOoCG0IWLQZ2y11VZW2PDDUyACEAfxD3/4Q1+oBP+9COeEUWAOXGbyF8RpQbh5jr6R4NBsxmF7RAVEfYQN4nltv/32uW/wK7Ns7t1OmOp0eQr9BH0fYzXHO6mDCODUN+xKUOzoqQJ/I4/+k3UEwk9VnleUsSwbsh5hfYLnTlyijIRD2HPPPUv1TOLbRdvQHenlvfTTWWK4lllXy7Ihc2z6EWJa9nq8KJOfBKwy6erdmQn4cVdcPAEWuxxtyCti8VGOfnDTBIMTxyRIKO6IVgy6VUxko4V3t2D4gYCjt0bl2QWPu3KVMhLbpz/XAmc2lvegHyw+y20kLghrVu8dJgWIQjfddFPfAnPVVVc1G2+8canBTX0WLs+dJkL8xufRyXunP7zL+I3vGZclgLPvZZbl9kefict/leIV3/TzzAIJj8Wk5PPAC4Dr3JMC6SIOcHSAOuIm9kzwmNx/5StfqWxyX4YNEbFYONNXVin0J9mlLBv648Wf//znvo2PpEVoGW2Qd5ZhQz+v2BOPMibv2JVEjDO8gauIARntH8sYL/zyujhFjB1lxjCJ1oeyxgt3jfyvf/1rwxE3t7FHn80Rey4+yXLzVLf1t8wx35WR+JFObKU/Zcxn07GsyyGiTJyAxRyU/h+20YTgzckAQiMkJY58IioyjviJ33Jk8J577rF2JKg4IjICVhU29BfOaZeL+GEfkspYlXCat976nt9Jgcb9sA9J70/awHDt3P2uSvGKb5ZpQ95NgHtOxSDmkeDAxSdsnFfVDsuwIZ5rlI9N8F6nMm3o+lI23d1pAOooHuZcQoVYW0VfUyZjCVhl0tW7MxPwJ0V48eDNQ4oGy8wb2D1zBip40A140V29bkQsxwiRDjZpNxOWUUR/0dUpBhbfdxPDrAJWGXnO+05/4ZwWA4v3+t47TRGw/N3ETjGwKGPSrYJJXKOxB6oWr8iX7wXWKQZW2g1DeetOVc+XbcOqypH2napsSH0lsaisMrXBhlWPF1XEMInWkdDHi6psSDtE6GGuUGYMmrg27h9dSoqfhKc/Xg5OSBw6dKj14vGPj/PuKo4E9qefcp6CSbd1+jG+nIDhjiH5x1b5W9Vx5rKU1/cURBjk+Bg3DvuJMBV4mOEZ5xb3PItAzMap8wSMi5fr15GqxStXBtnQ2FAj/bVhlnpU9jNV2JB1NE4ibMLXYTOyKKYSsIoiqfd0RYCdKHazmHBGrykPQcRiMnbMMcdYj7C4G2u6FbG6gt/lj50oxWvYzefIFB1lXHLPdjpC2GWWCv25f/sRExmOorjrtKMf8gWsphwhpAzUS+JT4XpM0E6C5CJIxiUnYGU9Qsg7iGfHUTRuBSs7YHtcnn1RinzjIr/zzjvHls9/Nu0IYaGVrICXlW3DArLY1Stkw2nx9acddmWAgn6s8eJTkE0dL0K3oX8bKF6KeBr74RiIM4pHGGIeYwTHO30vxocfftjO9xBCSJ08eQtqWrlew3FUxkGEKoI8jx49uu+yH/94PC/lKCRHCJMCQfNM2beX5iqcMfaYI5dY3HzzzXYuw7qCEw4u+UflEB5POOEEewzUJf8CD/5b9MZy54FHrKEqArbHlV82/PS4Y39smLdOlfF86DYsg5l7pwSsMunq3ZkJIFJdeuml9vw5194icPgpBBGLwHm4Mo8YMcIQADGamipiuWtg3333XcMtXcsvv3yi3ZkkEMA7LYh75kpT4YNc5Yuog+iBd6CbyEWzwEUB/J14NnWb0KXhQhxgQs5kjDhliKxJOzXusoU8XnRMks8//3z73jJvHkorIwv+o446ymywwQZWrEuK9+NfttAULzrKXbYNK2xuiZ+SDT9F0592WAcbarz41ApNHS/aYEOOE2Mf4v1Ex3sXWB9Lcjx1jjnmSJ3PpR1F7FWbdMG6GZMZE6PjvQsCTcgNwlLEzQf8OHNpRxF7VUa8dv/0pz/Z2GnR8d6Vn2cQt7h8JZqiFyhEjyISg5ajoIh7VXsJklfZ8AO7IdqNDXtVN91322DDshhLwCqLrN6bmwAiFROjpHgcIYhYb7zxhj13zJWpcanJIhZHbqLCY7SMLoh7moDFpIFBidgeVQRszVJRGWS4DYlduDQXXD+Ie5qAddttt5mLL77Y3rZYdqD9LOXjGUQ3PAU75SfLMVB4cWSWhKDXi8ldtNz0HxwrIEBuWn6yHgMlnhC3Cx5yyCE9E+WiZZQNPyEiG37CoY7tkHwxzmu8MPaY0gEHHNAX/yzp1to6jheh27DTuEkcOcbLOOHD/dY/ZuiHxuj07rr8HS8lvKaTYkD6xwyzxAitS7lcPphrMlYsueSSiVnzj6hlidtXtzLKhtMeM5QN61ZD+58fCVj9Z6dfdiCAC+748eNt4FgSsW8Injx48OB+n8Otk4hFXp588kkbIJogeUzIcUGmg+wmKG6dRCy8Ogg+z3l/3OUJ6MxuHcEc84oSfowXrgAnJkF0YsSE4sQTTzQ33HCD3fVEHNhpp51Ka2tF29CP04MIt+mmm06XdxYjHDmAZxW3YxVpQwrjYrkl3crIpJaLF/AQIbGDi4jF0b0yUtE29OPxJd2sSZ/GbizPwoFAvxy9LCvBlLgj1B36VdrhGmusYYMLJy0u0vJSNxuS1yLHC9nwE/GqynZYtA01XnzSgps8XrTBhmn9rB+HqUpv3qLH/LQyuttheSbLpS5FjJFFj/lpefJvh63yKGjRY37dbFj0eCEb/t788Ic/tBiqaodFtOVu3iEBqxt6+m0sAc6ec4sMx67irkPG1fjQQw+1Ikh/AsrVQcRCfCDW04QJE6YrIwt1vIc4ptTf2zp6LWLBmIkzN+i88sor09mZYPHsKOa57bBTcGxfvOKDsEMYQPAsI5Vhw04Bzv3FCPVk//33t+7nZdwGUoYNsUOaF52/aKbtE8C2zOuKy7BhJ68IX7yCB7HODjvssNKuEueYAoKnu5XLbwuIvDvssIOtR0lenXFtp042LGO8kA0/Fa+qaIdl2FDjxbTiVRPHizbYMG1uktUTtKj5TVljflr+Os15iiqbe08ZY35aHjvV4aLLx/vKGPPrZMMyxgvZ8BYb004CVhktUu9sBQF3npddGZdYWBEfyRezmIxxjeeRRx6ZGIsmDVgvRazouXjyiaDDQBct42677Wb222+/fi1ueyli+bENKB8LZcRG7OgnXK8RudLiXrnn/Z2sbbfd1t7g4wTMqsWrsmzodiOpD3g/+FyqFK9gXoYN/RsFo150VYtXZdnQv10o6kVXtXjl4pAQl4tEvznrrLPaW5P8xJXQiFxxsUyi/WidbFjWeCEbfuIBWYV4VZYNNV586qlbtnhV1njRBhumzVN9IZ3FJcG+y0xljPmd8lvlxTxljflpZeSoLHN4TltUcTFPGWN+nWxY1nghG17QFz8aD3v/woJO9m/q3+WB1VTL1TDfvqhE9jguyBEwrq7lb0899ZQNhM2tIE7oIR4NXjbEFsqb4kQsrlP9yle+kvdVmZ/3O18mlXvttZc9IsUxHm5u4fYZPLO4Stkljvrg2jn//PNn/o57MCpixd2Ik/ulHX7gD6B4yyFQ0RkiNjGBuPzyy815551nBTsS4hZCJC7yaR51SbuRVYtXZdowKT5U1eJVWTZM2o2sWrwq04ZJO8pVi1d+2+cWJW5xXGedday3HiIUx7OJweU8JF1/hGdk2vHeutiwzPFCNqxGvCrThhovPjlmXoV4VdZ40QYbpk2n3HwAT+Szzz7bMJ8qK5Vlw7T8+mMJx9l//OMf92uzNguTMsf8tO+72315hrUK5SwrlTXm18WGZY4XsuFow+2oZbfDsup+f94rAas/1PSbWALPPPOMPcpC/BFu2SNGTHQhFefi3M0xI79DHDJkSKlHzij0v/71L3PggQdaTySCr8bdzoKQxY2KeOA4kaeb43BuUCPOVplHzigfwiKBxa+77jp7hC/pdhZszXMEuCRlmWTHTWarFq/KtmGcgFW1eFWmDePED2K/uVg7VXh8lG3DOPGjavGKMv7qV7+y/9A/IlStsMIK0/W7cccpOh1prIsNyxwvZMPyj+9SGcu0ocaLasSrMseL0G3I/BNhhVsGo4m5IqEy8J6lT+YG3LLiQJZpQ7fZHM0781zmOwhzbKoQuzQu5mdRy6Uy595sCDGPiSa8rkaPHm0IhF5F/Kuyxvy62LDM8UI2rKYdFtWei3iPBKwiKOodlgDBzPES4LpaFrRDhw5NJENwS7x2HnnkEftMtyIWQb/5XlnxklxBXPBjvkOcr7Qb21DDOdbzwgsv2J93K2L985//NFtuuWUp8ZJc+fzgx2m36PE8C2HiG1199dVW+OokYkUns0zuXMD2bvnkaYJl2jAqYHFTkQvY3olPnjKkPVumDaPiB96G559/fmXHlapoh1HxgwsZXMB2vt9JICrCjghTtL9JkyaZESNG2H41ybuRBdTYsWOt2OUmqml5rIsNyxwvZMNyY8+5Ol6mDTVelBsjUWN+fE+dZ96Gd85JJ51kCImw88472xsJOd7te6mnbQQWMVbwjrLGfOf1xJFsThtssskmNtZi9DRF0oZ1UeXjPWXN2/BcYy661lpr2Q1p7EW5fQ/ntE2kospY1phfJxuWNV7Ihp+caqqiHRZV34t4jwSsIijqHZaAW7wvvvji5txzz7U3ZaUlzpazMGSR5kSsJE+DuiB2wY+z7sZEPTeqmMx0w8qP2ZDlJovo0TFEmiTPNH9BgthI3B5uOKxSvOJbZdrQtQE4bLfddjYOVVXHQJzdy7ShL35wvfYqq6xiJ3pVeV65MpZpQ1/8QDBmcsQCoSrxiu/4baWTkMzzeALg9YnHJAFSSUmTmbrYsMzxQjY81d5wWnYq04YaL8q74MOvF2WOFyHbMBqrKK6tcUMtcRSXW265UptiGTaMhuhIKsAWW2xhLyyaY445Si1jGWN+NERHXAHYkCeMBvEly0xljPl1s2EZ44Vs+EmtrKodltkG8r5bAlZeYno+kYDrnBCucCvOEtcKD5XvfOc75p577ukTMpKOrdUBvRtEl1lmGVvGeeaZp2O28DbDDfmJJ56wz6699trm5JNPLn3A75ixmAf8iRB2YRHcKSFijRkzxsbFQsggJtYPfvCD6dzJ/YWz/85uPNM65S3u72Xa0F84u29X5XnlvlemDfmG4+ez7caDsm429Pn5eavC88p9z5/M7rLLLnaHuFNisnrVVVfZGHyIWGlich1sWOZ4IRuWL15RH8u0ocaLcm6njfYjZY4XIduQjSnEKbz/o7dt0/cOGzbMHHHEEf2Kfdqpr6/KhtyGx2U77qSE/13ivu6zzz425mxazMW8ZUl6vox5G+Mknsvjxo3r2/jxv7/SSivZ8hOrt+xU1phfJxuWMV7IhtW2w7LbQZ73S8DKQ0vPphLA2wSPKhL/++UvfzkTMRR0BJ6HHnrIPr/uuutagYcBsm4JoQZXZmIe5AnoyCBCGd1xwp122skcdthhpcVE6C83vOKYlOBxkicYICIWxwn/8Ic/9HnjELA/uvPIM0wWXKpavOK7ZdoQsZI4ZUxGSFWLV3yzbBu6mxadDasWr8q2oX9zlitjleIV32Thx4UUf//7323gX8RyOHdKiFjcPnfGGWf0ickccdloo42m+WkdbFjmeCEbdqopxfy9TBuSQ40Xxdgp7S1ljxeh23DKlCnWC5kYpSROIGy88cY2nEXapTZFWrZMGxLrivkrbZ2YpcxpEHbWX399e0FTVanMedtrr71m/vKXv1hvaxIXLjFmMn8lvlcVqcwxvy42LHO8kA2rqKX1+oYErHrZo9G58QP0cWvdmWeemWnRRaF9N1AGSI7N7LbbbrXj4QJJEueAHTZuF8TjKEvyXc75TdzCMst7ynzGDwZKHjlGiMdYlhS9HjdOiOTIIELe1KlTu4oJliU/Sc+UaUN2gxAmKWcvxCvKXLYN2Y1FpCM4bS/EK8pYpg0RgbhN6ZJLLrFVqGrxytVbF9CVesSGwI477pip2kePDSCAISb78frqYMMyxwvZMFNV6fqhMm1I5jRedG2iji8oe7wI3YYdAVfwQNk2rKAIHT9R5pjf8eMVPVDmmF9REVI/U/Z4UYcyhm7DOjB2eZCAVSdrNDwv0UVDXi8jbrTD6wBxiNgBeB0suuiitaISFSjyCm3XXHONdUlmwkGMEjwlyo4dkBegP+GMW/ymvY9dEGx43333WQGHo4TEEXKJXSbc6tm1xIOt7KD7cXkt24YcIyQmBEFPR42q5hhItJxl2pC6i8DDbhq761XE2omWr2wbEruO20bZhUWQzCpS521rac9HRaY4j8ak3yMmc3nA9ddfbx/Zd9997T8u1cGGZY8XsmGRtTH+XWXbUONF+TbkC2WOF22wYTVWSv9KmTasQ/nKHvPrUMYyx/w6lK/s8aIOZQzdhnVgLAGrTlYIKC9cN0sQb47KJcVCSioundsvfvELG0uJlOcYYpUI//a3v5lvf/vb9sx83ttJ/IVl3mOIVZWRchH/6uabb7afzHuzhS9Exh1DJHYEHLIciSqrzGXakHrMLT2IsFW5n8cJPGXakEUJxwnSbuEsy3buvWXakG/gFUod7YV4xfepR1xqwZFAUt7YeVwBjqfcc889F3sMsQ42LHu8kA3LboXGXjFf5piv8aJ8G2rMT2eseVv5dTDLF8oe87Pkocxnyh7zy8x71neXPV5kzUdZz7XBhmWxy/teeWDlJdbi5/GaueKKK8xtt91mb1bjJrnhw4fbWEn+Qv2iiy7qi8HCAvCEE06wV9RmSb6L6YYbbmhjYc0888xZftr1M0xS2MXCS4rAptw+ws0jHN3xb1R03guXXXaZ/SYBHvEmyhK0nud9V+isAZq7Ltz/vSCrDZ33AsfE8KTCm+hrX/tapmCdvjt7noD+RZSRwYM4VMTiYrKDTbkpDxuusMIKfTEpmmxDhAfiNVx99dVWKCNeA15u3HrIFdcuyYbpNaqX7TCrDYltgieYC6LLde1HHnlk5viAzp0dsZzLMbL2w0W0xax9TejjhWyYXps05hfR2pLfkbUdarxo/nghGzbfhhovmj9eNNmG5Y5Gxb5dAlaxPIN8G7tzv/zlLw0LjehtKxR4tdVWs8fi3HG/aCykPF5KCBDHHXecFZEQhs4999xKPHUIUsmRm8cee2w6GxJMnh3mkSNH9gl1eJ9wFA6RhEQw8qy3J/rBGvGq4BjWbLPNVmrdyWtDMsMRsWOPPbbjjWZxGXfBGhG/8CJB5Cw7IapyA9uECRNibwXabLPN7OIfYZLUNBvSNhCPudL5lVdemQ7nvPPOa+swoqsLHisbJte6XrTD/tgwel17Ho9I+jX6rjfeeMN6je66665lN0PbX2i8mHa8kA2Tq53G/HKaZN52qDE/3Q5NGS805mvM15hffJ+ad43YtDG/eGLlv1ECVvmMG/0FFvnE8/nrX/+aWo6ogBMVB/IEe3ZeA9zmgoDlez+VAZMBnyt6maAkpbgr6f3A807EyhLXiRtBEIb+/Oc/mzXXXNN6b5V542J/bRgNBp0nKLnv3UIg+OgtaEXbMXqTZdL7o8ewmmLD6O1ySeWLHtuVDZNrWtXtsL82jC4s+f9ZA8tzfJDYV3i5EK+PmGxlpv72NW0YL/yFpWw4bS3UmF9sq+xvO9R40fzxQjZsvg015qf3h00ZL5oy5hc7+lT3NglY1bFu3Jd8TyrEC3b+v/71r9urc1n83XXXXfYWvqefftqWbeutt7aeWDxLwo2SOFaTJk2y/x/PF7xH8BBJSv5u7IorrmiPIjqPmTIA+io5MYuIG4SoxJFIApITk4sr5/E843gWgZT9oNW4bFNGx4B3nHLKKfb63aTk7+Rtvvnm5sQTT+xjVnQZu7Uhv//5z39u4/DAANvixcEOz8CBAxOz6zyw8CyD2aqrrlp00fre5y9+EXD22Wcf8+Uvf9mKguSfQNZ4ueGhRYoGtK67DaOTmeWXX94KoJ/73OespxXiBCIhxwpJ0QsQZMP4qldlO+zWhvSLl156qfXyxLOCtMUWW9jNhbRLIHwPLC5U2GabbUprh932NaGPF7JhfNXTmF9sk+y2HWq8aP54IRs234YaL5o/XjTBhsWOPtW+TQJWtbwb9bXLL7/cijEkBIs99tij72iSK4gvACE0IXYQG8ull156yYpC99xzj/1PCAz77befFUHiBBA/8DAiBDeAueNQRcMjvtM3v/lN89BDDyUeAYwehxwxYoQVD/w8EXNp9OjR5oknnrBZFrEdNwAAGPlJREFUhANH1VhgxuXdD3JedqD6ImwIgzFjxtjg+u4I6cYbb2yOOuooG38pmvyAp9xiyG2SZQVs9wMmpl0a4O+EcPMhR5z8AOR1tqEf9DIpkHfUgyXqbSMbzjBdPa2yHRZhQ+r6VVddZY/JOhELMZMYgxy3jib/UgzaH+2Q9lhWKqKvCX28kA2n3/TQmF9siyyiHWq8aP54IRs234YaL5o/XtTdhsWOPtW+TQJWtbwb8zXEHW6wInjwsGHDrKdV0m1czp2TwsXFWcHzBS8jYhO5tNJKK1lhy3mR8N/xJOG/4bG14IILWjGMo4llpUsuucQKdJQLDxbEgbjkB5lNisvl55134KkEt29961t9scH473hEIPzgsbXsssuaM888szRxp0gb4nEHL7yp3OKZmEvYG6HOiZH87ayzzjLjxo2zKBHoCKBeVvKvrEUUPeSQQ2JFQz+wfFJcrjra0L92uFOb8I9txsVWkw0X7auGVbbDIm3Iu2699VZ75Nl5FOJpyCULxOhzR5Gjtk5rG0W0zSL7mtDHC9nwE89RjflFtLxp31FkO9R40fzxQjZsvg01XjR/vKirDYsfgap9owSsank35mt33nmnOfjgg83UqVOtyLPpppsm5v3ee++1N2W988479lZCFlfRxG7Q2LFjDWKXHwgezwCOmfHfXnjhBfu/aZ40RQF8//33bRB2FoOrr766+elPf5oYh4o8cVRn/Pjx1rsq6mXm8sSRJI6qcTucKyNiCV5K3AIGSzwM+FuewPb9LXPRNiQfHBslUDi2colFM2IWieDiLpZYnmDT/S0jxzsRV+ecc05rFzxSktK1115rvedISfGA6mbDV1991QrJDz/8sOEGOo7oJnkksvCnXAjAafHjZMNq22EZNsRjEC9PdzshdZp+08ULxCOPI9CkJK+9/ra5uN8V3de0YbyQDTXmF9kGeVfR7VBjfvXztjLGC435GvPr3tdozP/kYqkq521F14mq3ycBq2riDfleHmHgxRdfNHvvvbd56qmn7GIp7VY9jtIQi+W+++6LJRF3k1oZyPJMEvj+BRdcYONxdbpVD6X97rvvNieffHLsjYa8a8kll7SxwNLEliLKXJYN33rrLetlddlll8XeSgmj3XbbzR4VTfLaK6J8vIO6hrcXcZ/OOeecaY4FRr/xwAMP2KOwCD0EwT7mmGNis1EnG7LIRcCijX3jG98wX/va11LRIR5zzGyeeeaxNsLLLy7JhtW1w7JsiLfj7373O3vRRdwFFLTD6M2bRbW76HvK6mtCHy9kQ2M3P6K3p5ZRTzXmT0s1z7xN40XzxwvZsPk21HjR/PGiTjYsY5yt8p0SsKqk3aBv+d4qnYL/+p4fWW7VQyB48MEHzRVXXGE9epzXFd5bHDcjWHrZyc9zlmDxPo8st+rhuo2QdeWVV04TxH6XXXYxBG4vW9iBX5k25P1MgK+55hpzww039B1nWmONNcyee+5phgwZUrYJ7fsRaYjPlSVYPMc2CeA+ZcqURE9BP9N1sKGf5ywB/x2PNE9Bv4yy4Syl19OybcjCBO9Q+ho8PEnEukLsXGGFFUqLIeiDK7OvacN4IRtqzC+iIyqzHWrMr2beVvZ4oTFfY37d+xqN+dXM24qoB718hwSsXtKv8bf9Y4GdYmCx+08Qc8SoLAJWHYrtHwvsFAOL/N5yyy023hMpi4BVhzKGbsOoSNcpzo+/45x01LUOdvPz4AutnWJg8TvnKZhVwKpDef1Fl2zYTBuG3tdovJi2p9CYX4eec/o8hN4ONeZPb3ON+fVri22Yt4Xe17RhzK9fy8mXIwlY+Xi15ml/gspRFMSbnXfeObb8/rOdjhDWCSA30xHbithUBJMnQDkiQVxyAlanI4R1Kl8bbIg3FTdJckwLIZJ4beuvv36sGXwBK+0IYZ1s6ItS/Dtl4xY6PM7ikpvMdjpCWKcyyobTWqOJNmxDX6Px4tN6qjG/Tj1ovF1CnbdpvGj+eCEbNt+GGvOntWET14j1HMWy50oCVnZWrXuSBsmNeRtssIEVevDqiEvcfEMMrCeeeCLT0ay6gKQDJpD75MmTbeD5DTfcMPG4zW9/+1vredUkzxY4h25DynjRRRdZ8RGBlThRScczH3roIft3YqEkBXGvS9308/H888/bSxLeffddc9JJJ6XGTjvhhBPs0dy0IO51LKNs+KlVmmrD0PsajRef1lGN+XXsRT/JU+jtUGP+tHWvqeOFxnyN+fXtRT/JWRvG/LrbIC1/ErCabL2S8845ZDxbllhiCTNw4MDEr2U9mvXvf//bnH766eaQQw4xyy23XMm5z/Z6xAxuJBw0aFDqD7K4aXOLBjGISAglacyy5a77p9pgQ7gjni611FKp8X78IO5pAtZtt91mLr74YnPcccd1rBfdWyjbGxCxZp55ZhucPS25IO5pAhY3neCpRuy3kSNHVhIjqVMpZcNPCTXVhm3oazRefFJPNeZ/wkFjfqeevZy/a7xo/nghGzbfhhrzP7VhU9eI5fTQ1bxVAlY1nIP+ih90MummNMSrww8/3PAsN8addtpp9theU5ILjp102x2D8c9//nODpxZp9913tyIWbvxNSG2woX9mHwFn0003nc40iFfciEUMg5VXXtkKPQsssEATTGgvQ8BTkoDeq6++uvnpT39qZp999mnyjnh14okn2sD7eKohJu+0006NKB+ZlA0/uWq5yTZsQ1+j8cIYjfn17lbb0A41XjR/vJANm2/DNvQ1oY/5dRzNJGDV0SoNy1MnzxZ/IkvRiD902GGHVXITX1Eo07wifPEKEWG++eYzp556qhVAmpLaYMNOgfh98Qrhcf/99zejRo0yAwYMaIQZOwVW9oUPCrT00ktbIXnw4MGNKB+ZlA0/Fa+aasM29DUaLz7dsNKYX8/utQ3tUONF88cL2bD5NmxDXxP6mF/HUUwCVh2t0rA83Xnnnebggw+2wdCjni0hiFccMSRW1q233jqdZ0sI4hXVLXQbUsbf//735oc//KGZc845rbfc8ssv39fSmi5eURCONyG6Pfzww2bbbbc13/ve9/qOB4YgXsmGzZ/ItqGv0XjRfPFKNmy+DTVehDFeaN72icd8UzesNOZ/ejqnqQ4OdZUkJGDV1TINylfSDkkI4hVmSPJsCUW8SvNsCcWGlDHpjHoI4hXlS4pLE4p4JRs2fyLbhr5G48UnoQKa6nmlMT8M8UrjRRjjheZtzRavNOZ/ElpG4lXxooYErOKZtu6NcQJWSMJH3IKEgNou5lUIHVPoNkyazIYiXiUJWCGJV7Jh8yeySZNZjRfNmjaEPl5ozG+2AOlaU5z4oTG/WX2NbNjMcA9+LdN40czQMnXvKSRg1d1CDchftHNaaKGF+gK2N3kX1qGPTmZ/9KMfmfPPPz8oVT10G8aJHy+99FJfwPYmxryKdg1RD6xDDz20L9g3zzYx5lW0jNHJrGzYgAEiksXQ+xqNF82Mc+lXU9mw+TbUmK8xvwmjYxvmbRrzmxcXuQltRwJWE6xU8zz6ndOWW25pJk+e3PgjBEmT2YUXXtisssoq9qa3EDyvXDlDt6E/mUWs2m677cyNN95obxsMQbyKemANHTrUzDvvvOb222+3Jg5BvJINmxd0P27oCr2v8cUPjRc1n7wkZE82bN5FO3GmdBseGvOb2Q415mvMb0LNbcN4UUc7SMCqo1Ualif/hgk/6028bTAJvbthwv97E28bTCpfG2zoL5wdh1DEK8rjD6K+nUMRryiTbNicGyPb3NdovJilYbOY6bMrGzbfhhovmj9eyIbNt2Eb1hehjxd1HNAlYNXRKg3Lk3/7mct6SOIVZXI3objyhSReUaY22PDRRx+1t/Thsk0KSbxy9fLUU08148aN6+tBQhKvKJRs2LDBISa7behrNF40v57Khs23ocYL2bAJBEKft2nMb0ItbF4eJWA1z2a1y/HHH39sfvzjH5tLLrnE5i008YoyPfLII1b8ePnll01o4hXla4MN33vvPXPYYYfZY3UhilfYkbKNHj3aTJ06NZhjg36HJxvWrvvPnaE29DUaL3JXi9r9QDasnUlyZ0jjRW5ktfuBbFg7k+TOkMb83Mj0gwwEJGBlgKRHOhPgFqkDDzzQbLTRRlYkmGWW5ruf+6Um3hUiHXGT2C1ZeeWVO0Np2BOh2xBz4I5+9NFHm7322suMGjXKDBgwoGFWSs8uxwiPOOIIM2XKFHPaaaeZwYOb734eLbFs2PwqG3pfo/Gi+XVUNmy+DTXmy4ZNINCGeZvG/CbUxGblUQJWs+xV69w+++yz1jspNPHKQWeQefPNN82gQYNqbYduMhe6DdkJeuqpp8xiiy0WnHjl7E5g+g8++MC2xRCTbBiGVUPvazReNL+eyobNt6HGC9mwCQRCn7dhA435TaiJzcmjBKzm2Eo5FQEREAEREAEREAEREAEREAEREAEREIFWEpCA1Uqzq9AiIAIiIAIiIAIiIAIiIAIiIAIiIAIi0BwCErCaYyvlVAREQAREQAREQAREQAREQAREQAREQARaSUACVivNrkKLgAiIgAiIgAiIgAiIgAiIgAiIgAiIQHMISMBqjq2UUxEQAREQAREQAREQAREQAREQAREQARFoJQEJWK00uwotAiIgAiIgAiIgAiIgAiIgAiIgAiIgAs0hIAGrObZSTkVABERABERABERABERABERABERABESglQQkYLXS7Cq0CIiACIiACIiACIiACIiACIiACIiACDSHgASs5thKORUBERABERABERABERABERABERABERCBVhKQgNVKs6vQIiACIiACIiACIiACIiACIiACIiACItAcAhKwmmMr5VQEREAEREAEREAEREAEREAEREAEREAEWklAAlYrza5Ci4AIiIAIiIAIiIAIiIAIiIAIiIAIiEBzCEjAao6tlFMREAEREAEREAEREAEREAEREAERqCWB1157zVx55ZVm9tlnN8OHDzezzjrrdPl88sknzQ033GAWWmgh88UvftH+3f23ZZdd1mywwQa5ynb//feb2267zSy//PK5fxv3oSxlyJVBPVwoAQlYheLUy0RABERABERABERABERABERABESgfQSyiD8SsKatFx999JF54IEHzIsvvmiGDRvWvkqTs8QSsHIC0+MiIAIiIAIiIAIiIAIiIAIiIAIiIALTEuivgNUNx6Z7YDlm888/f59HWjc8Qv+tBKzQLazyiYAIiIAIiIAIiIAIiIAIiIAIiEDJBCRg5QcsASsfMwlY+XjpaREQAREQAREQAREQAREQAREQAREQgQiB/gpYSTGwJk2aZO69917z9ttvm4EDB5rlllvOfPDBB+aRRx4xW2yxhRk8eLBxHlj8jWceeughM3XqVBt/a+WVV7b/DBgwoC+nzz33nLnjjjvMSy+9ZDi+x3PE3lp99dXNzDPPbFwZZpttNhtX65///Kd58803zYwzzmiWWGIJG2eLv7nk3vfKK6/YvM0wwwzmM5/5jP3uiiuuaB979913zVVXXWW/hafV5MmT7XOf+9znbFn4nUu8n+/yPmJ7Pf/88+bDDz+0ZaO80e8nVULee88999jyfPzxxzZPK620ks2T4/HOO+9YFo8//rhlRhkXXXRRs84665h55513mrzzf8gX9nA8ll56abPhhhua//znP+buu++2dpppppnMCiusYNZaa61S2ocErFKw6qUiIAIiIAIiIAIiIAIiIAIiIAIi0B4CRQpYt99+u0HAmnPOOc0yyyxjxRFEGcQcBJiogMV/Q4BCjEKI+fe//21/s/baa5tVVlnFGgGh5sYbb7T//tnPftbMNddc9p2IWYhTvBNxhkD07733nn3P4osvbgPOP/roo1ZMWmSRRcy2225r//bUU0/ZgPT8+1JLLWXmmWce88ILL9jvkM+NN97YilROwHr99ddtHhHb3nrrLYMAROwrRLI55pjDfP7zn7ciFWVB8EJU4hne++yzz5onnnjCLLDAAvb7vCcpwW3ixIl9PBC/Hn74YfPGG29YAWu99dYzL7/8srnuuutsPigT350yZYoNqI8Itfnmm1sxy887ottiiy1mBg0aZEUr3jHffPPZd1B+hD2485uNNtrI2qLoJAGraKJ6nwiIgAiIgAiIgAiIgAiIgAiIgAi0jIATsBAwOiWEkKRbCBF1rrnmGnubIc84j6enn37aCkZ4TkUFLMQobj5ECCI988wz5s9//rMVW3jH+++/b0UhRBwEoAUXXNA+h9DEc6+++qp9J8IQAhbi0SabbGIFJJL7PQLX9ttvb+aee25z8803m8cee8z+DrHHJUScW2+91QpSeEw5EYhv4LGEgOVS3BHCBx980Nxyyy1WaHJeXDyP+Ea5EJcWXnjhWMSIZH/605+sqObzwNvq6quvtp5fW2+9tbnrrrusCIWnFN5iLiG+TZgwwfKBExzgRt79Z7ER74PfZpttZoYMGWJfgcg2fvx4KzpS1qKTBKyiiep9IiACIiACIiACIiACIiACIiACItAyAk6MQWBCOEIsiSY8mxA/8PpJErA4pnbnnXda8Ydja366/vrrredTVMAaOnToNIIJotEf//hH682EkIMAg8cRQtOWW26ZaBlXBo77jRgxwh77cwlRCk8m9+2kl0SPRDoBC48wJ36538YJWIhiiEgIeHiQIQ4hSGVJHKFE/MLrbM0114z9CfmADYky8h2XEKQQpjjCiH0QBBGw+A3P4g1GcmXC1j4nOPPusoLSS8DKUgv0jAiIgAiIgAiIgAiIgAiIgAiIgAiIQEfxB0EE0cgXf9yPnLjDsbwkAYvYTwgxcUJR9G9JtxA6gYXvkheO9uG9xbE2hLGklHYMMilfiDt4RiHeEBOLI4kIdYhvvgdWVOwhD3ECFiIS3l0cbyR+FUIgRyk5jkh8KT8GV7Qcjkec+Oee7RQ43i8nnlhOwPLFtyhfZ+tO7+62+UjA6pagfi8CIiACIiACIiACIiACIiACIiACLSdQVAyspghYCFV4SiFckfD2QrzDa4l4WdEjhE5M84W9NMGHGFMcJ0T04+gjAhhHHBH2OIIZl4oQsHxPMwlYLW/UKr4IiIAIiIAIiIAIiIAIiIAIiIAIhEagKAGrP0cInbeTYxr1EEo7Qsj3+GfYsGE2KDkxsOK8yHxhDQ8y4nRx1I5jfsR8Ivg5KekIYV4By68feGVxq+C//vUvG4Ce+FxxKe0I4U033WQ9xQiw/te//tX+PM8RQnlghdZiVR4REAEREAEREAEREAEREAEREAERaCGBogSspCDueDxde+21NqB6NAZWJwHL3ezHcb9tttnGxmgiEdycI3K8c7vttrNH9rIIWASN57lorCy8pBC68JxacsklbbytpON2fJ+g68SMIrYURx1Jd999t5k8ebJZf/317bFBl/773//aQO4EgU8KkO6CuOOpxfvccUPHzglz3PKYFsQdIY8jnghnOkLYwsasIouACIiACIiACIiACIiACIiACIhAqASKErDgg8AyadIkG/sJ7yaEJ2JCEQ8q7hbCTgIWQhM37CEAkfBiQswhKDs3C6622mrmC1/4Ql9Mqk4eWASDxwPr2WefNXhjEWgdEYw8vvXWWzaP7qbFNAHL/Y3fEIh+iSWWsCIaNyPyv7yXY3x4kCFg8d+22morGwTf8aY8vncU3CZOnGiPGxLzi4RnFjcKInzx3zieSFB7vsu7Bg8ebKZMmWK9xwgYv+mmm9q8JAWgVwysUFuxyiUCIiACIiACIiACIiACIiACIiACgRMoUsBCAOK4HP8glnA8D88jRCKEnLweWC7uFEHW77jjDhtonW985jOfMWussYaNV0XKE8Qd8Yd4UU8//bT1VBo4cKBZfPHFzaqrrmpvAuS/cUQP0Q0vJlJccHu8tRCcKBtiHccDiaHFMT+EJt6DqIRXFF5Z3PDo5zUqYPH/EdI4ckh5SHPPPbdZb731bP5cwvsMFgh7iFt8A2FunXXWMfPOO699TAJW4I1WxRMBERABERABERABERABERABERABESiewNVXX23FJ9/jqPiv6I11JaBbCOtqGeVLBERABERABERABERABERABERABFpGgGNsBBxfYYUVrHeUSy6OE95UcZ5MLcPUyuJKwGql2VVoERABERABERABERABERABERABEagfAY6t4WlF3CdiMxGjieN6xHHimB1H4Yh5pdQ+AhKw2mdzlVgEREAEREAEREAEREAEREAEREAEakuA2/SIAUWQ9A8++MBwiyBxnAhCvvDCC9c238pYuQQkYJXLV28XAREQAREQAREQAREQAREQAREQAREQARHokoAErC4B6uciIAIiIAIiIAIiIAIiIAIiIAIiIAIiIALlEpCAVS5fvV0EREAEREAEREAEREAEREAEREAEREAERKBLAhKwugSon4uACIiACIiACIiACIiACIiACIiACIiACJRLQAJWuXz1dhEQAREQAREQAREQAREQAREQAREQAREQgS4JSMDqEqB+LgIiIAIiIAIiIAIiIAIiIAIiIAIiIAIiUC6B/w8JYJ6ThzwKtwAAAABJRU5ErkJggg==;fontFamily=Verdana;fontSize=14;" parent="1" vertex="1">
          <mxGeometry x="365.69" y="240" width="188.62" height="125.74" as="geometry" />
        </mxCell>
        <mxCell id="2kt7XXTKZLAYmr-dLWQS-4" value="Database" style="sketch=0;points=[[0,0,0],[0.25,0,0],[0.5,0,0],[0.75,0,0],[1,0,0],[0,1,0],[0.25,1,0],[0.5,1,0],[0.75,1,0],[1,1,0],[0,0.25,0],[0,0.5,0],[0,0.75,0],[1,0.25,0],[1,0.5,0],[1,0.75,0]];outlineConnect=0;fontColor=#232F3E;gradientColor=#4D72F3;gradientDirection=north;fillColor=#3334B9;strokeColor=#ffffff;dashed=0;verticalLabelPosition=bottom;verticalAlign=top;align=center;html=1;fontSize=14;fontStyle=0;aspect=fixed;shape=mxgraph.aws4.resourceIcon;resIcon=mxgraph.aws4.documentdb_with_mongodb_compatibility;fontFamily=Verdana;" parent="1" vertex="1">
          <mxGeometry x="400" y="430" width="98" height="98" as="geometry" />
        </mxCell>
        <mxCell id="hkTGrcqlLRR43mD0bZ0g-7" value="" style="outlineConnect=0;dashed=0;verticalLabelPosition=bottom;verticalAlign=top;align=center;html=1;shape=mxgraph.aws3.cache_node;fillColor=#2E73B8;gradientColor=none;fontFamily=Verdana;fontSize=14;" parent="1" vertex="1">
          <mxGeometry x="510" y="391" width="60" height="63" as="geometry" />
        </mxCell>
        <mxCell id="Dai6Ap41a36IRt_M9ltU-30" style="edgeStyle=none;rounded=0;orthogonalLoop=1;jettySize=auto;html=1;shape=flexArrow;strokeColor=none;fillColor=light-dark(#012b4a, #1d293b);labelBackgroundColor=light-dark(#012b4a, #ededed);fontColor=light-dark(#012b4a, #ededed);" parent="1" source="Dai6Ap41a36IRt_M9ltU-26" target="Dai6Ap41a36IRt_M9ltU-17" edge="1">
          <mxGeometry relative="1" as="geometry" />
        </mxCell>
        <mxCell id="Dai6Ap41a36IRt_M9ltU-26" value="BDD WITH CUCUMBER&lt;div&gt;&lt;b&gt;ACCEPTANCE TESTS&lt;/b&gt;&lt;/div&gt;" style="rounded=0;whiteSpace=wrap;html=1;fillColor=light-dark(#012b4a, #281d00);strokeColor=#d6b656;align=left;verticalAlign=top;fontColor=light-dark(#ffffff, #ededed);fontFamily=Verdana;fontSize=14;" parent="1" vertex="1">
          <mxGeometry x="740" y="80" width="300" height="480" as="geometry" />
        </mxCell>
      </root>
    </mxGraphModel>
  </diagram>
</mxfile>
